%TF.GenerationSoftware,KiCad,Pcbnew,5.1.6-c6e7f7d~87~ubuntu18.04.1*%
%TF.CreationDate,2020-10-02T11:35:24-04:00*%
%TF.ProjectId,breadboard-io,62726561-6462-46f6-9172-642d696f2e6b,rev?*%
%TF.SameCoordinates,Original*%
%TF.FileFunction,Copper,L2,Bot*%
%TF.FilePolarity,Positive*%
%FSLAX46Y46*%
G04 Gerber Fmt 4.6, Leading zero omitted, Abs format (unit mm)*
G04 Created by KiCad (PCBNEW 5.1.6-c6e7f7d~87~ubuntu18.04.1) date 2020-10-02 11:35:24*
%MOMM*%
%LPD*%
G01*
G04 APERTURE LIST*
%TA.AperFunction,ComponentPad*%
%ADD10O,1.700000X1.700000*%
%TD*%
%TA.AperFunction,ComponentPad*%
%ADD11R,1.700000X1.700000*%
%TD*%
%TA.AperFunction,ViaPad*%
%ADD12C,0.800000*%
%TD*%
%TA.AperFunction,Conductor*%
%ADD13C,0.250000*%
%TD*%
%TA.AperFunction,Conductor*%
%ADD14C,0.254000*%
%TD*%
G04 APERTURE END LIST*
D10*
%TO.P,J1,10*%
%TO.N,GND*%
X148590000Y-119380000D03*
%TO.P,J1,9*%
%TO.N,LED3*%
X146050000Y-119380000D03*
%TO.P,J1,8*%
%TO.N,LED2*%
X143510000Y-119380000D03*
%TO.P,J1,7*%
%TO.N,LED1*%
X140970000Y-119380000D03*
%TO.P,J1,6*%
%TO.N,LED0*%
X138430000Y-119380000D03*
%TO.P,J1,5*%
%TO.N,SW3*%
X135890000Y-119380000D03*
%TO.P,J1,4*%
%TO.N,SW2*%
X133350000Y-119380000D03*
%TO.P,J1,3*%
%TO.N,SW1*%
X130810000Y-119380000D03*
%TO.P,J1,2*%
%TO.N,SW0*%
X128270000Y-119380000D03*
D11*
%TO.P,J1,1*%
%TO.N,VCC*%
X125730000Y-119380000D03*
%TD*%
D12*
%TO.N,GND*%
X145415000Y-111125000D03*
X144780000Y-113665000D03*
X134620000Y-117475000D03*
X133350000Y-107950000D03*
X127635000Y-107950000D03*
X123825000Y-107950000D03*
X140970000Y-107950000D03*
X148590000Y-107950000D03*
X135504372Y-111195541D03*
%TO.N,LED3*%
X151130000Y-113030000D03*
%TO.N,LED2*%
X143510000Y-113030000D03*
%TO.N,LED1*%
X135890000Y-112940000D03*
%TO.N,LED0*%
X128190010Y-113030000D03*
%TO.N,VCC*%
X125730000Y-103505000D03*
X133350000Y-103505000D03*
X140970000Y-103505000D03*
X148590000Y-103505000D03*
X127635000Y-109855000D03*
X135255000Y-109855000D03*
X142875000Y-109855000D03*
X150495000Y-109855000D03*
%TD*%
D13*
%TO.N,LED3*%
X151130000Y-113030000D02*
X146685000Y-113030000D01*
X146685000Y-113030000D02*
X146050000Y-113665000D01*
X146050000Y-113665000D02*
X146050000Y-119380000D01*
%TO.N,LED2*%
X143510000Y-113030000D02*
X143510000Y-117475000D01*
X143510000Y-117475000D02*
X143510000Y-119380000D01*
%TO.N,LED1*%
X135890000Y-112940000D02*
X140245000Y-112940000D01*
X140970000Y-113665000D02*
X140970000Y-119380000D01*
X140245000Y-112940000D02*
X140970000Y-113665000D01*
%TO.N,LED0*%
X128190010Y-113030000D02*
X128825010Y-113665000D01*
X128825010Y-113665000D02*
X137795000Y-113665000D01*
X138430000Y-114300000D02*
X138430000Y-119380000D01*
X137795000Y-113665000D02*
X138430000Y-114300000D01*
%TO.N,VCC*%
X125730000Y-119380000D02*
X125730000Y-103505000D01*
X125730000Y-103505000D02*
X133350000Y-103505000D01*
X133350000Y-103505000D02*
X140970000Y-103505000D01*
X140970000Y-103505000D02*
X148590000Y-103505000D01*
X127635000Y-109855000D02*
X125730000Y-109855000D01*
X127635000Y-109855000D02*
X135255000Y-109855000D01*
X135255000Y-109855000D02*
X142875000Y-109855000D01*
X142875000Y-109855000D02*
X149860000Y-109855000D01*
X149860000Y-109855000D02*
X150495000Y-109855000D01*
%TD*%
D14*
%TO.N,GND*%
G36*
X122700388Y-102678769D02*
G01*
X122721052Y-102703948D01*
X122746231Y-102724612D01*
X122746233Y-102724614D01*
X122821550Y-102786425D01*
X122936207Y-102847710D01*
X123060617Y-102885450D01*
X123157581Y-102895000D01*
X123157588Y-102895000D01*
X123190000Y-102898192D01*
X123222412Y-102895000D01*
X124892805Y-102895000D01*
X124812795Y-103014744D01*
X124734774Y-103203102D01*
X124695000Y-103403061D01*
X124695000Y-103606939D01*
X124734774Y-103806898D01*
X124812795Y-103995256D01*
X124926063Y-104164774D01*
X124970001Y-104208712D01*
X124970001Y-109817661D01*
X124966323Y-109855000D01*
X124970001Y-109892339D01*
X124970000Y-117891928D01*
X124880000Y-117891928D01*
X124755518Y-117904188D01*
X124635820Y-117940498D01*
X124525506Y-117999463D01*
X124428815Y-118078815D01*
X124349463Y-118175506D01*
X124290498Y-118285820D01*
X124254188Y-118405518D01*
X124241928Y-118530000D01*
X124241928Y-119990000D01*
X121952279Y-119990000D01*
X121802131Y-119975278D01*
X121688754Y-119941047D01*
X121584183Y-119885446D01*
X121492405Y-119810594D01*
X121416909Y-119719335D01*
X121360581Y-119615160D01*
X121325560Y-119502024D01*
X121310000Y-119353979D01*
X121310000Y-102902279D01*
X121324722Y-102752131D01*
X121358953Y-102638754D01*
X121414555Y-102534181D01*
X121489407Y-102442404D01*
X121580664Y-102366909D01*
X121684844Y-102310581D01*
X121797976Y-102275560D01*
X121946022Y-102260000D01*
X122281620Y-102260000D01*
X122700388Y-102678769D01*
G37*
X122700388Y-102678769D02*
X122721052Y-102703948D01*
X122746231Y-102724612D01*
X122746233Y-102724614D01*
X122821550Y-102786425D01*
X122936207Y-102847710D01*
X123060617Y-102885450D01*
X123157581Y-102895000D01*
X123157588Y-102895000D01*
X123190000Y-102898192D01*
X123222412Y-102895000D01*
X124892805Y-102895000D01*
X124812795Y-103014744D01*
X124734774Y-103203102D01*
X124695000Y-103403061D01*
X124695000Y-103606939D01*
X124734774Y-103806898D01*
X124812795Y-103995256D01*
X124926063Y-104164774D01*
X124970001Y-104208712D01*
X124970001Y-109817661D01*
X124966323Y-109855000D01*
X124970001Y-109892339D01*
X124970000Y-117891928D01*
X124880000Y-117891928D01*
X124755518Y-117904188D01*
X124635820Y-117940498D01*
X124525506Y-117999463D01*
X124428815Y-118078815D01*
X124349463Y-118175506D01*
X124290498Y-118285820D01*
X124254188Y-118405518D01*
X124241928Y-118530000D01*
X124241928Y-119990000D01*
X121952279Y-119990000D01*
X121802131Y-119975278D01*
X121688754Y-119941047D01*
X121584183Y-119885446D01*
X121492405Y-119810594D01*
X121416909Y-119719335D01*
X121360581Y-119615160D01*
X121325560Y-119502024D01*
X121310000Y-119353979D01*
X121310000Y-102902279D01*
X121324722Y-102752131D01*
X121358953Y-102638754D01*
X121414555Y-102534181D01*
X121489407Y-102442404D01*
X121580664Y-102366909D01*
X121684844Y-102310581D01*
X121797976Y-102275560D01*
X121946022Y-102260000D01*
X122281620Y-102260000D01*
X122700388Y-102678769D01*
G36*
X152517869Y-102274722D02*
G01*
X152631246Y-102308953D01*
X152735819Y-102364555D01*
X152827596Y-102439407D01*
X152903091Y-102530664D01*
X152959419Y-102634844D01*
X152994440Y-102747976D01*
X153010001Y-102896031D01*
X153010000Y-119347721D01*
X152995278Y-119497869D01*
X152961047Y-119611246D01*
X152905446Y-119715817D01*
X152830594Y-119807595D01*
X152739335Y-119883091D01*
X152635160Y-119939419D01*
X152522024Y-119974440D01*
X152373979Y-119990000D01*
X149941696Y-119990000D01*
X150031481Y-119736891D01*
X149910814Y-119507000D01*
X148717000Y-119507000D01*
X148717000Y-119527000D01*
X148463000Y-119527000D01*
X148463000Y-119507000D01*
X148443000Y-119507000D01*
X148443000Y-119253000D01*
X148463000Y-119253000D01*
X148463000Y-118059845D01*
X148717000Y-118059845D01*
X148717000Y-119253000D01*
X149910814Y-119253000D01*
X150031481Y-119023109D01*
X149934157Y-118748748D01*
X149785178Y-118498645D01*
X149590269Y-118282412D01*
X149356920Y-118108359D01*
X149094099Y-117983175D01*
X148946890Y-117938524D01*
X148717000Y-118059845D01*
X148463000Y-118059845D01*
X148233110Y-117938524D01*
X148085901Y-117983175D01*
X147823080Y-118108359D01*
X147589731Y-118282412D01*
X147394822Y-118498645D01*
X147325195Y-118615534D01*
X147203475Y-118433368D01*
X146996632Y-118226525D01*
X146810000Y-118101822D01*
X146810000Y-113979801D01*
X146999802Y-113790000D01*
X150426289Y-113790000D01*
X150470226Y-113833937D01*
X150639744Y-113947205D01*
X150828102Y-114025226D01*
X151028061Y-114065000D01*
X151231939Y-114065000D01*
X151431898Y-114025226D01*
X151620256Y-113947205D01*
X151789774Y-113833937D01*
X151933937Y-113689774D01*
X152047205Y-113520256D01*
X152125226Y-113331898D01*
X152165000Y-113131939D01*
X152165000Y-112928061D01*
X152125226Y-112728102D01*
X152047205Y-112539744D01*
X151933937Y-112370226D01*
X151789774Y-112226063D01*
X151620256Y-112112795D01*
X151431898Y-112034774D01*
X151231939Y-111995000D01*
X151028061Y-111995000D01*
X150828102Y-112034774D01*
X150639744Y-112112795D01*
X150470226Y-112226063D01*
X150426289Y-112270000D01*
X146722333Y-112270000D01*
X146685000Y-112266323D01*
X146647667Y-112270000D01*
X146536014Y-112280997D01*
X146392753Y-112324454D01*
X146260724Y-112395026D01*
X146144999Y-112489999D01*
X146121200Y-112518998D01*
X145539002Y-113101197D01*
X145509999Y-113124999D01*
X145454871Y-113192174D01*
X145415026Y-113240724D01*
X145371451Y-113322246D01*
X145344454Y-113372754D01*
X145300997Y-113516015D01*
X145290000Y-113627668D01*
X145290000Y-113627678D01*
X145286324Y-113665000D01*
X145290000Y-113702323D01*
X145290001Y-118101821D01*
X145103368Y-118226525D01*
X144896525Y-118433368D01*
X144780000Y-118607760D01*
X144663475Y-118433368D01*
X144456632Y-118226525D01*
X144270000Y-118101822D01*
X144270000Y-113733711D01*
X144313937Y-113689774D01*
X144427205Y-113520256D01*
X144505226Y-113331898D01*
X144545000Y-113131939D01*
X144545000Y-112928061D01*
X144505226Y-112728102D01*
X144427205Y-112539744D01*
X144313937Y-112370226D01*
X144169774Y-112226063D01*
X144000256Y-112112795D01*
X143811898Y-112034774D01*
X143611939Y-111995000D01*
X143408061Y-111995000D01*
X143208102Y-112034774D01*
X143019744Y-112112795D01*
X142850226Y-112226063D01*
X142706063Y-112370226D01*
X142592795Y-112539744D01*
X142514774Y-112728102D01*
X142475000Y-112928061D01*
X142475000Y-113131939D01*
X142514774Y-113331898D01*
X142592795Y-113520256D01*
X142706063Y-113689774D01*
X142750000Y-113733711D01*
X142750001Y-117437658D01*
X142750000Y-117437668D01*
X142750000Y-118101821D01*
X142563368Y-118226525D01*
X142356525Y-118433368D01*
X142240000Y-118607760D01*
X142123475Y-118433368D01*
X141916632Y-118226525D01*
X141730000Y-118101822D01*
X141730000Y-113702323D01*
X141733676Y-113665000D01*
X141730000Y-113627677D01*
X141730000Y-113627667D01*
X141719003Y-113516014D01*
X141675546Y-113372753D01*
X141604974Y-113240724D01*
X141510001Y-113124999D01*
X141481003Y-113101201D01*
X140808803Y-112429002D01*
X140785001Y-112399999D01*
X140669276Y-112305026D01*
X140537247Y-112234454D01*
X140393986Y-112190997D01*
X140282333Y-112180000D01*
X140282322Y-112180000D01*
X140245000Y-112176324D01*
X140207678Y-112180000D01*
X136593711Y-112180000D01*
X136549774Y-112136063D01*
X136380256Y-112022795D01*
X136191898Y-111944774D01*
X135991939Y-111905000D01*
X135788061Y-111905000D01*
X135588102Y-111944774D01*
X135399744Y-112022795D01*
X135230226Y-112136063D01*
X135086063Y-112280226D01*
X134972795Y-112449744D01*
X134894774Y-112638102D01*
X134855000Y-112838061D01*
X134855000Y-112905000D01*
X129220423Y-112905000D01*
X129185236Y-112728102D01*
X129107215Y-112539744D01*
X128993947Y-112370226D01*
X128849784Y-112226063D01*
X128680266Y-112112795D01*
X128491908Y-112034774D01*
X128291949Y-111995000D01*
X128088071Y-111995000D01*
X127888112Y-112034774D01*
X127699754Y-112112795D01*
X127530236Y-112226063D01*
X127386073Y-112370226D01*
X127272805Y-112539744D01*
X127194784Y-112728102D01*
X127155010Y-112928061D01*
X127155010Y-113131939D01*
X127194784Y-113331898D01*
X127272805Y-113520256D01*
X127386073Y-113689774D01*
X127530236Y-113833937D01*
X127699754Y-113947205D01*
X127888112Y-114025226D01*
X128088071Y-114065000D01*
X128150208Y-114065000D01*
X128261210Y-114176002D01*
X128285009Y-114205001D01*
X128400734Y-114299974D01*
X128532763Y-114370546D01*
X128676024Y-114414003D01*
X128825010Y-114428677D01*
X128862343Y-114425000D01*
X137480199Y-114425000D01*
X137670000Y-114614802D01*
X137670001Y-118101821D01*
X137483368Y-118226525D01*
X137276525Y-118433368D01*
X137160000Y-118607760D01*
X137043475Y-118433368D01*
X136836632Y-118226525D01*
X136593411Y-118064010D01*
X136323158Y-117952068D01*
X136036260Y-117895000D01*
X135743740Y-117895000D01*
X135456842Y-117952068D01*
X135186589Y-118064010D01*
X134943368Y-118226525D01*
X134736525Y-118433368D01*
X134620000Y-118607760D01*
X134503475Y-118433368D01*
X134296632Y-118226525D01*
X134053411Y-118064010D01*
X133783158Y-117952068D01*
X133496260Y-117895000D01*
X133203740Y-117895000D01*
X132916842Y-117952068D01*
X132646589Y-118064010D01*
X132403368Y-118226525D01*
X132196525Y-118433368D01*
X132080000Y-118607760D01*
X131963475Y-118433368D01*
X131756632Y-118226525D01*
X131513411Y-118064010D01*
X131243158Y-117952068D01*
X130956260Y-117895000D01*
X130663740Y-117895000D01*
X130376842Y-117952068D01*
X130106589Y-118064010D01*
X129863368Y-118226525D01*
X129656525Y-118433368D01*
X129540000Y-118607760D01*
X129423475Y-118433368D01*
X129216632Y-118226525D01*
X128973411Y-118064010D01*
X128703158Y-117952068D01*
X128416260Y-117895000D01*
X128123740Y-117895000D01*
X127836842Y-117952068D01*
X127566589Y-118064010D01*
X127323368Y-118226525D01*
X127191513Y-118358380D01*
X127169502Y-118285820D01*
X127110537Y-118175506D01*
X127031185Y-118078815D01*
X126934494Y-117999463D01*
X126824180Y-117940498D01*
X126704482Y-117904188D01*
X126580000Y-117891928D01*
X126490000Y-117891928D01*
X126490000Y-110615000D01*
X126931289Y-110615000D01*
X126975226Y-110658937D01*
X127144744Y-110772205D01*
X127333102Y-110850226D01*
X127533061Y-110890000D01*
X127736939Y-110890000D01*
X127936898Y-110850226D01*
X128125256Y-110772205D01*
X128294774Y-110658937D01*
X128338711Y-110615000D01*
X134551289Y-110615000D01*
X134595226Y-110658937D01*
X134764744Y-110772205D01*
X134953102Y-110850226D01*
X135153061Y-110890000D01*
X135356939Y-110890000D01*
X135556898Y-110850226D01*
X135745256Y-110772205D01*
X135914774Y-110658937D01*
X135958711Y-110615000D01*
X142171289Y-110615000D01*
X142215226Y-110658937D01*
X142384744Y-110772205D01*
X142573102Y-110850226D01*
X142773061Y-110890000D01*
X142976939Y-110890000D01*
X143176898Y-110850226D01*
X143365256Y-110772205D01*
X143534774Y-110658937D01*
X143578711Y-110615000D01*
X149791289Y-110615000D01*
X149835226Y-110658937D01*
X150004744Y-110772205D01*
X150193102Y-110850226D01*
X150393061Y-110890000D01*
X150596939Y-110890000D01*
X150796898Y-110850226D01*
X150985256Y-110772205D01*
X151154774Y-110658937D01*
X151298937Y-110514774D01*
X151412205Y-110345256D01*
X151490226Y-110156898D01*
X151530000Y-109956939D01*
X151530000Y-109753061D01*
X151490226Y-109553102D01*
X151412205Y-109364744D01*
X151298937Y-109195226D01*
X151154774Y-109051063D01*
X150985256Y-108937795D01*
X150796898Y-108859774D01*
X150596939Y-108820000D01*
X150393061Y-108820000D01*
X150193102Y-108859774D01*
X150004744Y-108937795D01*
X149835226Y-109051063D01*
X149791289Y-109095000D01*
X143578711Y-109095000D01*
X143534774Y-109051063D01*
X143365256Y-108937795D01*
X143176898Y-108859774D01*
X142976939Y-108820000D01*
X142773061Y-108820000D01*
X142573102Y-108859774D01*
X142384744Y-108937795D01*
X142215226Y-109051063D01*
X142171289Y-109095000D01*
X135958711Y-109095000D01*
X135914774Y-109051063D01*
X135745256Y-108937795D01*
X135556898Y-108859774D01*
X135356939Y-108820000D01*
X135153061Y-108820000D01*
X134953102Y-108859774D01*
X134764744Y-108937795D01*
X134595226Y-109051063D01*
X134551289Y-109095000D01*
X128338711Y-109095000D01*
X128294774Y-109051063D01*
X128125256Y-108937795D01*
X127936898Y-108859774D01*
X127736939Y-108820000D01*
X127533061Y-108820000D01*
X127333102Y-108859774D01*
X127144744Y-108937795D01*
X126975226Y-109051063D01*
X126931289Y-109095000D01*
X126490000Y-109095000D01*
X126490000Y-104265000D01*
X132646289Y-104265000D01*
X132690226Y-104308937D01*
X132859744Y-104422205D01*
X133048102Y-104500226D01*
X133248061Y-104540000D01*
X133451939Y-104540000D01*
X133651898Y-104500226D01*
X133840256Y-104422205D01*
X134009774Y-104308937D01*
X134053711Y-104265000D01*
X140266289Y-104265000D01*
X140310226Y-104308937D01*
X140479744Y-104422205D01*
X140668102Y-104500226D01*
X140868061Y-104540000D01*
X141071939Y-104540000D01*
X141271898Y-104500226D01*
X141460256Y-104422205D01*
X141629774Y-104308937D01*
X141673711Y-104265000D01*
X147886289Y-104265000D01*
X147930226Y-104308937D01*
X148099744Y-104422205D01*
X148288102Y-104500226D01*
X148488061Y-104540000D01*
X148691939Y-104540000D01*
X148891898Y-104500226D01*
X149080256Y-104422205D01*
X149249774Y-104308937D01*
X149393937Y-104164774D01*
X149507205Y-103995256D01*
X149585226Y-103806898D01*
X149625000Y-103606939D01*
X149625000Y-103403061D01*
X149585226Y-103203102D01*
X149507205Y-103014744D01*
X149427195Y-102895000D01*
X151097591Y-102895000D01*
X151130000Y-102898192D01*
X151162409Y-102895000D01*
X151162419Y-102895000D01*
X151259383Y-102885450D01*
X151383793Y-102847710D01*
X151498450Y-102786425D01*
X151598948Y-102703948D01*
X151619616Y-102678764D01*
X152038381Y-102260000D01*
X152367721Y-102260000D01*
X152517869Y-102274722D01*
G37*
X152517869Y-102274722D02*
X152631246Y-102308953D01*
X152735819Y-102364555D01*
X152827596Y-102439407D01*
X152903091Y-102530664D01*
X152959419Y-102634844D01*
X152994440Y-102747976D01*
X153010001Y-102896031D01*
X153010000Y-119347721D01*
X152995278Y-119497869D01*
X152961047Y-119611246D01*
X152905446Y-119715817D01*
X152830594Y-119807595D01*
X152739335Y-119883091D01*
X152635160Y-119939419D01*
X152522024Y-119974440D01*
X152373979Y-119990000D01*
X149941696Y-119990000D01*
X150031481Y-119736891D01*
X149910814Y-119507000D01*
X148717000Y-119507000D01*
X148717000Y-119527000D01*
X148463000Y-119527000D01*
X148463000Y-119507000D01*
X148443000Y-119507000D01*
X148443000Y-119253000D01*
X148463000Y-119253000D01*
X148463000Y-118059845D01*
X148717000Y-118059845D01*
X148717000Y-119253000D01*
X149910814Y-119253000D01*
X150031481Y-119023109D01*
X149934157Y-118748748D01*
X149785178Y-118498645D01*
X149590269Y-118282412D01*
X149356920Y-118108359D01*
X149094099Y-117983175D01*
X148946890Y-117938524D01*
X148717000Y-118059845D01*
X148463000Y-118059845D01*
X148233110Y-117938524D01*
X148085901Y-117983175D01*
X147823080Y-118108359D01*
X147589731Y-118282412D01*
X147394822Y-118498645D01*
X147325195Y-118615534D01*
X147203475Y-118433368D01*
X146996632Y-118226525D01*
X146810000Y-118101822D01*
X146810000Y-113979801D01*
X146999802Y-113790000D01*
X150426289Y-113790000D01*
X150470226Y-113833937D01*
X150639744Y-113947205D01*
X150828102Y-114025226D01*
X151028061Y-114065000D01*
X151231939Y-114065000D01*
X151431898Y-114025226D01*
X151620256Y-113947205D01*
X151789774Y-113833937D01*
X151933937Y-113689774D01*
X152047205Y-113520256D01*
X152125226Y-113331898D01*
X152165000Y-113131939D01*
X152165000Y-112928061D01*
X152125226Y-112728102D01*
X152047205Y-112539744D01*
X151933937Y-112370226D01*
X151789774Y-112226063D01*
X151620256Y-112112795D01*
X151431898Y-112034774D01*
X151231939Y-111995000D01*
X151028061Y-111995000D01*
X150828102Y-112034774D01*
X150639744Y-112112795D01*
X150470226Y-112226063D01*
X150426289Y-112270000D01*
X146722333Y-112270000D01*
X146685000Y-112266323D01*
X146647667Y-112270000D01*
X146536014Y-112280997D01*
X146392753Y-112324454D01*
X146260724Y-112395026D01*
X146144999Y-112489999D01*
X146121200Y-112518998D01*
X145539002Y-113101197D01*
X145509999Y-113124999D01*
X145454871Y-113192174D01*
X145415026Y-113240724D01*
X145371451Y-113322246D01*
X145344454Y-113372754D01*
X145300997Y-113516015D01*
X145290000Y-113627668D01*
X145290000Y-113627678D01*
X145286324Y-113665000D01*
X145290000Y-113702323D01*
X145290001Y-118101821D01*
X145103368Y-118226525D01*
X144896525Y-118433368D01*
X144780000Y-118607760D01*
X144663475Y-118433368D01*
X144456632Y-118226525D01*
X144270000Y-118101822D01*
X144270000Y-113733711D01*
X144313937Y-113689774D01*
X144427205Y-113520256D01*
X144505226Y-113331898D01*
X144545000Y-113131939D01*
X144545000Y-112928061D01*
X144505226Y-112728102D01*
X144427205Y-112539744D01*
X144313937Y-112370226D01*
X144169774Y-112226063D01*
X144000256Y-112112795D01*
X143811898Y-112034774D01*
X143611939Y-111995000D01*
X143408061Y-111995000D01*
X143208102Y-112034774D01*
X143019744Y-112112795D01*
X142850226Y-112226063D01*
X142706063Y-112370226D01*
X142592795Y-112539744D01*
X142514774Y-112728102D01*
X142475000Y-112928061D01*
X142475000Y-113131939D01*
X142514774Y-113331898D01*
X142592795Y-113520256D01*
X142706063Y-113689774D01*
X142750000Y-113733711D01*
X142750001Y-117437658D01*
X142750000Y-117437668D01*
X142750000Y-118101821D01*
X142563368Y-118226525D01*
X142356525Y-118433368D01*
X142240000Y-118607760D01*
X142123475Y-118433368D01*
X141916632Y-118226525D01*
X141730000Y-118101822D01*
X141730000Y-113702323D01*
X141733676Y-113665000D01*
X141730000Y-113627677D01*
X141730000Y-113627667D01*
X141719003Y-113516014D01*
X141675546Y-113372753D01*
X141604974Y-113240724D01*
X141510001Y-113124999D01*
X141481003Y-113101201D01*
X140808803Y-112429002D01*
X140785001Y-112399999D01*
X140669276Y-112305026D01*
X140537247Y-112234454D01*
X140393986Y-112190997D01*
X140282333Y-112180000D01*
X140282322Y-112180000D01*
X140245000Y-112176324D01*
X140207678Y-112180000D01*
X136593711Y-112180000D01*
X136549774Y-112136063D01*
X136380256Y-112022795D01*
X136191898Y-111944774D01*
X135991939Y-111905000D01*
X135788061Y-111905000D01*
X135588102Y-111944774D01*
X135399744Y-112022795D01*
X135230226Y-112136063D01*
X135086063Y-112280226D01*
X134972795Y-112449744D01*
X134894774Y-112638102D01*
X134855000Y-112838061D01*
X134855000Y-112905000D01*
X129220423Y-112905000D01*
X129185236Y-112728102D01*
X129107215Y-112539744D01*
X128993947Y-112370226D01*
X128849784Y-112226063D01*
X128680266Y-112112795D01*
X128491908Y-112034774D01*
X128291949Y-111995000D01*
X128088071Y-111995000D01*
X127888112Y-112034774D01*
X127699754Y-112112795D01*
X127530236Y-112226063D01*
X127386073Y-112370226D01*
X127272805Y-112539744D01*
X127194784Y-112728102D01*
X127155010Y-112928061D01*
X127155010Y-113131939D01*
X127194784Y-113331898D01*
X127272805Y-113520256D01*
X127386073Y-113689774D01*
X127530236Y-113833937D01*
X127699754Y-113947205D01*
X127888112Y-114025226D01*
X128088071Y-114065000D01*
X128150208Y-114065000D01*
X128261210Y-114176002D01*
X128285009Y-114205001D01*
X128400734Y-114299974D01*
X128532763Y-114370546D01*
X128676024Y-114414003D01*
X128825010Y-114428677D01*
X128862343Y-114425000D01*
X137480199Y-114425000D01*
X137670000Y-114614802D01*
X137670001Y-118101821D01*
X137483368Y-118226525D01*
X137276525Y-118433368D01*
X137160000Y-118607760D01*
X137043475Y-118433368D01*
X136836632Y-118226525D01*
X136593411Y-118064010D01*
X136323158Y-117952068D01*
X136036260Y-117895000D01*
X135743740Y-117895000D01*
X135456842Y-117952068D01*
X135186589Y-118064010D01*
X134943368Y-118226525D01*
X134736525Y-118433368D01*
X134620000Y-118607760D01*
X134503475Y-118433368D01*
X134296632Y-118226525D01*
X134053411Y-118064010D01*
X133783158Y-117952068D01*
X133496260Y-117895000D01*
X133203740Y-117895000D01*
X132916842Y-117952068D01*
X132646589Y-118064010D01*
X132403368Y-118226525D01*
X132196525Y-118433368D01*
X132080000Y-118607760D01*
X131963475Y-118433368D01*
X131756632Y-118226525D01*
X131513411Y-118064010D01*
X131243158Y-117952068D01*
X130956260Y-117895000D01*
X130663740Y-117895000D01*
X130376842Y-117952068D01*
X130106589Y-118064010D01*
X129863368Y-118226525D01*
X129656525Y-118433368D01*
X129540000Y-118607760D01*
X129423475Y-118433368D01*
X129216632Y-118226525D01*
X128973411Y-118064010D01*
X128703158Y-117952068D01*
X128416260Y-117895000D01*
X128123740Y-117895000D01*
X127836842Y-117952068D01*
X127566589Y-118064010D01*
X127323368Y-118226525D01*
X127191513Y-118358380D01*
X127169502Y-118285820D01*
X127110537Y-118175506D01*
X127031185Y-118078815D01*
X126934494Y-117999463D01*
X126824180Y-117940498D01*
X126704482Y-117904188D01*
X126580000Y-117891928D01*
X126490000Y-117891928D01*
X126490000Y-110615000D01*
X126931289Y-110615000D01*
X126975226Y-110658937D01*
X127144744Y-110772205D01*
X127333102Y-110850226D01*
X127533061Y-110890000D01*
X127736939Y-110890000D01*
X127936898Y-110850226D01*
X128125256Y-110772205D01*
X128294774Y-110658937D01*
X128338711Y-110615000D01*
X134551289Y-110615000D01*
X134595226Y-110658937D01*
X134764744Y-110772205D01*
X134953102Y-110850226D01*
X135153061Y-110890000D01*
X135356939Y-110890000D01*
X135556898Y-110850226D01*
X135745256Y-110772205D01*
X135914774Y-110658937D01*
X135958711Y-110615000D01*
X142171289Y-110615000D01*
X142215226Y-110658937D01*
X142384744Y-110772205D01*
X142573102Y-110850226D01*
X142773061Y-110890000D01*
X142976939Y-110890000D01*
X143176898Y-110850226D01*
X143365256Y-110772205D01*
X143534774Y-110658937D01*
X143578711Y-110615000D01*
X149791289Y-110615000D01*
X149835226Y-110658937D01*
X150004744Y-110772205D01*
X150193102Y-110850226D01*
X150393061Y-110890000D01*
X150596939Y-110890000D01*
X150796898Y-110850226D01*
X150985256Y-110772205D01*
X151154774Y-110658937D01*
X151298937Y-110514774D01*
X151412205Y-110345256D01*
X151490226Y-110156898D01*
X151530000Y-109956939D01*
X151530000Y-109753061D01*
X151490226Y-109553102D01*
X151412205Y-109364744D01*
X151298937Y-109195226D01*
X151154774Y-109051063D01*
X150985256Y-108937795D01*
X150796898Y-108859774D01*
X150596939Y-108820000D01*
X150393061Y-108820000D01*
X150193102Y-108859774D01*
X150004744Y-108937795D01*
X149835226Y-109051063D01*
X149791289Y-109095000D01*
X143578711Y-109095000D01*
X143534774Y-109051063D01*
X143365256Y-108937795D01*
X143176898Y-108859774D01*
X142976939Y-108820000D01*
X142773061Y-108820000D01*
X142573102Y-108859774D01*
X142384744Y-108937795D01*
X142215226Y-109051063D01*
X142171289Y-109095000D01*
X135958711Y-109095000D01*
X135914774Y-109051063D01*
X135745256Y-108937795D01*
X135556898Y-108859774D01*
X135356939Y-108820000D01*
X135153061Y-108820000D01*
X134953102Y-108859774D01*
X134764744Y-108937795D01*
X134595226Y-109051063D01*
X134551289Y-109095000D01*
X128338711Y-109095000D01*
X128294774Y-109051063D01*
X128125256Y-108937795D01*
X127936898Y-108859774D01*
X127736939Y-108820000D01*
X127533061Y-108820000D01*
X127333102Y-108859774D01*
X127144744Y-108937795D01*
X126975226Y-109051063D01*
X126931289Y-109095000D01*
X126490000Y-109095000D01*
X126490000Y-104265000D01*
X132646289Y-104265000D01*
X132690226Y-104308937D01*
X132859744Y-104422205D01*
X133048102Y-104500226D01*
X133248061Y-104540000D01*
X133451939Y-104540000D01*
X133651898Y-104500226D01*
X133840256Y-104422205D01*
X134009774Y-104308937D01*
X134053711Y-104265000D01*
X140266289Y-104265000D01*
X140310226Y-104308937D01*
X140479744Y-104422205D01*
X140668102Y-104500226D01*
X140868061Y-104540000D01*
X141071939Y-104540000D01*
X141271898Y-104500226D01*
X141460256Y-104422205D01*
X141629774Y-104308937D01*
X141673711Y-104265000D01*
X147886289Y-104265000D01*
X147930226Y-104308937D01*
X148099744Y-104422205D01*
X148288102Y-104500226D01*
X148488061Y-104540000D01*
X148691939Y-104540000D01*
X148891898Y-104500226D01*
X149080256Y-104422205D01*
X149249774Y-104308937D01*
X149393937Y-104164774D01*
X149507205Y-103995256D01*
X149585226Y-103806898D01*
X149625000Y-103606939D01*
X149625000Y-103403061D01*
X149585226Y-103203102D01*
X149507205Y-103014744D01*
X149427195Y-102895000D01*
X151097591Y-102895000D01*
X151130000Y-102898192D01*
X151162409Y-102895000D01*
X151162419Y-102895000D01*
X151259383Y-102885450D01*
X151383793Y-102847710D01*
X151498450Y-102786425D01*
X151598948Y-102703948D01*
X151619616Y-102678764D01*
X152038381Y-102260000D01*
X152367721Y-102260000D01*
X152517869Y-102274722D01*
%TD*%
M02*
