%TF.GenerationSoftware,KiCad,Pcbnew,5.1.6-c6e7f7d~87~ubuntu18.04.1*%
%TF.CreationDate,2020-10-02T11:35:24-04:00*%
%TF.ProjectId,breadboard-io,62726561-6462-46f6-9172-642d696f2e6b,rev?*%
%TF.SameCoordinates,Original*%
%TF.FileFunction,Legend,Bot*%
%TF.FilePolarity,Positive*%
%FSLAX46Y46*%
G04 Gerber Fmt 4.6, Leading zero omitted, Abs format (unit mm)*
G04 Created by KiCad (PCBNEW 5.1.6-c6e7f7d~87~ubuntu18.04.1) date 2020-10-02 11:35:24*
%MOMM*%
%LPD*%
G01*
G04 APERTURE LIST*
%ADD10C,0.150000*%
%ADD11C,0.120000*%
%ADD12C,0.100000*%
%ADD13C,0.400000*%
%ADD14C,0.250000*%
G04 APERTURE END LIST*
D10*
X138642142Y-108289285D02*
X138642142Y-107789285D01*
X138642142Y-107932142D02*
X138606428Y-107860714D01*
X138570714Y-107825000D01*
X138499285Y-107789285D01*
X138427857Y-107789285D01*
X137892142Y-108253571D02*
X137963571Y-108289285D01*
X138106428Y-108289285D01*
X138177857Y-108253571D01*
X138213571Y-108182142D01*
X138213571Y-107896428D01*
X138177857Y-107825000D01*
X138106428Y-107789285D01*
X137963571Y-107789285D01*
X137892142Y-107825000D01*
X137856428Y-107896428D01*
X137856428Y-107967857D01*
X138213571Y-108039285D01*
X137606428Y-107789285D02*
X137427857Y-108289285D01*
X137249285Y-107789285D01*
X136963571Y-108003571D02*
X136392142Y-108003571D01*
X135642142Y-108289285D02*
X136070714Y-108289285D01*
X135856428Y-108289285D02*
X135856428Y-107539285D01*
X135927857Y-107646428D01*
X135999285Y-107717857D01*
X136070714Y-107753571D01*
D11*
X147320000Y-113030000D02*
X147320000Y-113665000D01*
X127000000Y-113030000D02*
X127000000Y-113665000D01*
X140335000Y-113030000D02*
X147320000Y-113030000D01*
X133985000Y-113030000D02*
X127000000Y-113030000D01*
D12*
X139670431Y-113324047D02*
X139627872Y-112983571D01*
X139651086Y-112921666D01*
X139709122Y-112890714D01*
X139832931Y-112890714D01*
X139898705Y-112921666D01*
X139666562Y-113293095D02*
X139732336Y-113324047D01*
X139887098Y-113324047D01*
X139945133Y-113293095D01*
X139968348Y-113231190D01*
X139960610Y-113169285D01*
X139921919Y-113107380D01*
X139856145Y-113076428D01*
X139701383Y-113076428D01*
X139635610Y-113045476D01*
X139078467Y-113293095D02*
X139144241Y-113324047D01*
X139268050Y-113324047D01*
X139326086Y-113293095D01*
X139353169Y-113262142D01*
X139376383Y-113200238D01*
X139353169Y-113014523D01*
X139314479Y-112952619D01*
X139279657Y-112921666D01*
X139213883Y-112890714D01*
X139090074Y-112890714D01*
X139032038Y-112921666D01*
X138842455Y-112890714D02*
X138594836Y-112890714D01*
X138722514Y-112674047D02*
X138792157Y-113231190D01*
X138768943Y-113293095D01*
X138710907Y-113324047D01*
X138649002Y-113324047D01*
X138432336Y-113324047D02*
X138378169Y-112890714D01*
X138351086Y-112674047D02*
X138385907Y-112705000D01*
X138358824Y-112735952D01*
X138324002Y-112705000D01*
X138351086Y-112674047D01*
X138358824Y-112735952D01*
X138130550Y-112890714D02*
X138029955Y-113324047D01*
X137821026Y-112890714D01*
X137376086Y-113293095D02*
X137441860Y-113324047D01*
X137565669Y-113324047D01*
X137623705Y-113293095D01*
X137646919Y-113231190D01*
X137615967Y-112983571D01*
X137577276Y-112921666D01*
X137511502Y-112890714D01*
X137387693Y-112890714D01*
X137329657Y-112921666D01*
X137306443Y-112983571D01*
X137314181Y-113045476D01*
X137631443Y-113107380D01*
X137039479Y-113076428D02*
X136544241Y-113076428D01*
X136265669Y-113324047D02*
X136184419Y-112674047D01*
X135987098Y-113324047D02*
X135944538Y-112983571D01*
X135967752Y-112921666D01*
X136025788Y-112890714D01*
X136118645Y-112890714D01*
X136184419Y-112921666D01*
X136219241Y-112952619D01*
X135677574Y-113324047D02*
X135623407Y-112890714D01*
X135596324Y-112674047D02*
X135631145Y-112705000D01*
X135604062Y-112735952D01*
X135569241Y-112705000D01*
X135596324Y-112674047D01*
X135604062Y-112735952D01*
X135035312Y-112890714D02*
X135101086Y-113416904D01*
X135139776Y-113478809D01*
X135174598Y-113509761D01*
X135240372Y-113540714D01*
X135333229Y-113540714D01*
X135391264Y-113509761D01*
X135085610Y-113293095D02*
X135151383Y-113324047D01*
X135275193Y-113324047D01*
X135333229Y-113293095D01*
X135360312Y-113262142D01*
X135383526Y-113200238D01*
X135360312Y-113014523D01*
X135321622Y-112952619D01*
X135286800Y-112921666D01*
X135221026Y-112890714D01*
X135097217Y-112890714D01*
X135039181Y-112921666D01*
X134779955Y-113324047D02*
X134698705Y-112674047D01*
X134501383Y-113324047D02*
X134458824Y-112983571D01*
X134482038Y-112921666D01*
X134540074Y-112890714D01*
X134632931Y-112890714D01*
X134698705Y-112921666D01*
X134733526Y-112952619D01*
D13*
X147939523Y-106949761D02*
X147689523Y-104949761D01*
X147784761Y-105711666D02*
X147582380Y-105616428D01*
X147201428Y-105616428D01*
X147022857Y-105711666D01*
X146939523Y-105806904D01*
X146868095Y-105997380D01*
X146939523Y-106568809D01*
X147058571Y-106759285D01*
X147165714Y-106854523D01*
X147368095Y-106949761D01*
X147749047Y-106949761D01*
X147927619Y-106854523D01*
X146130000Y-106949761D02*
X145963333Y-105616428D01*
X146010952Y-105997380D02*
X145891904Y-105806904D01*
X145784761Y-105711666D01*
X145582380Y-105616428D01*
X145391904Y-105616428D01*
X144118095Y-106854523D02*
X144320476Y-106949761D01*
X144701428Y-106949761D01*
X144880000Y-106854523D01*
X144951428Y-106664047D01*
X144856190Y-105902142D01*
X144737142Y-105711666D01*
X144534761Y-105616428D01*
X144153809Y-105616428D01*
X143975238Y-105711666D01*
X143903809Y-105902142D01*
X143927619Y-106092619D01*
X144903809Y-106283095D01*
X142320476Y-106949761D02*
X142189523Y-105902142D01*
X142260952Y-105711666D01*
X142439523Y-105616428D01*
X142820476Y-105616428D01*
X143022857Y-105711666D01*
X142308571Y-106854523D02*
X142510952Y-106949761D01*
X142987142Y-106949761D01*
X143165714Y-106854523D01*
X143237142Y-106664047D01*
X143213333Y-106473571D01*
X143094285Y-106283095D01*
X142891904Y-106187857D01*
X142415714Y-106187857D01*
X142213333Y-106092619D01*
X140510952Y-106949761D02*
X140260952Y-104949761D01*
X140499047Y-106854523D02*
X140701428Y-106949761D01*
X141082380Y-106949761D01*
X141260952Y-106854523D01*
X141344285Y-106759285D01*
X141415714Y-106568809D01*
X141344285Y-105997380D01*
X141225238Y-105806904D01*
X141118095Y-105711666D01*
X140915714Y-105616428D01*
X140534761Y-105616428D01*
X140356190Y-105711666D01*
X139558571Y-106949761D02*
X139308571Y-104949761D01*
X139403809Y-105711666D02*
X139201428Y-105616428D01*
X138820476Y-105616428D01*
X138641904Y-105711666D01*
X138558571Y-105806904D01*
X138487142Y-105997380D01*
X138558571Y-106568809D01*
X138677619Y-106759285D01*
X138784761Y-106854523D01*
X138987142Y-106949761D01*
X139368095Y-106949761D01*
X139546666Y-106854523D01*
X137463333Y-106949761D02*
X137641904Y-106854523D01*
X137725238Y-106759285D01*
X137796666Y-106568809D01*
X137725238Y-105997380D01*
X137606190Y-105806904D01*
X137499047Y-105711666D01*
X137296666Y-105616428D01*
X137010952Y-105616428D01*
X136832380Y-105711666D01*
X136749047Y-105806904D01*
X136677619Y-105997380D01*
X136749047Y-106568809D01*
X136868095Y-106759285D01*
X136975238Y-106854523D01*
X137177619Y-106949761D01*
X137463333Y-106949761D01*
X135082380Y-106949761D02*
X134951428Y-105902142D01*
X135022857Y-105711666D01*
X135201428Y-105616428D01*
X135582380Y-105616428D01*
X135784761Y-105711666D01*
X135070476Y-106854523D02*
X135272857Y-106949761D01*
X135749047Y-106949761D01*
X135927619Y-106854523D01*
X135999047Y-106664047D01*
X135975238Y-106473571D01*
X135856190Y-106283095D01*
X135653809Y-106187857D01*
X135177619Y-106187857D01*
X134975238Y-106092619D01*
X134130000Y-106949761D02*
X133963333Y-105616428D01*
X134010952Y-105997380D02*
X133891904Y-105806904D01*
X133784761Y-105711666D01*
X133582380Y-105616428D01*
X133391904Y-105616428D01*
X132034761Y-106949761D02*
X131784761Y-104949761D01*
X132022857Y-106854523D02*
X132225238Y-106949761D01*
X132606190Y-106949761D01*
X132784761Y-106854523D01*
X132868095Y-106759285D01*
X132939523Y-106568809D01*
X132868095Y-105997380D01*
X132749047Y-105806904D01*
X132641904Y-105711666D01*
X132439523Y-105616428D01*
X132058571Y-105616428D01*
X131880000Y-105711666D01*
X130987142Y-106187857D02*
X129463333Y-106187857D01*
X128606190Y-106949761D02*
X128439523Y-105616428D01*
X128356190Y-104949761D02*
X128463333Y-105045000D01*
X128380000Y-105140238D01*
X128272857Y-105045000D01*
X128356190Y-104949761D01*
X128380000Y-105140238D01*
X127368095Y-106949761D02*
X127546666Y-106854523D01*
X127630000Y-106759285D01*
X127701428Y-106568809D01*
X127630000Y-105997380D01*
X127510952Y-105806904D01*
X127403809Y-105711666D01*
X127201428Y-105616428D01*
X126915714Y-105616428D01*
X126737142Y-105711666D01*
X126653809Y-105806904D01*
X126582380Y-105997380D01*
X126653809Y-106568809D01*
X126772857Y-106759285D01*
X126880000Y-106854523D01*
X127082380Y-106949761D01*
X127368095Y-106949761D01*
D10*
X145035000Y-109691785D02*
X145035000Y-110298928D01*
X145070714Y-110370357D01*
X145106428Y-110406071D01*
X145177857Y-110441785D01*
X145285000Y-110441785D01*
X145356428Y-110406071D01*
X145035000Y-110156071D02*
X145106428Y-110191785D01*
X145249285Y-110191785D01*
X145320714Y-110156071D01*
X145356428Y-110120357D01*
X145392142Y-110048928D01*
X145392142Y-109834642D01*
X145356428Y-109763214D01*
X145320714Y-109727500D01*
X145249285Y-109691785D01*
X145106428Y-109691785D01*
X145035000Y-109727500D01*
X144677857Y-110191785D02*
X144677857Y-109691785D01*
X144677857Y-109441785D02*
X144713571Y-109477500D01*
X144677857Y-109513214D01*
X144642142Y-109477500D01*
X144677857Y-109441785D01*
X144677857Y-109513214D01*
X144427857Y-109691785D02*
X144142142Y-109691785D01*
X144320714Y-109441785D02*
X144320714Y-110084642D01*
X144285000Y-110156071D01*
X144213571Y-110191785D01*
X144142142Y-110191785D01*
X143892142Y-110191785D02*
X143892142Y-109441785D01*
X143570714Y-110191785D02*
X143570714Y-109798928D01*
X143606428Y-109727500D01*
X143677857Y-109691785D01*
X143785000Y-109691785D01*
X143856428Y-109727500D01*
X143892142Y-109763214D01*
X142892142Y-109691785D02*
X142892142Y-110191785D01*
X143213571Y-109691785D02*
X143213571Y-110084642D01*
X143177857Y-110156071D01*
X143106428Y-110191785D01*
X142999285Y-110191785D01*
X142927857Y-110156071D01*
X142892142Y-110120357D01*
X142535000Y-110191785D02*
X142535000Y-109441785D01*
X142535000Y-109727500D02*
X142463571Y-109691785D01*
X142320714Y-109691785D01*
X142249285Y-109727500D01*
X142213571Y-109763214D01*
X142177857Y-109834642D01*
X142177857Y-110048928D01*
X142213571Y-110120357D01*
X142249285Y-110156071D01*
X142320714Y-110191785D01*
X142463571Y-110191785D01*
X142535000Y-110156071D01*
X141856428Y-110120357D02*
X141820714Y-110156071D01*
X141856428Y-110191785D01*
X141892142Y-110156071D01*
X141856428Y-110120357D01*
X141856428Y-110191785D01*
X141177857Y-110156071D02*
X141249285Y-110191785D01*
X141392142Y-110191785D01*
X141463571Y-110156071D01*
X141499285Y-110120357D01*
X141535000Y-110048928D01*
X141535000Y-109834642D01*
X141499285Y-109763214D01*
X141463571Y-109727500D01*
X141392142Y-109691785D01*
X141249285Y-109691785D01*
X141177857Y-109727500D01*
X140749285Y-110191785D02*
X140820714Y-110156071D01*
X140856428Y-110120357D01*
X140892142Y-110048928D01*
X140892142Y-109834642D01*
X140856428Y-109763214D01*
X140820714Y-109727500D01*
X140749285Y-109691785D01*
X140642142Y-109691785D01*
X140570714Y-109727500D01*
X140535000Y-109763214D01*
X140499285Y-109834642D01*
X140499285Y-110048928D01*
X140535000Y-110120357D01*
X140570714Y-110156071D01*
X140642142Y-110191785D01*
X140749285Y-110191785D01*
X140177857Y-110191785D02*
X140177857Y-109691785D01*
X140177857Y-109763214D02*
X140142142Y-109727500D01*
X140070714Y-109691785D01*
X139963571Y-109691785D01*
X139892142Y-109727500D01*
X139856428Y-109798928D01*
X139856428Y-110191785D01*
X139856428Y-109798928D02*
X139820714Y-109727500D01*
X139749285Y-109691785D01*
X139642142Y-109691785D01*
X139570714Y-109727500D01*
X139535000Y-109798928D01*
X139535000Y-110191785D01*
X138642142Y-109406071D02*
X139285000Y-110370357D01*
X138427857Y-110156071D02*
X138356428Y-110191785D01*
X138213571Y-110191785D01*
X138142142Y-110156071D01*
X138106428Y-110084642D01*
X138106428Y-110048928D01*
X138142142Y-109977500D01*
X138213571Y-109941785D01*
X138320714Y-109941785D01*
X138392142Y-109906071D01*
X138427857Y-109834642D01*
X138427857Y-109798928D01*
X138392142Y-109727500D01*
X138320714Y-109691785D01*
X138213571Y-109691785D01*
X138142142Y-109727500D01*
X137892142Y-109691785D02*
X137606428Y-109691785D01*
X137785000Y-109441785D02*
X137785000Y-110084642D01*
X137749285Y-110156071D01*
X137677857Y-110191785D01*
X137606428Y-110191785D01*
X137070714Y-110156071D02*
X137142142Y-110191785D01*
X137285000Y-110191785D01*
X137356428Y-110156071D01*
X137392142Y-110084642D01*
X137392142Y-109798928D01*
X137356428Y-109727500D01*
X137285000Y-109691785D01*
X137142142Y-109691785D01*
X137070714Y-109727500D01*
X137035000Y-109798928D01*
X137035000Y-109870357D01*
X137392142Y-109941785D01*
X136713571Y-109691785D02*
X136713571Y-110441785D01*
X136713571Y-109727500D02*
X136642142Y-109691785D01*
X136499285Y-109691785D01*
X136427857Y-109727500D01*
X136392142Y-109763214D01*
X136356428Y-109834642D01*
X136356428Y-110048928D01*
X136392142Y-110120357D01*
X136427857Y-110156071D01*
X136499285Y-110191785D01*
X136642142Y-110191785D01*
X136713571Y-110156071D01*
X136035000Y-110191785D02*
X136035000Y-109441785D01*
X135713571Y-110191785D02*
X135713571Y-109798928D01*
X135749285Y-109727500D01*
X135820714Y-109691785D01*
X135927857Y-109691785D01*
X135999285Y-109727500D01*
X136035000Y-109763214D01*
X135070714Y-110156071D02*
X135142142Y-110191785D01*
X135285000Y-110191785D01*
X135356428Y-110156071D01*
X135392142Y-110084642D01*
X135392142Y-109798928D01*
X135356428Y-109727500D01*
X135285000Y-109691785D01*
X135142142Y-109691785D01*
X135070714Y-109727500D01*
X135035000Y-109798928D01*
X135035000Y-109870357D01*
X135392142Y-109941785D01*
X134713571Y-109691785D02*
X134713571Y-110191785D01*
X134713571Y-109763214D02*
X134677857Y-109727500D01*
X134606428Y-109691785D01*
X134499285Y-109691785D01*
X134427857Y-109727500D01*
X134392142Y-109798928D01*
X134392142Y-110191785D01*
X133713571Y-110191785D02*
X133713571Y-109441785D01*
X133713571Y-110156071D02*
X133785000Y-110191785D01*
X133927857Y-110191785D01*
X133999285Y-110156071D01*
X134035000Y-110120357D01*
X134070714Y-110048928D01*
X134070714Y-109834642D01*
X134035000Y-109763214D01*
X133999285Y-109727500D01*
X133927857Y-109691785D01*
X133785000Y-109691785D01*
X133713571Y-109727500D01*
X133356428Y-109691785D02*
X133356428Y-110441785D01*
X133356428Y-109727500D02*
X133285000Y-109691785D01*
X133142142Y-109691785D01*
X133070714Y-109727500D01*
X133035000Y-109763214D01*
X132999285Y-109834642D01*
X132999285Y-110048928D01*
X133035000Y-110120357D01*
X133070714Y-110156071D01*
X133142142Y-110191785D01*
X133285000Y-110191785D01*
X133356428Y-110156071D01*
X132677857Y-110191785D02*
X132677857Y-109691785D01*
X132677857Y-109763214D02*
X132642142Y-109727500D01*
X132570714Y-109691785D01*
X132463571Y-109691785D01*
X132392142Y-109727500D01*
X132356428Y-109798928D01*
X132356428Y-110191785D01*
X132356428Y-109798928D02*
X132320714Y-109727500D01*
X132249285Y-109691785D01*
X132142142Y-109691785D01*
X132070714Y-109727500D01*
X132035000Y-109798928D01*
X132035000Y-110191785D01*
X131356428Y-109691785D02*
X131356428Y-110191785D01*
X131677857Y-109691785D02*
X131677857Y-110084642D01*
X131642142Y-110156071D01*
X131570714Y-110191785D01*
X131463571Y-110191785D01*
X131392142Y-110156071D01*
X131356428Y-110120357D01*
X130999285Y-110191785D02*
X130999285Y-109691785D01*
X130999285Y-109834642D02*
X130963571Y-109763214D01*
X130927857Y-109727500D01*
X130856428Y-109691785D01*
X130785000Y-109691785D01*
X130535000Y-109691785D02*
X130535000Y-110441785D01*
X130535000Y-109727500D02*
X130463571Y-109691785D01*
X130320714Y-109691785D01*
X130249285Y-109727500D01*
X130213571Y-109763214D01*
X130177857Y-109834642D01*
X130177857Y-110048928D01*
X130213571Y-110120357D01*
X130249285Y-110156071D01*
X130320714Y-110191785D01*
X130463571Y-110191785D01*
X130535000Y-110156071D01*
X129856428Y-110191785D02*
X129856428Y-109441785D01*
X129535000Y-110191785D02*
X129535000Y-109798928D01*
X129570714Y-109727500D01*
X129642142Y-109691785D01*
X129749285Y-109691785D01*
X129820714Y-109727500D01*
X129856428Y-109763214D01*
X129249285Y-109691785D02*
X129070714Y-110191785D01*
X128892142Y-109691785D02*
X129070714Y-110191785D01*
X129142142Y-110370357D01*
X129177857Y-110406071D01*
X129249285Y-110441785D01*
X139606428Y-111395357D02*
X139642142Y-111431071D01*
X139749285Y-111466785D01*
X139820714Y-111466785D01*
X139927857Y-111431071D01*
X139999285Y-111359642D01*
X140035000Y-111288214D01*
X140070714Y-111145357D01*
X140070714Y-111038214D01*
X140035000Y-110895357D01*
X139999285Y-110823928D01*
X139927857Y-110752500D01*
X139820714Y-110716785D01*
X139749285Y-110716785D01*
X139642142Y-110752500D01*
X139606428Y-110788214D01*
X138856428Y-111395357D02*
X138892142Y-111431071D01*
X138999285Y-111466785D01*
X139070714Y-111466785D01*
X139177857Y-111431071D01*
X139249285Y-111359642D01*
X139285000Y-111288214D01*
X139320714Y-111145357D01*
X139320714Y-111038214D01*
X139285000Y-110895357D01*
X139249285Y-110823928D01*
X139177857Y-110752500D01*
X139070714Y-110716785D01*
X138999285Y-110716785D01*
X138892142Y-110752500D01*
X138856428Y-110788214D01*
X138535000Y-111181071D02*
X137963571Y-111181071D01*
X137356428Y-111073928D02*
X137249285Y-111109642D01*
X137213571Y-111145357D01*
X137177857Y-111216785D01*
X137177857Y-111323928D01*
X137213571Y-111395357D01*
X137249285Y-111431071D01*
X137320714Y-111466785D01*
X137606428Y-111466785D01*
X137606428Y-110716785D01*
X137356428Y-110716785D01*
X137285000Y-110752500D01*
X137249285Y-110788214D01*
X137213571Y-110859642D01*
X137213571Y-110931071D01*
X137249285Y-111002500D01*
X137285000Y-111038214D01*
X137356428Y-111073928D01*
X137606428Y-111073928D01*
X136713571Y-111109642D02*
X136713571Y-111466785D01*
X136963571Y-110716785D02*
X136713571Y-111109642D01*
X136463571Y-110716785D01*
X136213571Y-111181071D02*
X135642142Y-111181071D01*
X135320714Y-111431071D02*
X135213571Y-111466785D01*
X135035000Y-111466785D01*
X134963571Y-111431071D01*
X134927857Y-111395357D01*
X134892142Y-111323928D01*
X134892142Y-111252500D01*
X134927857Y-111181071D01*
X134963571Y-111145357D01*
X135035000Y-111109642D01*
X135177857Y-111073928D01*
X135249285Y-111038214D01*
X135285000Y-111002500D01*
X135320714Y-110931071D01*
X135320714Y-110859642D01*
X135285000Y-110788214D01*
X135249285Y-110752500D01*
X135177857Y-110716785D01*
X134999285Y-110716785D01*
X134892142Y-110752500D01*
X134606428Y-111252500D02*
X134249285Y-111252500D01*
X134677857Y-111466785D02*
X134427857Y-110716785D01*
X134177857Y-111466785D01*
D14*
X125100238Y-114671666D02*
X126250238Y-115055000D01*
X125100238Y-115438333D01*
X126140714Y-116478809D02*
X126195476Y-116424047D01*
X126250238Y-116259761D01*
X126250238Y-116150238D01*
X126195476Y-115985952D01*
X126085952Y-115876428D01*
X125976428Y-115821666D01*
X125757380Y-115766904D01*
X125593095Y-115766904D01*
X125374047Y-115821666D01*
X125264523Y-115876428D01*
X125155000Y-115985952D01*
X125100238Y-116150238D01*
X125100238Y-116259761D01*
X125155000Y-116424047D01*
X125209761Y-116478809D01*
X126140714Y-117628809D02*
X126195476Y-117574047D01*
X126250238Y-117409761D01*
X126250238Y-117300238D01*
X126195476Y-117135952D01*
X126085952Y-117026428D01*
X125976428Y-116971666D01*
X125757380Y-116916904D01*
X125593095Y-116916904D01*
X125374047Y-116971666D01*
X125264523Y-117026428D01*
X125155000Y-117135952D01*
X125100238Y-117300238D01*
X125100238Y-117409761D01*
X125155000Y-117574047D01*
X125209761Y-117628809D01*
X148015000Y-115328809D02*
X147960238Y-115219285D01*
X147960238Y-115055000D01*
X148015000Y-114890714D01*
X148124523Y-114781190D01*
X148234047Y-114726428D01*
X148453095Y-114671666D01*
X148617380Y-114671666D01*
X148836428Y-114726428D01*
X148945952Y-114781190D01*
X149055476Y-114890714D01*
X149110238Y-115055000D01*
X149110238Y-115164523D01*
X149055476Y-115328809D01*
X149000714Y-115383571D01*
X148617380Y-115383571D01*
X148617380Y-115164523D01*
X149110238Y-115876428D02*
X147960238Y-115876428D01*
X149110238Y-116533571D01*
X147960238Y-116533571D01*
X149110238Y-117081190D02*
X147960238Y-117081190D01*
X147960238Y-117355000D01*
X148015000Y-117519285D01*
X148124523Y-117628809D01*
X148234047Y-117683571D01*
X148453095Y-117738333D01*
X148617380Y-117738333D01*
X148836428Y-117683571D01*
X148945952Y-117628809D01*
X149055476Y-117519285D01*
X149110238Y-117355000D01*
X149110238Y-117081190D01*
X128735476Y-114671666D02*
X128790238Y-114835952D01*
X128790238Y-115109761D01*
X128735476Y-115219285D01*
X128680714Y-115274047D01*
X128571190Y-115328809D01*
X128461666Y-115328809D01*
X128352142Y-115274047D01*
X128297380Y-115219285D01*
X128242619Y-115109761D01*
X128187857Y-114890714D01*
X128133095Y-114781190D01*
X128078333Y-114726428D01*
X127968809Y-114671666D01*
X127859285Y-114671666D01*
X127749761Y-114726428D01*
X127695000Y-114781190D01*
X127640238Y-114890714D01*
X127640238Y-115164523D01*
X127695000Y-115328809D01*
X127640238Y-115712142D02*
X128790238Y-115985952D01*
X127968809Y-116205000D01*
X128790238Y-116424047D01*
X127640238Y-116697857D01*
X128790238Y-117738333D02*
X128790238Y-117081190D01*
X128790238Y-117409761D02*
X127640238Y-117409761D01*
X127804523Y-117300238D01*
X127914047Y-117190714D01*
X127968809Y-117081190D01*
X131275476Y-114671666D02*
X131330238Y-114835952D01*
X131330238Y-115109761D01*
X131275476Y-115219285D01*
X131220714Y-115274047D01*
X131111190Y-115328809D01*
X131001666Y-115328809D01*
X130892142Y-115274047D01*
X130837380Y-115219285D01*
X130782619Y-115109761D01*
X130727857Y-114890714D01*
X130673095Y-114781190D01*
X130618333Y-114726428D01*
X130508809Y-114671666D01*
X130399285Y-114671666D01*
X130289761Y-114726428D01*
X130235000Y-114781190D01*
X130180238Y-114890714D01*
X130180238Y-115164523D01*
X130235000Y-115328809D01*
X130180238Y-115712142D02*
X131330238Y-115985952D01*
X130508809Y-116205000D01*
X131330238Y-116424047D01*
X130180238Y-116697857D01*
X130289761Y-117081190D02*
X130235000Y-117135952D01*
X130180238Y-117245476D01*
X130180238Y-117519285D01*
X130235000Y-117628809D01*
X130289761Y-117683571D01*
X130399285Y-117738333D01*
X130508809Y-117738333D01*
X130673095Y-117683571D01*
X131330238Y-117026428D01*
X131330238Y-117738333D01*
X133815476Y-114671666D02*
X133870238Y-114835952D01*
X133870238Y-115109761D01*
X133815476Y-115219285D01*
X133760714Y-115274047D01*
X133651190Y-115328809D01*
X133541666Y-115328809D01*
X133432142Y-115274047D01*
X133377380Y-115219285D01*
X133322619Y-115109761D01*
X133267857Y-114890714D01*
X133213095Y-114781190D01*
X133158333Y-114726428D01*
X133048809Y-114671666D01*
X132939285Y-114671666D01*
X132829761Y-114726428D01*
X132775000Y-114781190D01*
X132720238Y-114890714D01*
X132720238Y-115164523D01*
X132775000Y-115328809D01*
X132720238Y-115712142D02*
X133870238Y-115985952D01*
X133048809Y-116205000D01*
X133870238Y-116424047D01*
X132720238Y-116697857D01*
X132720238Y-117026428D02*
X132720238Y-117738333D01*
X133158333Y-117355000D01*
X133158333Y-117519285D01*
X133213095Y-117628809D01*
X133267857Y-117683571D01*
X133377380Y-117738333D01*
X133651190Y-117738333D01*
X133760714Y-117683571D01*
X133815476Y-117628809D01*
X133870238Y-117519285D01*
X133870238Y-117190714D01*
X133815476Y-117081190D01*
X133760714Y-117026428D01*
X136355476Y-114671666D02*
X136410238Y-114835952D01*
X136410238Y-115109761D01*
X136355476Y-115219285D01*
X136300714Y-115274047D01*
X136191190Y-115328809D01*
X136081666Y-115328809D01*
X135972142Y-115274047D01*
X135917380Y-115219285D01*
X135862619Y-115109761D01*
X135807857Y-114890714D01*
X135753095Y-114781190D01*
X135698333Y-114726428D01*
X135588809Y-114671666D01*
X135479285Y-114671666D01*
X135369761Y-114726428D01*
X135315000Y-114781190D01*
X135260238Y-114890714D01*
X135260238Y-115164523D01*
X135315000Y-115328809D01*
X135260238Y-115712142D02*
X136410238Y-115985952D01*
X135588809Y-116205000D01*
X136410238Y-116424047D01*
X135260238Y-116697857D01*
X135643571Y-117628809D02*
X136410238Y-117628809D01*
X135205476Y-117355000D02*
X136026904Y-117081190D01*
X136026904Y-117793095D01*
X146570238Y-114918095D02*
X146570238Y-114370476D01*
X145420238Y-114370476D01*
X145967857Y-115301428D02*
X145967857Y-115684761D01*
X146570238Y-115849047D02*
X146570238Y-115301428D01*
X145420238Y-115301428D01*
X145420238Y-115849047D01*
X146570238Y-116341904D02*
X145420238Y-116341904D01*
X145420238Y-116615714D01*
X145475000Y-116780000D01*
X145584523Y-116889523D01*
X145694047Y-116944285D01*
X145913095Y-116999047D01*
X146077380Y-116999047D01*
X146296428Y-116944285D01*
X146405952Y-116889523D01*
X146515476Y-116780000D01*
X146570238Y-116615714D01*
X146570238Y-116341904D01*
X145803571Y-117984761D02*
X146570238Y-117984761D01*
X145365476Y-117710952D02*
X146186904Y-117437142D01*
X146186904Y-118149047D01*
X144030238Y-114918095D02*
X144030238Y-114370476D01*
X142880238Y-114370476D01*
X143427857Y-115301428D02*
X143427857Y-115684761D01*
X144030238Y-115849047D02*
X144030238Y-115301428D01*
X142880238Y-115301428D01*
X142880238Y-115849047D01*
X144030238Y-116341904D02*
X142880238Y-116341904D01*
X142880238Y-116615714D01*
X142935000Y-116780000D01*
X143044523Y-116889523D01*
X143154047Y-116944285D01*
X143373095Y-116999047D01*
X143537380Y-116999047D01*
X143756428Y-116944285D01*
X143865952Y-116889523D01*
X143975476Y-116780000D01*
X144030238Y-116615714D01*
X144030238Y-116341904D01*
X143263571Y-117984761D02*
X144030238Y-117984761D01*
X142825476Y-117710952D02*
X143646904Y-117437142D01*
X143646904Y-118149047D01*
X141490238Y-114918095D02*
X141490238Y-114370476D01*
X140340238Y-114370476D01*
X140887857Y-115301428D02*
X140887857Y-115684761D01*
X141490238Y-115849047D02*
X141490238Y-115301428D01*
X140340238Y-115301428D01*
X140340238Y-115849047D01*
X141490238Y-116341904D02*
X140340238Y-116341904D01*
X140340238Y-116615714D01*
X140395000Y-116780000D01*
X140504523Y-116889523D01*
X140614047Y-116944285D01*
X140833095Y-116999047D01*
X140997380Y-116999047D01*
X141216428Y-116944285D01*
X141325952Y-116889523D01*
X141435476Y-116780000D01*
X141490238Y-116615714D01*
X141490238Y-116341904D01*
X140449761Y-117437142D02*
X140395000Y-117491904D01*
X140340238Y-117601428D01*
X140340238Y-117875238D01*
X140395000Y-117984761D01*
X140449761Y-118039523D01*
X140559285Y-118094285D01*
X140668809Y-118094285D01*
X140833095Y-118039523D01*
X141490238Y-117382380D01*
X141490238Y-118094285D01*
X138950238Y-114918095D02*
X138950238Y-114370476D01*
X137800238Y-114370476D01*
X138347857Y-115301428D02*
X138347857Y-115684761D01*
X138950238Y-115849047D02*
X138950238Y-115301428D01*
X137800238Y-115301428D01*
X137800238Y-115849047D01*
X138950238Y-116341904D02*
X137800238Y-116341904D01*
X137800238Y-116615714D01*
X137855000Y-116780000D01*
X137964523Y-116889523D01*
X138074047Y-116944285D01*
X138293095Y-116999047D01*
X138457380Y-116999047D01*
X138676428Y-116944285D01*
X138785952Y-116889523D01*
X138895476Y-116780000D01*
X138950238Y-116615714D01*
X138950238Y-116341904D01*
X138950238Y-118094285D02*
X138950238Y-117437142D01*
X138950238Y-117765714D02*
X137800238Y-117765714D01*
X137964523Y-117656190D01*
X138074047Y-117546666D01*
X138128809Y-117437142D01*
D11*
%TO.C,J1*%
X124460000Y-118110000D02*
X124460000Y-119380000D01*
X125730000Y-118110000D02*
X124460000Y-118110000D01*
X148970000Y-120422929D02*
X148970000Y-120820000D01*
X148210000Y-120422929D02*
X148210000Y-120820000D01*
X148970000Y-129480000D02*
X148970000Y-123480000D01*
X148210000Y-129480000D02*
X148970000Y-129480000D01*
X148210000Y-123480000D02*
X148210000Y-129480000D01*
X147320000Y-120820000D02*
X147320000Y-123480000D01*
X146430000Y-120422929D02*
X146430000Y-120820000D01*
X145670000Y-120422929D02*
X145670000Y-120820000D01*
X146430000Y-129480000D02*
X146430000Y-123480000D01*
X145670000Y-129480000D02*
X146430000Y-129480000D01*
X145670000Y-123480000D02*
X145670000Y-129480000D01*
X144780000Y-120820000D02*
X144780000Y-123480000D01*
X143890000Y-120422929D02*
X143890000Y-120820000D01*
X143130000Y-120422929D02*
X143130000Y-120820000D01*
X143890000Y-129480000D02*
X143890000Y-123480000D01*
X143130000Y-129480000D02*
X143890000Y-129480000D01*
X143130000Y-123480000D02*
X143130000Y-129480000D01*
X142240000Y-120820000D02*
X142240000Y-123480000D01*
X141350000Y-120422929D02*
X141350000Y-120820000D01*
X140590000Y-120422929D02*
X140590000Y-120820000D01*
X141350000Y-129480000D02*
X141350000Y-123480000D01*
X140590000Y-129480000D02*
X141350000Y-129480000D01*
X140590000Y-123480000D02*
X140590000Y-129480000D01*
X139700000Y-120820000D02*
X139700000Y-123480000D01*
X138810000Y-120422929D02*
X138810000Y-120820000D01*
X138050000Y-120422929D02*
X138050000Y-120820000D01*
X138810000Y-129480000D02*
X138810000Y-123480000D01*
X138050000Y-129480000D02*
X138810000Y-129480000D01*
X138050000Y-123480000D02*
X138050000Y-129480000D01*
X137160000Y-120820000D02*
X137160000Y-123480000D01*
X136270000Y-120422929D02*
X136270000Y-120820000D01*
X135510000Y-120422929D02*
X135510000Y-120820000D01*
X136270000Y-129480000D02*
X136270000Y-123480000D01*
X135510000Y-129480000D02*
X136270000Y-129480000D01*
X135510000Y-123480000D02*
X135510000Y-129480000D01*
X134620000Y-120820000D02*
X134620000Y-123480000D01*
X133730000Y-120422929D02*
X133730000Y-120820000D01*
X132970000Y-120422929D02*
X132970000Y-120820000D01*
X133730000Y-129480000D02*
X133730000Y-123480000D01*
X132970000Y-129480000D02*
X133730000Y-129480000D01*
X132970000Y-123480000D02*
X132970000Y-129480000D01*
X132080000Y-120820000D02*
X132080000Y-123480000D01*
X131190000Y-120422929D02*
X131190000Y-120820000D01*
X130430000Y-120422929D02*
X130430000Y-120820000D01*
X131190000Y-129480000D02*
X131190000Y-123480000D01*
X130430000Y-129480000D02*
X131190000Y-129480000D01*
X130430000Y-123480000D02*
X130430000Y-129480000D01*
X129540000Y-120820000D02*
X129540000Y-123480000D01*
X128650000Y-120422929D02*
X128650000Y-120820000D01*
X127890000Y-120422929D02*
X127890000Y-120820000D01*
X128650000Y-129480000D02*
X128650000Y-123480000D01*
X127890000Y-129480000D02*
X128650000Y-129480000D01*
X127890000Y-123480000D02*
X127890000Y-129480000D01*
X127000000Y-120820000D02*
X127000000Y-123480000D01*
X126110000Y-120490000D02*
X126110000Y-120820000D01*
X125350000Y-120490000D02*
X125350000Y-120820000D01*
X126010000Y-123480000D02*
X126010000Y-129480000D01*
X125890000Y-123480000D02*
X125890000Y-129480000D01*
X125770000Y-123480000D02*
X125770000Y-129480000D01*
X125650000Y-123480000D02*
X125650000Y-129480000D01*
X125530000Y-123480000D02*
X125530000Y-129480000D01*
X125410000Y-123480000D02*
X125410000Y-129480000D01*
X126110000Y-129480000D02*
X126110000Y-123480000D01*
X125350000Y-129480000D02*
X126110000Y-129480000D01*
X125350000Y-123480000D02*
X125350000Y-129480000D01*
X124400000Y-123480000D02*
X124400000Y-120820000D01*
X149920000Y-123480000D02*
X124400000Y-123480000D01*
X149920000Y-120820000D02*
X149920000Y-123480000D01*
X124400000Y-120820000D02*
X149920000Y-120820000D01*
%TD*%
M02*
