%TF.GenerationSoftware,KiCad,Pcbnew,5.1.6-c6e7f7d~87~ubuntu18.04.1*%
%TF.CreationDate,2020-10-02T11:35:24-04:00*%
%TF.ProjectId,breadboard-io,62726561-6462-46f6-9172-642d696f2e6b,rev?*%
%TF.SameCoordinates,Original*%
%TF.FileFunction,Profile,NP*%
%FSLAX46Y46*%
G04 Gerber Fmt 4.6, Leading zero omitted, Abs format (unit mm)*
G04 Created by KiCad (PCBNEW 5.1.6-c6e7f7d~87~ubuntu18.04.1) date 2020-10-02 11:35:24*
%MOMM*%
%LPD*%
G01*
G04 APERTURE LIST*
%TA.AperFunction,Profile*%
%ADD10C,0.050000*%
%TD*%
G04 APERTURE END LIST*
D10*
X120650000Y-118110000D02*
X120650000Y-117475000D01*
X120650000Y-117475000D02*
X120650000Y-102870000D01*
X153670000Y-119380000D02*
X153670000Y-102870000D01*
X121920000Y-101600000D02*
X122555000Y-101600000D01*
X151765000Y-101600000D02*
X152400000Y-101600000D01*
X121920000Y-120650000D02*
X152400000Y-120650000D01*
X120650000Y-119380000D02*
X120650000Y-118745000D01*
X120650000Y-118745000D02*
X120650000Y-118110000D01*
X120650000Y-102870000D02*
G75*
G02*
X121920000Y-101600000I1270000J0D01*
G01*
X121920000Y-120650000D02*
G75*
G02*
X120650000Y-119380000I0J1270000D01*
G01*
X153670000Y-119380000D02*
G75*
G02*
X152400000Y-120650000I-1270000J0D01*
G01*
X152400000Y-101600000D02*
G75*
G02*
X153670000Y-102870000I0J-1270000D01*
G01*
X151130000Y-102235000D02*
X151765000Y-101600000D01*
X146050000Y-102235000D02*
X151130000Y-102235000D01*
X145415000Y-101600000D02*
X146050000Y-102235000D01*
X144145000Y-101600000D02*
X145415000Y-101600000D01*
X143510000Y-102235000D02*
X144145000Y-101600000D01*
X138430000Y-102235000D02*
X143510000Y-102235000D01*
X137795000Y-101600000D02*
X138430000Y-102235000D01*
X136525000Y-101600000D02*
X137795000Y-101600000D01*
X135890000Y-102235000D02*
X136525000Y-101600000D01*
X130810000Y-102235000D02*
X135890000Y-102235000D01*
X130175000Y-101600000D02*
X130810000Y-102235000D01*
X128905000Y-101600000D02*
X130175000Y-101600000D01*
X128270000Y-102235000D02*
X128905000Y-101600000D01*
X123190000Y-102235000D02*
X128270000Y-102235000D01*
X122555000Y-101600000D02*
X123190000Y-102235000D01*
M02*
