%TF.GenerationSoftware,KiCad,Pcbnew,5.1.6-c6e7f7d~87~ubuntu18.04.1*%
%TF.CreationDate,2020-10-02T11:35:24-04:00*%
%TF.ProjectId,breadboard-io,62726561-6462-46f6-9172-642d696f2e6b,rev?*%
%TF.SameCoordinates,Original*%
%TF.FileFunction,Soldermask,Top*%
%TF.FilePolarity,Negative*%
%FSLAX46Y46*%
G04 Gerber Fmt 4.6, Leading zero omitted, Abs format (unit mm)*
G04 Created by KiCad (PCBNEW 5.1.6-c6e7f7d~87~ubuntu18.04.1) date 2020-10-02 11:35:24*
%MOMM*%
%LPD*%
G01*
G04 APERTURE LIST*
%ADD10R,1.650000X1.100000*%
%ADD11R,0.900000X1.000000*%
%ADD12O,1.800000X1.800000*%
%ADD13R,1.800000X1.800000*%
G04 APERTURE END LIST*
D10*
%TO.C,SW4*%
X151215000Y-103290000D03*
X145965000Y-103290000D03*
X145965000Y-104990000D03*
X151215000Y-104990000D03*
%TD*%
%TO.C,SW3*%
X143595000Y-103290000D03*
X138345000Y-103290000D03*
X138345000Y-104990000D03*
X143595000Y-104990000D03*
%TD*%
%TO.C,SW2*%
X135975000Y-103290000D03*
X130725000Y-103290000D03*
X130725000Y-104990000D03*
X135975000Y-104990000D03*
%TD*%
%TO.C,SW1*%
X128355000Y-103290000D03*
X123105000Y-103290000D03*
X123105000Y-104990000D03*
X128355000Y-104990000D03*
%TD*%
%TO.C,R12*%
G36*
G01*
X146247500Y-116700000D02*
X145852500Y-116700000D01*
G75*
G02*
X145680000Y-116527500I0J172500D01*
G01*
X145680000Y-116182500D01*
G75*
G02*
X145852500Y-116010000I172500J0D01*
G01*
X146247500Y-116010000D01*
G75*
G02*
X146420000Y-116182500I0J-172500D01*
G01*
X146420000Y-116527500D01*
G75*
G02*
X146247500Y-116700000I-172500J0D01*
G01*
G37*
G36*
G01*
X146247500Y-117670000D02*
X145852500Y-117670000D01*
G75*
G02*
X145680000Y-117497500I0J172500D01*
G01*
X145680000Y-117152500D01*
G75*
G02*
X145852500Y-116980000I172500J0D01*
G01*
X146247500Y-116980000D01*
G75*
G02*
X146420000Y-117152500I0J-172500D01*
G01*
X146420000Y-117497500D01*
G75*
G02*
X146247500Y-117670000I-172500J0D01*
G01*
G37*
%TD*%
%TO.C,R11*%
G36*
G01*
X143707500Y-116700000D02*
X143312500Y-116700000D01*
G75*
G02*
X143140000Y-116527500I0J172500D01*
G01*
X143140000Y-116182500D01*
G75*
G02*
X143312500Y-116010000I172500J0D01*
G01*
X143707500Y-116010000D01*
G75*
G02*
X143880000Y-116182500I0J-172500D01*
G01*
X143880000Y-116527500D01*
G75*
G02*
X143707500Y-116700000I-172500J0D01*
G01*
G37*
G36*
G01*
X143707500Y-117670000D02*
X143312500Y-117670000D01*
G75*
G02*
X143140000Y-117497500I0J172500D01*
G01*
X143140000Y-117152500D01*
G75*
G02*
X143312500Y-116980000I172500J0D01*
G01*
X143707500Y-116980000D01*
G75*
G02*
X143880000Y-117152500I0J-172500D01*
G01*
X143880000Y-117497500D01*
G75*
G02*
X143707500Y-117670000I-172500J0D01*
G01*
G37*
%TD*%
%TO.C,R10*%
G36*
G01*
X141167500Y-116700000D02*
X140772500Y-116700000D01*
G75*
G02*
X140600000Y-116527500I0J172500D01*
G01*
X140600000Y-116182500D01*
G75*
G02*
X140772500Y-116010000I172500J0D01*
G01*
X141167500Y-116010000D01*
G75*
G02*
X141340000Y-116182500I0J-172500D01*
G01*
X141340000Y-116527500D01*
G75*
G02*
X141167500Y-116700000I-172500J0D01*
G01*
G37*
G36*
G01*
X141167500Y-117670000D02*
X140772500Y-117670000D01*
G75*
G02*
X140600000Y-117497500I0J172500D01*
G01*
X140600000Y-117152500D01*
G75*
G02*
X140772500Y-116980000I172500J0D01*
G01*
X141167500Y-116980000D01*
G75*
G02*
X141340000Y-117152500I0J-172500D01*
G01*
X141340000Y-117497500D01*
G75*
G02*
X141167500Y-117670000I-172500J0D01*
G01*
G37*
%TD*%
%TO.C,R9*%
G36*
G01*
X138627500Y-116700000D02*
X138232500Y-116700000D01*
G75*
G02*
X138060000Y-116527500I0J172500D01*
G01*
X138060000Y-116182500D01*
G75*
G02*
X138232500Y-116010000I172500J0D01*
G01*
X138627500Y-116010000D01*
G75*
G02*
X138800000Y-116182500I0J-172500D01*
G01*
X138800000Y-116527500D01*
G75*
G02*
X138627500Y-116700000I-172500J0D01*
G01*
G37*
G36*
G01*
X138627500Y-117670000D02*
X138232500Y-117670000D01*
G75*
G02*
X138060000Y-117497500I0J172500D01*
G01*
X138060000Y-117152500D01*
G75*
G02*
X138232500Y-116980000I172500J0D01*
G01*
X138627500Y-116980000D01*
G75*
G02*
X138800000Y-117152500I0J-172500D01*
G01*
X138800000Y-117497500D01*
G75*
G02*
X138627500Y-117670000I-172500J0D01*
G01*
G37*
%TD*%
%TO.C,R8*%
G36*
G01*
X148450000Y-109657500D02*
X148450000Y-110052500D01*
G75*
G02*
X148277500Y-110225000I-172500J0D01*
G01*
X147932500Y-110225000D01*
G75*
G02*
X147760000Y-110052500I0J172500D01*
G01*
X147760000Y-109657500D01*
G75*
G02*
X147932500Y-109485000I172500J0D01*
G01*
X148277500Y-109485000D01*
G75*
G02*
X148450000Y-109657500I0J-172500D01*
G01*
G37*
G36*
G01*
X149420000Y-109657500D02*
X149420000Y-110052500D01*
G75*
G02*
X149247500Y-110225000I-172500J0D01*
G01*
X148902500Y-110225000D01*
G75*
G02*
X148730000Y-110052500I0J172500D01*
G01*
X148730000Y-109657500D01*
G75*
G02*
X148902500Y-109485000I172500J0D01*
G01*
X149247500Y-109485000D01*
G75*
G02*
X149420000Y-109657500I0J-172500D01*
G01*
G37*
%TD*%
%TO.C,R7*%
G36*
G01*
X140830000Y-109657500D02*
X140830000Y-110052500D01*
G75*
G02*
X140657500Y-110225000I-172500J0D01*
G01*
X140312500Y-110225000D01*
G75*
G02*
X140140000Y-110052500I0J172500D01*
G01*
X140140000Y-109657500D01*
G75*
G02*
X140312500Y-109485000I172500J0D01*
G01*
X140657500Y-109485000D01*
G75*
G02*
X140830000Y-109657500I0J-172500D01*
G01*
G37*
G36*
G01*
X141800000Y-109657500D02*
X141800000Y-110052500D01*
G75*
G02*
X141627500Y-110225000I-172500J0D01*
G01*
X141282500Y-110225000D01*
G75*
G02*
X141110000Y-110052500I0J172500D01*
G01*
X141110000Y-109657500D01*
G75*
G02*
X141282500Y-109485000I172500J0D01*
G01*
X141627500Y-109485000D01*
G75*
G02*
X141800000Y-109657500I0J-172500D01*
G01*
G37*
%TD*%
%TO.C,R6*%
G36*
G01*
X133210000Y-109657500D02*
X133210000Y-110052500D01*
G75*
G02*
X133037500Y-110225000I-172500J0D01*
G01*
X132692500Y-110225000D01*
G75*
G02*
X132520000Y-110052500I0J172500D01*
G01*
X132520000Y-109657500D01*
G75*
G02*
X132692500Y-109485000I172500J0D01*
G01*
X133037500Y-109485000D01*
G75*
G02*
X133210000Y-109657500I0J-172500D01*
G01*
G37*
G36*
G01*
X134180000Y-109657500D02*
X134180000Y-110052500D01*
G75*
G02*
X134007500Y-110225000I-172500J0D01*
G01*
X133662500Y-110225000D01*
G75*
G02*
X133490000Y-110052500I0J172500D01*
G01*
X133490000Y-109657500D01*
G75*
G02*
X133662500Y-109485000I172500J0D01*
G01*
X134007500Y-109485000D01*
G75*
G02*
X134180000Y-109657500I0J-172500D01*
G01*
G37*
%TD*%
%TO.C,R5*%
G36*
G01*
X125590000Y-109657500D02*
X125590000Y-110052500D01*
G75*
G02*
X125417500Y-110225000I-172500J0D01*
G01*
X125072500Y-110225000D01*
G75*
G02*
X124900000Y-110052500I0J172500D01*
G01*
X124900000Y-109657500D01*
G75*
G02*
X125072500Y-109485000I172500J0D01*
G01*
X125417500Y-109485000D01*
G75*
G02*
X125590000Y-109657500I0J-172500D01*
G01*
G37*
G36*
G01*
X126560000Y-109657500D02*
X126560000Y-110052500D01*
G75*
G02*
X126387500Y-110225000I-172500J0D01*
G01*
X126042500Y-110225000D01*
G75*
G02*
X125870000Y-110052500I0J172500D01*
G01*
X125870000Y-109657500D01*
G75*
G02*
X126042500Y-109485000I172500J0D01*
G01*
X126387500Y-109485000D01*
G75*
G02*
X126560000Y-109657500I0J-172500D01*
G01*
G37*
%TD*%
%TO.C,R4*%
G36*
G01*
X136087500Y-116700000D02*
X135692500Y-116700000D01*
G75*
G02*
X135520000Y-116527500I0J172500D01*
G01*
X135520000Y-116182500D01*
G75*
G02*
X135692500Y-116010000I172500J0D01*
G01*
X136087500Y-116010000D01*
G75*
G02*
X136260000Y-116182500I0J-172500D01*
G01*
X136260000Y-116527500D01*
G75*
G02*
X136087500Y-116700000I-172500J0D01*
G01*
G37*
G36*
G01*
X136087500Y-117670000D02*
X135692500Y-117670000D01*
G75*
G02*
X135520000Y-117497500I0J172500D01*
G01*
X135520000Y-117152500D01*
G75*
G02*
X135692500Y-116980000I172500J0D01*
G01*
X136087500Y-116980000D01*
G75*
G02*
X136260000Y-117152500I0J-172500D01*
G01*
X136260000Y-117497500D01*
G75*
G02*
X136087500Y-117670000I-172500J0D01*
G01*
G37*
%TD*%
%TO.C,R3*%
G36*
G01*
X133547500Y-116700000D02*
X133152500Y-116700000D01*
G75*
G02*
X132980000Y-116527500I0J172500D01*
G01*
X132980000Y-116182500D01*
G75*
G02*
X133152500Y-116010000I172500J0D01*
G01*
X133547500Y-116010000D01*
G75*
G02*
X133720000Y-116182500I0J-172500D01*
G01*
X133720000Y-116527500D01*
G75*
G02*
X133547500Y-116700000I-172500J0D01*
G01*
G37*
G36*
G01*
X133547500Y-117670000D02*
X133152500Y-117670000D01*
G75*
G02*
X132980000Y-117497500I0J172500D01*
G01*
X132980000Y-117152500D01*
G75*
G02*
X133152500Y-116980000I172500J0D01*
G01*
X133547500Y-116980000D01*
G75*
G02*
X133720000Y-117152500I0J-172500D01*
G01*
X133720000Y-117497500D01*
G75*
G02*
X133547500Y-117670000I-172500J0D01*
G01*
G37*
%TD*%
%TO.C,R2*%
G36*
G01*
X131007500Y-116700000D02*
X130612500Y-116700000D01*
G75*
G02*
X130440000Y-116527500I0J172500D01*
G01*
X130440000Y-116182500D01*
G75*
G02*
X130612500Y-116010000I172500J0D01*
G01*
X131007500Y-116010000D01*
G75*
G02*
X131180000Y-116182500I0J-172500D01*
G01*
X131180000Y-116527500D01*
G75*
G02*
X131007500Y-116700000I-172500J0D01*
G01*
G37*
G36*
G01*
X131007500Y-117670000D02*
X130612500Y-117670000D01*
G75*
G02*
X130440000Y-117497500I0J172500D01*
G01*
X130440000Y-117152500D01*
G75*
G02*
X130612500Y-116980000I172500J0D01*
G01*
X131007500Y-116980000D01*
G75*
G02*
X131180000Y-117152500I0J-172500D01*
G01*
X131180000Y-117497500D01*
G75*
G02*
X131007500Y-117670000I-172500J0D01*
G01*
G37*
%TD*%
%TO.C,R1*%
G36*
G01*
X128467500Y-116700000D02*
X128072500Y-116700000D01*
G75*
G02*
X127900000Y-116527500I0J172500D01*
G01*
X127900000Y-116182500D01*
G75*
G02*
X128072500Y-116010000I172500J0D01*
G01*
X128467500Y-116010000D01*
G75*
G02*
X128640000Y-116182500I0J-172500D01*
G01*
X128640000Y-116527500D01*
G75*
G02*
X128467500Y-116700000I-172500J0D01*
G01*
G37*
G36*
G01*
X128467500Y-117670000D02*
X128072500Y-117670000D01*
G75*
G02*
X127900000Y-117497500I0J172500D01*
G01*
X127900000Y-117152500D01*
G75*
G02*
X128072500Y-116980000I172500J0D01*
G01*
X128467500Y-116980000D01*
G75*
G02*
X128640000Y-117152500I0J-172500D01*
G01*
X128640000Y-117497500D01*
G75*
G02*
X128467500Y-117670000I-172500J0D01*
G01*
G37*
%TD*%
D11*
%TO.C,Q4*%
X148590000Y-114665000D03*
X147640000Y-112665000D03*
X149540000Y-112665000D03*
%TD*%
%TO.C,Q3*%
X140970000Y-114665000D03*
X140020000Y-112665000D03*
X141920000Y-112665000D03*
%TD*%
%TO.C,Q2*%
X133350000Y-114665000D03*
X132400000Y-112665000D03*
X134300000Y-112665000D03*
%TD*%
%TO.C,Q1*%
X125730000Y-114665000D03*
X124780000Y-112665000D03*
X126680000Y-112665000D03*
%TD*%
D12*
%TO.C,J1*%
X148590000Y-119380000D03*
X146050000Y-119380000D03*
X143510000Y-119380000D03*
X140970000Y-119380000D03*
X138430000Y-119380000D03*
X135890000Y-119380000D03*
X133350000Y-119380000D03*
X130810000Y-119380000D03*
X128270000Y-119380000D03*
D13*
X125730000Y-119380000D03*
%TD*%
%TO.C,D4*%
G36*
G01*
X148290000Y-110843750D02*
X148290000Y-111406250D01*
G75*
G02*
X148046250Y-111650000I-243750J0D01*
G01*
X147558750Y-111650000D01*
G75*
G02*
X147315000Y-111406250I0J243750D01*
G01*
X147315000Y-110843750D01*
G75*
G02*
X147558750Y-110600000I243750J0D01*
G01*
X148046250Y-110600000D01*
G75*
G02*
X148290000Y-110843750I0J-243750D01*
G01*
G37*
G36*
G01*
X149865000Y-110843750D02*
X149865000Y-111406250D01*
G75*
G02*
X149621250Y-111650000I-243750J0D01*
G01*
X149133750Y-111650000D01*
G75*
G02*
X148890000Y-111406250I0J243750D01*
G01*
X148890000Y-110843750D01*
G75*
G02*
X149133750Y-110600000I243750J0D01*
G01*
X149621250Y-110600000D01*
G75*
G02*
X149865000Y-110843750I0J-243750D01*
G01*
G37*
%TD*%
%TO.C,D3*%
G36*
G01*
X140670000Y-110843750D02*
X140670000Y-111406250D01*
G75*
G02*
X140426250Y-111650000I-243750J0D01*
G01*
X139938750Y-111650000D01*
G75*
G02*
X139695000Y-111406250I0J243750D01*
G01*
X139695000Y-110843750D01*
G75*
G02*
X139938750Y-110600000I243750J0D01*
G01*
X140426250Y-110600000D01*
G75*
G02*
X140670000Y-110843750I0J-243750D01*
G01*
G37*
G36*
G01*
X142245000Y-110843750D02*
X142245000Y-111406250D01*
G75*
G02*
X142001250Y-111650000I-243750J0D01*
G01*
X141513750Y-111650000D01*
G75*
G02*
X141270000Y-111406250I0J243750D01*
G01*
X141270000Y-110843750D01*
G75*
G02*
X141513750Y-110600000I243750J0D01*
G01*
X142001250Y-110600000D01*
G75*
G02*
X142245000Y-110843750I0J-243750D01*
G01*
G37*
%TD*%
%TO.C,D2*%
G36*
G01*
X133050000Y-110843750D02*
X133050000Y-111406250D01*
G75*
G02*
X132806250Y-111650000I-243750J0D01*
G01*
X132318750Y-111650000D01*
G75*
G02*
X132075000Y-111406250I0J243750D01*
G01*
X132075000Y-110843750D01*
G75*
G02*
X132318750Y-110600000I243750J0D01*
G01*
X132806250Y-110600000D01*
G75*
G02*
X133050000Y-110843750I0J-243750D01*
G01*
G37*
G36*
G01*
X134625000Y-110843750D02*
X134625000Y-111406250D01*
G75*
G02*
X134381250Y-111650000I-243750J0D01*
G01*
X133893750Y-111650000D01*
G75*
G02*
X133650000Y-111406250I0J243750D01*
G01*
X133650000Y-110843750D01*
G75*
G02*
X133893750Y-110600000I243750J0D01*
G01*
X134381250Y-110600000D01*
G75*
G02*
X134625000Y-110843750I0J-243750D01*
G01*
G37*
%TD*%
%TO.C,D1*%
G36*
G01*
X125430000Y-110843750D02*
X125430000Y-111406250D01*
G75*
G02*
X125186250Y-111650000I-243750J0D01*
G01*
X124698750Y-111650000D01*
G75*
G02*
X124455000Y-111406250I0J243750D01*
G01*
X124455000Y-110843750D01*
G75*
G02*
X124698750Y-110600000I243750J0D01*
G01*
X125186250Y-110600000D01*
G75*
G02*
X125430000Y-110843750I0J-243750D01*
G01*
G37*
G36*
G01*
X127005000Y-110843750D02*
X127005000Y-111406250D01*
G75*
G02*
X126761250Y-111650000I-243750J0D01*
G01*
X126273750Y-111650000D01*
G75*
G02*
X126030000Y-111406250I0J243750D01*
G01*
X126030000Y-110843750D01*
G75*
G02*
X126273750Y-110600000I243750J0D01*
G01*
X126761250Y-110600000D01*
G75*
G02*
X127005000Y-110843750I0J-243750D01*
G01*
G37*
%TD*%
M02*
