%TF.GenerationSoftware,KiCad,Pcbnew,5.1.6-c6e7f7d~87~ubuntu18.04.1*%
%TF.CreationDate,2020-10-02T11:35:24-04:00*%
%TF.ProjectId,breadboard-io,62726561-6462-46f6-9172-642d696f2e6b,rev?*%
%TF.SameCoordinates,Original*%
%TF.FileFunction,Legend,Top*%
%TF.FilePolarity,Positive*%
%FSLAX46Y46*%
G04 Gerber Fmt 4.6, Leading zero omitted, Abs format (unit mm)*
G04 Created by KiCad (PCBNEW 5.1.6-c6e7f7d~87~ubuntu18.04.1) date 2020-10-02 11:35:24*
%MOMM*%
%LPD*%
G01*
G04 APERTURE LIST*
%ADD10C,0.250000*%
%ADD11C,0.120000*%
G04 APERTURE END LIST*
D10*
X146570238Y-113681904D02*
X146570238Y-114229523D01*
X145420238Y-114229523D01*
X145967857Y-113298571D02*
X145967857Y-112915238D01*
X146570238Y-112750952D02*
X146570238Y-113298571D01*
X145420238Y-113298571D01*
X145420238Y-112750952D01*
X146570238Y-112258095D02*
X145420238Y-112258095D01*
X145420238Y-111984285D01*
X145475000Y-111820000D01*
X145584523Y-111710476D01*
X145694047Y-111655714D01*
X145913095Y-111600952D01*
X146077380Y-111600952D01*
X146296428Y-111655714D01*
X146405952Y-111710476D01*
X146515476Y-111820000D01*
X146570238Y-111984285D01*
X146570238Y-112258095D01*
X145803571Y-110615238D02*
X146570238Y-110615238D01*
X145365476Y-110889047D02*
X146186904Y-111162857D01*
X146186904Y-110450952D01*
X138950238Y-113681904D02*
X138950238Y-114229523D01*
X137800238Y-114229523D01*
X138347857Y-113298571D02*
X138347857Y-112915238D01*
X138950238Y-112750952D02*
X138950238Y-113298571D01*
X137800238Y-113298571D01*
X137800238Y-112750952D01*
X138950238Y-112258095D02*
X137800238Y-112258095D01*
X137800238Y-111984285D01*
X137855000Y-111820000D01*
X137964523Y-111710476D01*
X138074047Y-111655714D01*
X138293095Y-111600952D01*
X138457380Y-111600952D01*
X138676428Y-111655714D01*
X138785952Y-111710476D01*
X138895476Y-111820000D01*
X138950238Y-111984285D01*
X138950238Y-112258095D01*
X137800238Y-111217619D02*
X137800238Y-110505714D01*
X138238333Y-110889047D01*
X138238333Y-110724761D01*
X138293095Y-110615238D01*
X138347857Y-110560476D01*
X138457380Y-110505714D01*
X138731190Y-110505714D01*
X138840714Y-110560476D01*
X138895476Y-110615238D01*
X138950238Y-110724761D01*
X138950238Y-111053333D01*
X138895476Y-111162857D01*
X138840714Y-111217619D01*
X131330238Y-113681904D02*
X131330238Y-114229523D01*
X130180238Y-114229523D01*
X130727857Y-113298571D02*
X130727857Y-112915238D01*
X131330238Y-112750952D02*
X131330238Y-113298571D01*
X130180238Y-113298571D01*
X130180238Y-112750952D01*
X131330238Y-112258095D02*
X130180238Y-112258095D01*
X130180238Y-111984285D01*
X130235000Y-111820000D01*
X130344523Y-111710476D01*
X130454047Y-111655714D01*
X130673095Y-111600952D01*
X130837380Y-111600952D01*
X131056428Y-111655714D01*
X131165952Y-111710476D01*
X131275476Y-111820000D01*
X131330238Y-111984285D01*
X131330238Y-112258095D01*
X130289761Y-111162857D02*
X130235000Y-111108095D01*
X130180238Y-110998571D01*
X130180238Y-110724761D01*
X130235000Y-110615238D01*
X130289761Y-110560476D01*
X130399285Y-110505714D01*
X130508809Y-110505714D01*
X130673095Y-110560476D01*
X131330238Y-111217619D01*
X131330238Y-110505714D01*
X123710238Y-113681904D02*
X123710238Y-114229523D01*
X122560238Y-114229523D01*
X123107857Y-113298571D02*
X123107857Y-112915238D01*
X123710238Y-112750952D02*
X123710238Y-113298571D01*
X122560238Y-113298571D01*
X122560238Y-112750952D01*
X123710238Y-112258095D02*
X122560238Y-112258095D01*
X122560238Y-111984285D01*
X122615000Y-111820000D01*
X122724523Y-111710476D01*
X122834047Y-111655714D01*
X123053095Y-111600952D01*
X123217380Y-111600952D01*
X123436428Y-111655714D01*
X123545952Y-111710476D01*
X123655476Y-111820000D01*
X123710238Y-111984285D01*
X123710238Y-112258095D01*
X123710238Y-110505714D02*
X123710238Y-111162857D01*
X123710238Y-110834285D02*
X122560238Y-110834285D01*
X122724523Y-110943809D01*
X122834047Y-111053333D01*
X122888809Y-111162857D01*
D11*
%TO.C,SW4*%
X147165000Y-102290000D02*
X146240000Y-102290000D01*
X151040000Y-104415000D02*
X151040000Y-103865000D01*
X146140000Y-104415000D02*
X146140000Y-103865000D01*
X150940000Y-105990000D02*
X146240000Y-105990000D01*
X150940000Y-102290000D02*
X150015000Y-102290000D01*
%TO.C,SW3*%
X139545000Y-102290000D02*
X138620000Y-102290000D01*
X143420000Y-104415000D02*
X143420000Y-103865000D01*
X138520000Y-104415000D02*
X138520000Y-103865000D01*
X143320000Y-105990000D02*
X138620000Y-105990000D01*
X143320000Y-102290000D02*
X142395000Y-102290000D01*
%TO.C,SW2*%
X131925000Y-102290000D02*
X131000000Y-102290000D01*
X135800000Y-104415000D02*
X135800000Y-103865000D01*
X130900000Y-104415000D02*
X130900000Y-103865000D01*
X135700000Y-105990000D02*
X131000000Y-105990000D01*
X135700000Y-102290000D02*
X134775000Y-102290000D01*
%TO.C,SW1*%
X124305000Y-102290000D02*
X123380000Y-102290000D01*
X128180000Y-104415000D02*
X128180000Y-103865000D01*
X123280000Y-104415000D02*
X123280000Y-103865000D01*
X128080000Y-105990000D02*
X123380000Y-105990000D01*
X128080000Y-102290000D02*
X127155000Y-102290000D01*
%TO.C,Q4*%
X147010000Y-114425000D02*
X147010000Y-112965000D01*
X150170000Y-114425000D02*
X150170000Y-112265000D01*
X150170000Y-114425000D02*
X149240000Y-114425000D01*
X147010000Y-114425000D02*
X147940000Y-114425000D01*
%TO.C,Q3*%
X139390000Y-114425000D02*
X139390000Y-112965000D01*
X142550000Y-114425000D02*
X142550000Y-112265000D01*
X142550000Y-114425000D02*
X141620000Y-114425000D01*
X139390000Y-114425000D02*
X140320000Y-114425000D01*
%TO.C,Q2*%
X131770000Y-114425000D02*
X131770000Y-112965000D01*
X134930000Y-114425000D02*
X134930000Y-112265000D01*
X134930000Y-114425000D02*
X134000000Y-114425000D01*
X131770000Y-114425000D02*
X132700000Y-114425000D01*
%TO.C,Q1*%
X124150000Y-114425000D02*
X124150000Y-112965000D01*
X127310000Y-114425000D02*
X127310000Y-112265000D01*
X127310000Y-114425000D02*
X126380000Y-114425000D01*
X124150000Y-114425000D02*
X125080000Y-114425000D01*
%TO.C,D4*%
X150075000Y-110390000D02*
X147790000Y-110390000D01*
X150075000Y-111860000D02*
X150075000Y-110390000D01*
X147790000Y-111860000D02*
X150075000Y-111860000D01*
%TO.C,D3*%
X142455000Y-110390000D02*
X140170000Y-110390000D01*
X142455000Y-111860000D02*
X142455000Y-110390000D01*
X140170000Y-111860000D02*
X142455000Y-111860000D01*
%TO.C,D2*%
X134835000Y-110390000D02*
X132550000Y-110390000D01*
X134835000Y-111860000D02*
X134835000Y-110390000D01*
X132550000Y-111860000D02*
X134835000Y-111860000D01*
%TO.C,D1*%
X127215000Y-110390000D02*
X124930000Y-110390000D01*
X127215000Y-111860000D02*
X127215000Y-110390000D01*
X124930000Y-111860000D02*
X127215000Y-111860000D01*
%TO.C,SW4*%
D10*
X147056666Y-107780476D02*
X147220952Y-107835238D01*
X147494761Y-107835238D01*
X147604285Y-107780476D01*
X147659047Y-107725714D01*
X147713809Y-107616190D01*
X147713809Y-107506666D01*
X147659047Y-107397142D01*
X147604285Y-107342380D01*
X147494761Y-107287619D01*
X147275714Y-107232857D01*
X147166190Y-107178095D01*
X147111428Y-107123333D01*
X147056666Y-107013809D01*
X147056666Y-106904285D01*
X147111428Y-106794761D01*
X147166190Y-106740000D01*
X147275714Y-106685238D01*
X147549523Y-106685238D01*
X147713809Y-106740000D01*
X148097142Y-106685238D02*
X148370952Y-107835238D01*
X148590000Y-107013809D01*
X148809047Y-107835238D01*
X149082857Y-106685238D01*
X150013809Y-107068571D02*
X150013809Y-107835238D01*
X149740000Y-106630476D02*
X149466190Y-107451904D01*
X150178095Y-107451904D01*
%TO.C,SW3*%
X139436666Y-107780476D02*
X139600952Y-107835238D01*
X139874761Y-107835238D01*
X139984285Y-107780476D01*
X140039047Y-107725714D01*
X140093809Y-107616190D01*
X140093809Y-107506666D01*
X140039047Y-107397142D01*
X139984285Y-107342380D01*
X139874761Y-107287619D01*
X139655714Y-107232857D01*
X139546190Y-107178095D01*
X139491428Y-107123333D01*
X139436666Y-107013809D01*
X139436666Y-106904285D01*
X139491428Y-106794761D01*
X139546190Y-106740000D01*
X139655714Y-106685238D01*
X139929523Y-106685238D01*
X140093809Y-106740000D01*
X140477142Y-106685238D02*
X140750952Y-107835238D01*
X140970000Y-107013809D01*
X141189047Y-107835238D01*
X141462857Y-106685238D01*
X141791428Y-106685238D02*
X142503333Y-106685238D01*
X142120000Y-107123333D01*
X142284285Y-107123333D01*
X142393809Y-107178095D01*
X142448571Y-107232857D01*
X142503333Y-107342380D01*
X142503333Y-107616190D01*
X142448571Y-107725714D01*
X142393809Y-107780476D01*
X142284285Y-107835238D01*
X141955714Y-107835238D01*
X141846190Y-107780476D01*
X141791428Y-107725714D01*
%TO.C,SW2*%
X131816666Y-107780476D02*
X131980952Y-107835238D01*
X132254761Y-107835238D01*
X132364285Y-107780476D01*
X132419047Y-107725714D01*
X132473809Y-107616190D01*
X132473809Y-107506666D01*
X132419047Y-107397142D01*
X132364285Y-107342380D01*
X132254761Y-107287619D01*
X132035714Y-107232857D01*
X131926190Y-107178095D01*
X131871428Y-107123333D01*
X131816666Y-107013809D01*
X131816666Y-106904285D01*
X131871428Y-106794761D01*
X131926190Y-106740000D01*
X132035714Y-106685238D01*
X132309523Y-106685238D01*
X132473809Y-106740000D01*
X132857142Y-106685238D02*
X133130952Y-107835238D01*
X133350000Y-107013809D01*
X133569047Y-107835238D01*
X133842857Y-106685238D01*
X134226190Y-106794761D02*
X134280952Y-106740000D01*
X134390476Y-106685238D01*
X134664285Y-106685238D01*
X134773809Y-106740000D01*
X134828571Y-106794761D01*
X134883333Y-106904285D01*
X134883333Y-107013809D01*
X134828571Y-107178095D01*
X134171428Y-107835238D01*
X134883333Y-107835238D01*
%TO.C,SW1*%
X124196666Y-107780476D02*
X124360952Y-107835238D01*
X124634761Y-107835238D01*
X124744285Y-107780476D01*
X124799047Y-107725714D01*
X124853809Y-107616190D01*
X124853809Y-107506666D01*
X124799047Y-107397142D01*
X124744285Y-107342380D01*
X124634761Y-107287619D01*
X124415714Y-107232857D01*
X124306190Y-107178095D01*
X124251428Y-107123333D01*
X124196666Y-107013809D01*
X124196666Y-106904285D01*
X124251428Y-106794761D01*
X124306190Y-106740000D01*
X124415714Y-106685238D01*
X124689523Y-106685238D01*
X124853809Y-106740000D01*
X125237142Y-106685238D02*
X125510952Y-107835238D01*
X125730000Y-107013809D01*
X125949047Y-107835238D01*
X126222857Y-106685238D01*
X127263333Y-107835238D02*
X126606190Y-107835238D01*
X126934761Y-107835238D02*
X126934761Y-106685238D01*
X126825238Y-106849523D01*
X126715714Y-106959047D01*
X126606190Y-107013809D01*
%TD*%
M02*
