M48
; DRILL file {KiCad 5.1.6-c6e7f7d~87~ubuntu18.04.1} date Fri Oct  2 11:35:13 2020
; FORMAT={-:-/ absolute / inch / decimal}
; #@! TF.CreationDate,2020-10-02T11:35:13-04:00
; #@! TF.GenerationSoftware,Kicad,Pcbnew,5.1.6-c6e7f7d~87~ubuntu18.04.1
; #@! TF.FileFunction,Plated,1,2,PTH
FMAT,2
INCH
T1C0.0157
T2C0.0394
%
G90
G05
T1
X4.875Y-4.25
X4.95Y-4.075
X5.025Y-4.25
X5.025Y-4.325
X5.0469Y-4.45
X5.25Y-4.075
X5.25Y-4.25
X5.3Y-4.625
X5.325Y-4.325
X5.3348Y-4.3778
X5.35Y-4.4465
X5.55Y-4.075
X5.55Y-4.25
X5.625Y-4.325
X5.65Y-4.45
X5.7Y-4.475
X5.725Y-4.375
X5.85Y-4.075
X5.85Y-4.25
X5.925Y-4.325
X5.95Y-4.45
T2
X4.95Y-4.7
X5.05Y-4.7
X5.15Y-4.7
X5.25Y-4.7
X5.35Y-4.7
X5.45Y-4.7
X5.55Y-4.7
X5.65Y-4.7
X5.75Y-4.7
X5.85Y-4.7
T0
M30
