%TF.GenerationSoftware,KiCad,Pcbnew,5.1.6-c6e7f7d~87~ubuntu18.04.1*%
%TF.CreationDate,2020-10-02T11:35:24-04:00*%
%TF.ProjectId,breadboard-io,62726561-6462-46f6-9172-642d696f2e6b,rev?*%
%TF.SameCoordinates,Original*%
%TF.FileFunction,Copper,L1,Top*%
%TF.FilePolarity,Positive*%
%FSLAX46Y46*%
G04 Gerber Fmt 4.6, Leading zero omitted, Abs format (unit mm)*
G04 Created by KiCad (PCBNEW 5.1.6-c6e7f7d~87~ubuntu18.04.1) date 2020-10-02 11:35:24*
%MOMM*%
%LPD*%
G01*
G04 APERTURE LIST*
%TA.AperFunction,SMDPad,CuDef*%
%ADD10R,1.550000X1.000000*%
%TD*%
%TA.AperFunction,SMDPad,CuDef*%
%ADD11R,0.800000X0.900000*%
%TD*%
%TA.AperFunction,ComponentPad*%
%ADD12O,1.700000X1.700000*%
%TD*%
%TA.AperFunction,ComponentPad*%
%ADD13R,1.700000X1.700000*%
%TD*%
%TA.AperFunction,ViaPad*%
%ADD14C,0.800000*%
%TD*%
%TA.AperFunction,Conductor*%
%ADD15C,0.250000*%
%TD*%
%TA.AperFunction,Conductor*%
%ADD16C,0.254000*%
%TD*%
G04 APERTURE END LIST*
D10*
%TO.P,SW4,1*%
%TO.N,VCC*%
X151215000Y-103290000D03*
X145965000Y-103290000D03*
%TO.P,SW4,2*%
%TO.N,SW3*%
X145965000Y-104990000D03*
X151215000Y-104990000D03*
%TD*%
%TO.P,SW3,1*%
%TO.N,VCC*%
X143595000Y-103290000D03*
X138345000Y-103290000D03*
%TO.P,SW3,2*%
%TO.N,SW2*%
X138345000Y-104990000D03*
X143595000Y-104990000D03*
%TD*%
%TO.P,SW2,1*%
%TO.N,VCC*%
X135975000Y-103290000D03*
X130725000Y-103290000D03*
%TO.P,SW2,2*%
%TO.N,SW1*%
X130725000Y-104990000D03*
X135975000Y-104990000D03*
%TD*%
%TO.P,SW1,1*%
%TO.N,VCC*%
X128355000Y-103290000D03*
X123105000Y-103290000D03*
%TO.P,SW1,2*%
%TO.N,SW0*%
X123105000Y-104990000D03*
X128355000Y-104990000D03*
%TD*%
%TO.P,R12,2*%
%TO.N,GND*%
%TA.AperFunction,SMDPad,CuDef*%
G36*
G01*
X146222500Y-116650000D02*
X145877500Y-116650000D01*
G75*
G02*
X145730000Y-116502500I0J147500D01*
G01*
X145730000Y-116207500D01*
G75*
G02*
X145877500Y-116060000I147500J0D01*
G01*
X146222500Y-116060000D01*
G75*
G02*
X146370000Y-116207500I0J-147500D01*
G01*
X146370000Y-116502500D01*
G75*
G02*
X146222500Y-116650000I-147500J0D01*
G01*
G37*
%TD.AperFunction*%
%TO.P,R12,1*%
%TO.N,LED3*%
%TA.AperFunction,SMDPad,CuDef*%
G36*
G01*
X146222500Y-117620000D02*
X145877500Y-117620000D01*
G75*
G02*
X145730000Y-117472500I0J147500D01*
G01*
X145730000Y-117177500D01*
G75*
G02*
X145877500Y-117030000I147500J0D01*
G01*
X146222500Y-117030000D01*
G75*
G02*
X146370000Y-117177500I0J-147500D01*
G01*
X146370000Y-117472500D01*
G75*
G02*
X146222500Y-117620000I-147500J0D01*
G01*
G37*
%TD.AperFunction*%
%TD*%
%TO.P,R11,2*%
%TO.N,GND*%
%TA.AperFunction,SMDPad,CuDef*%
G36*
G01*
X143682500Y-116650000D02*
X143337500Y-116650000D01*
G75*
G02*
X143190000Y-116502500I0J147500D01*
G01*
X143190000Y-116207500D01*
G75*
G02*
X143337500Y-116060000I147500J0D01*
G01*
X143682500Y-116060000D01*
G75*
G02*
X143830000Y-116207500I0J-147500D01*
G01*
X143830000Y-116502500D01*
G75*
G02*
X143682500Y-116650000I-147500J0D01*
G01*
G37*
%TD.AperFunction*%
%TO.P,R11,1*%
%TO.N,LED2*%
%TA.AperFunction,SMDPad,CuDef*%
G36*
G01*
X143682500Y-117620000D02*
X143337500Y-117620000D01*
G75*
G02*
X143190000Y-117472500I0J147500D01*
G01*
X143190000Y-117177500D01*
G75*
G02*
X143337500Y-117030000I147500J0D01*
G01*
X143682500Y-117030000D01*
G75*
G02*
X143830000Y-117177500I0J-147500D01*
G01*
X143830000Y-117472500D01*
G75*
G02*
X143682500Y-117620000I-147500J0D01*
G01*
G37*
%TD.AperFunction*%
%TD*%
%TO.P,R10,2*%
%TO.N,GND*%
%TA.AperFunction,SMDPad,CuDef*%
G36*
G01*
X141142500Y-116650000D02*
X140797500Y-116650000D01*
G75*
G02*
X140650000Y-116502500I0J147500D01*
G01*
X140650000Y-116207500D01*
G75*
G02*
X140797500Y-116060000I147500J0D01*
G01*
X141142500Y-116060000D01*
G75*
G02*
X141290000Y-116207500I0J-147500D01*
G01*
X141290000Y-116502500D01*
G75*
G02*
X141142500Y-116650000I-147500J0D01*
G01*
G37*
%TD.AperFunction*%
%TO.P,R10,1*%
%TO.N,LED1*%
%TA.AperFunction,SMDPad,CuDef*%
G36*
G01*
X141142500Y-117620000D02*
X140797500Y-117620000D01*
G75*
G02*
X140650000Y-117472500I0J147500D01*
G01*
X140650000Y-117177500D01*
G75*
G02*
X140797500Y-117030000I147500J0D01*
G01*
X141142500Y-117030000D01*
G75*
G02*
X141290000Y-117177500I0J-147500D01*
G01*
X141290000Y-117472500D01*
G75*
G02*
X141142500Y-117620000I-147500J0D01*
G01*
G37*
%TD.AperFunction*%
%TD*%
%TO.P,R9,2*%
%TO.N,GND*%
%TA.AperFunction,SMDPad,CuDef*%
G36*
G01*
X138602500Y-116650000D02*
X138257500Y-116650000D01*
G75*
G02*
X138110000Y-116502500I0J147500D01*
G01*
X138110000Y-116207500D01*
G75*
G02*
X138257500Y-116060000I147500J0D01*
G01*
X138602500Y-116060000D01*
G75*
G02*
X138750000Y-116207500I0J-147500D01*
G01*
X138750000Y-116502500D01*
G75*
G02*
X138602500Y-116650000I-147500J0D01*
G01*
G37*
%TD.AperFunction*%
%TO.P,R9,1*%
%TO.N,LED0*%
%TA.AperFunction,SMDPad,CuDef*%
G36*
G01*
X138602500Y-117620000D02*
X138257500Y-117620000D01*
G75*
G02*
X138110000Y-117472500I0J147500D01*
G01*
X138110000Y-117177500D01*
G75*
G02*
X138257500Y-117030000I147500J0D01*
G01*
X138602500Y-117030000D01*
G75*
G02*
X138750000Y-117177500I0J-147500D01*
G01*
X138750000Y-117472500D01*
G75*
G02*
X138602500Y-117620000I-147500J0D01*
G01*
G37*
%TD.AperFunction*%
%TD*%
%TO.P,R8,2*%
%TO.N,Net-(D4-Pad2)*%
%TA.AperFunction,SMDPad,CuDef*%
G36*
G01*
X148400000Y-109682500D02*
X148400000Y-110027500D01*
G75*
G02*
X148252500Y-110175000I-147500J0D01*
G01*
X147957500Y-110175000D01*
G75*
G02*
X147810000Y-110027500I0J147500D01*
G01*
X147810000Y-109682500D01*
G75*
G02*
X147957500Y-109535000I147500J0D01*
G01*
X148252500Y-109535000D01*
G75*
G02*
X148400000Y-109682500I0J-147500D01*
G01*
G37*
%TD.AperFunction*%
%TO.P,R8,1*%
%TO.N,VCC*%
%TA.AperFunction,SMDPad,CuDef*%
G36*
G01*
X149370000Y-109682500D02*
X149370000Y-110027500D01*
G75*
G02*
X149222500Y-110175000I-147500J0D01*
G01*
X148927500Y-110175000D01*
G75*
G02*
X148780000Y-110027500I0J147500D01*
G01*
X148780000Y-109682500D01*
G75*
G02*
X148927500Y-109535000I147500J0D01*
G01*
X149222500Y-109535000D01*
G75*
G02*
X149370000Y-109682500I0J-147500D01*
G01*
G37*
%TD.AperFunction*%
%TD*%
%TO.P,R7,2*%
%TO.N,Net-(D3-Pad2)*%
%TA.AperFunction,SMDPad,CuDef*%
G36*
G01*
X140780000Y-109682500D02*
X140780000Y-110027500D01*
G75*
G02*
X140632500Y-110175000I-147500J0D01*
G01*
X140337500Y-110175000D01*
G75*
G02*
X140190000Y-110027500I0J147500D01*
G01*
X140190000Y-109682500D01*
G75*
G02*
X140337500Y-109535000I147500J0D01*
G01*
X140632500Y-109535000D01*
G75*
G02*
X140780000Y-109682500I0J-147500D01*
G01*
G37*
%TD.AperFunction*%
%TO.P,R7,1*%
%TO.N,VCC*%
%TA.AperFunction,SMDPad,CuDef*%
G36*
G01*
X141750000Y-109682500D02*
X141750000Y-110027500D01*
G75*
G02*
X141602500Y-110175000I-147500J0D01*
G01*
X141307500Y-110175000D01*
G75*
G02*
X141160000Y-110027500I0J147500D01*
G01*
X141160000Y-109682500D01*
G75*
G02*
X141307500Y-109535000I147500J0D01*
G01*
X141602500Y-109535000D01*
G75*
G02*
X141750000Y-109682500I0J-147500D01*
G01*
G37*
%TD.AperFunction*%
%TD*%
%TO.P,R6,2*%
%TO.N,Net-(D2-Pad2)*%
%TA.AperFunction,SMDPad,CuDef*%
G36*
G01*
X133160000Y-109682500D02*
X133160000Y-110027500D01*
G75*
G02*
X133012500Y-110175000I-147500J0D01*
G01*
X132717500Y-110175000D01*
G75*
G02*
X132570000Y-110027500I0J147500D01*
G01*
X132570000Y-109682500D01*
G75*
G02*
X132717500Y-109535000I147500J0D01*
G01*
X133012500Y-109535000D01*
G75*
G02*
X133160000Y-109682500I0J-147500D01*
G01*
G37*
%TD.AperFunction*%
%TO.P,R6,1*%
%TO.N,VCC*%
%TA.AperFunction,SMDPad,CuDef*%
G36*
G01*
X134130000Y-109682500D02*
X134130000Y-110027500D01*
G75*
G02*
X133982500Y-110175000I-147500J0D01*
G01*
X133687500Y-110175000D01*
G75*
G02*
X133540000Y-110027500I0J147500D01*
G01*
X133540000Y-109682500D01*
G75*
G02*
X133687500Y-109535000I147500J0D01*
G01*
X133982500Y-109535000D01*
G75*
G02*
X134130000Y-109682500I0J-147500D01*
G01*
G37*
%TD.AperFunction*%
%TD*%
%TO.P,R5,2*%
%TO.N,Net-(D1-Pad2)*%
%TA.AperFunction,SMDPad,CuDef*%
G36*
G01*
X125540000Y-109682500D02*
X125540000Y-110027500D01*
G75*
G02*
X125392500Y-110175000I-147500J0D01*
G01*
X125097500Y-110175000D01*
G75*
G02*
X124950000Y-110027500I0J147500D01*
G01*
X124950000Y-109682500D01*
G75*
G02*
X125097500Y-109535000I147500J0D01*
G01*
X125392500Y-109535000D01*
G75*
G02*
X125540000Y-109682500I0J-147500D01*
G01*
G37*
%TD.AperFunction*%
%TO.P,R5,1*%
%TO.N,VCC*%
%TA.AperFunction,SMDPad,CuDef*%
G36*
G01*
X126510000Y-109682500D02*
X126510000Y-110027500D01*
G75*
G02*
X126362500Y-110175000I-147500J0D01*
G01*
X126067500Y-110175000D01*
G75*
G02*
X125920000Y-110027500I0J147500D01*
G01*
X125920000Y-109682500D01*
G75*
G02*
X126067500Y-109535000I147500J0D01*
G01*
X126362500Y-109535000D01*
G75*
G02*
X126510000Y-109682500I0J-147500D01*
G01*
G37*
%TD.AperFunction*%
%TD*%
%TO.P,R4,2*%
%TO.N,GND*%
%TA.AperFunction,SMDPad,CuDef*%
G36*
G01*
X136062500Y-116650000D02*
X135717500Y-116650000D01*
G75*
G02*
X135570000Y-116502500I0J147500D01*
G01*
X135570000Y-116207500D01*
G75*
G02*
X135717500Y-116060000I147500J0D01*
G01*
X136062500Y-116060000D01*
G75*
G02*
X136210000Y-116207500I0J-147500D01*
G01*
X136210000Y-116502500D01*
G75*
G02*
X136062500Y-116650000I-147500J0D01*
G01*
G37*
%TD.AperFunction*%
%TO.P,R4,1*%
%TO.N,SW3*%
%TA.AperFunction,SMDPad,CuDef*%
G36*
G01*
X136062500Y-117620000D02*
X135717500Y-117620000D01*
G75*
G02*
X135570000Y-117472500I0J147500D01*
G01*
X135570000Y-117177500D01*
G75*
G02*
X135717500Y-117030000I147500J0D01*
G01*
X136062500Y-117030000D01*
G75*
G02*
X136210000Y-117177500I0J-147500D01*
G01*
X136210000Y-117472500D01*
G75*
G02*
X136062500Y-117620000I-147500J0D01*
G01*
G37*
%TD.AperFunction*%
%TD*%
%TO.P,R3,2*%
%TO.N,GND*%
%TA.AperFunction,SMDPad,CuDef*%
G36*
G01*
X133522500Y-116650000D02*
X133177500Y-116650000D01*
G75*
G02*
X133030000Y-116502500I0J147500D01*
G01*
X133030000Y-116207500D01*
G75*
G02*
X133177500Y-116060000I147500J0D01*
G01*
X133522500Y-116060000D01*
G75*
G02*
X133670000Y-116207500I0J-147500D01*
G01*
X133670000Y-116502500D01*
G75*
G02*
X133522500Y-116650000I-147500J0D01*
G01*
G37*
%TD.AperFunction*%
%TO.P,R3,1*%
%TO.N,SW2*%
%TA.AperFunction,SMDPad,CuDef*%
G36*
G01*
X133522500Y-117620000D02*
X133177500Y-117620000D01*
G75*
G02*
X133030000Y-117472500I0J147500D01*
G01*
X133030000Y-117177500D01*
G75*
G02*
X133177500Y-117030000I147500J0D01*
G01*
X133522500Y-117030000D01*
G75*
G02*
X133670000Y-117177500I0J-147500D01*
G01*
X133670000Y-117472500D01*
G75*
G02*
X133522500Y-117620000I-147500J0D01*
G01*
G37*
%TD.AperFunction*%
%TD*%
%TO.P,R2,2*%
%TO.N,GND*%
%TA.AperFunction,SMDPad,CuDef*%
G36*
G01*
X130982500Y-116650000D02*
X130637500Y-116650000D01*
G75*
G02*
X130490000Y-116502500I0J147500D01*
G01*
X130490000Y-116207500D01*
G75*
G02*
X130637500Y-116060000I147500J0D01*
G01*
X130982500Y-116060000D01*
G75*
G02*
X131130000Y-116207500I0J-147500D01*
G01*
X131130000Y-116502500D01*
G75*
G02*
X130982500Y-116650000I-147500J0D01*
G01*
G37*
%TD.AperFunction*%
%TO.P,R2,1*%
%TO.N,SW1*%
%TA.AperFunction,SMDPad,CuDef*%
G36*
G01*
X130982500Y-117620000D02*
X130637500Y-117620000D01*
G75*
G02*
X130490000Y-117472500I0J147500D01*
G01*
X130490000Y-117177500D01*
G75*
G02*
X130637500Y-117030000I147500J0D01*
G01*
X130982500Y-117030000D01*
G75*
G02*
X131130000Y-117177500I0J-147500D01*
G01*
X131130000Y-117472500D01*
G75*
G02*
X130982500Y-117620000I-147500J0D01*
G01*
G37*
%TD.AperFunction*%
%TD*%
%TO.P,R1,2*%
%TO.N,GND*%
%TA.AperFunction,SMDPad,CuDef*%
G36*
G01*
X128442500Y-116650000D02*
X128097500Y-116650000D01*
G75*
G02*
X127950000Y-116502500I0J147500D01*
G01*
X127950000Y-116207500D01*
G75*
G02*
X128097500Y-116060000I147500J0D01*
G01*
X128442500Y-116060000D01*
G75*
G02*
X128590000Y-116207500I0J-147500D01*
G01*
X128590000Y-116502500D01*
G75*
G02*
X128442500Y-116650000I-147500J0D01*
G01*
G37*
%TD.AperFunction*%
%TO.P,R1,1*%
%TO.N,SW0*%
%TA.AperFunction,SMDPad,CuDef*%
G36*
G01*
X128442500Y-117620000D02*
X128097500Y-117620000D01*
G75*
G02*
X127950000Y-117472500I0J147500D01*
G01*
X127950000Y-117177500D01*
G75*
G02*
X128097500Y-117030000I147500J0D01*
G01*
X128442500Y-117030000D01*
G75*
G02*
X128590000Y-117177500I0J-147500D01*
G01*
X128590000Y-117472500D01*
G75*
G02*
X128442500Y-117620000I-147500J0D01*
G01*
G37*
%TD.AperFunction*%
%TD*%
D11*
%TO.P,Q4,3*%
%TO.N,Net-(D4-Pad1)*%
X148590000Y-114665000D03*
%TO.P,Q4,2*%
%TO.N,GND*%
X147640000Y-112665000D03*
%TO.P,Q4,1*%
%TO.N,LED3*%
X149540000Y-112665000D03*
%TD*%
%TO.P,Q3,3*%
%TO.N,Net-(D3-Pad1)*%
X140970000Y-114665000D03*
%TO.P,Q3,2*%
%TO.N,GND*%
X140020000Y-112665000D03*
%TO.P,Q3,1*%
%TO.N,LED2*%
X141920000Y-112665000D03*
%TD*%
%TO.P,Q2,3*%
%TO.N,Net-(D2-Pad1)*%
X133350000Y-114665000D03*
%TO.P,Q2,2*%
%TO.N,GND*%
X132400000Y-112665000D03*
%TO.P,Q2,1*%
%TO.N,LED1*%
X134300000Y-112665000D03*
%TD*%
%TO.P,Q1,3*%
%TO.N,Net-(D1-Pad1)*%
X125730000Y-114665000D03*
%TO.P,Q1,2*%
%TO.N,GND*%
X124780000Y-112665000D03*
%TO.P,Q1,1*%
%TO.N,LED0*%
X126680000Y-112665000D03*
%TD*%
D12*
%TO.P,J1,10*%
%TO.N,GND*%
X148590000Y-119380000D03*
%TO.P,J1,9*%
%TO.N,LED3*%
X146050000Y-119380000D03*
%TO.P,J1,8*%
%TO.N,LED2*%
X143510000Y-119380000D03*
%TO.P,J1,7*%
%TO.N,LED1*%
X140970000Y-119380000D03*
%TO.P,J1,6*%
%TO.N,LED0*%
X138430000Y-119380000D03*
%TO.P,J1,5*%
%TO.N,SW3*%
X135890000Y-119380000D03*
%TO.P,J1,4*%
%TO.N,SW2*%
X133350000Y-119380000D03*
%TO.P,J1,3*%
%TO.N,SW1*%
X130810000Y-119380000D03*
%TO.P,J1,2*%
%TO.N,SW0*%
X128270000Y-119380000D03*
D13*
%TO.P,J1,1*%
%TO.N,VCC*%
X125730000Y-119380000D03*
%TD*%
%TO.P,D4,2*%
%TO.N,Net-(D4-Pad2)*%
%TA.AperFunction,SMDPad,CuDef*%
G36*
G01*
X148240000Y-110868750D02*
X148240000Y-111381250D01*
G75*
G02*
X148021250Y-111600000I-218750J0D01*
G01*
X147583750Y-111600000D01*
G75*
G02*
X147365000Y-111381250I0J218750D01*
G01*
X147365000Y-110868750D01*
G75*
G02*
X147583750Y-110650000I218750J0D01*
G01*
X148021250Y-110650000D01*
G75*
G02*
X148240000Y-110868750I0J-218750D01*
G01*
G37*
%TD.AperFunction*%
%TO.P,D4,1*%
%TO.N,Net-(D4-Pad1)*%
%TA.AperFunction,SMDPad,CuDef*%
G36*
G01*
X149815000Y-110868750D02*
X149815000Y-111381250D01*
G75*
G02*
X149596250Y-111600000I-218750J0D01*
G01*
X149158750Y-111600000D01*
G75*
G02*
X148940000Y-111381250I0J218750D01*
G01*
X148940000Y-110868750D01*
G75*
G02*
X149158750Y-110650000I218750J0D01*
G01*
X149596250Y-110650000D01*
G75*
G02*
X149815000Y-110868750I0J-218750D01*
G01*
G37*
%TD.AperFunction*%
%TD*%
%TO.P,D3,2*%
%TO.N,Net-(D3-Pad2)*%
%TA.AperFunction,SMDPad,CuDef*%
G36*
G01*
X140620000Y-110868750D02*
X140620000Y-111381250D01*
G75*
G02*
X140401250Y-111600000I-218750J0D01*
G01*
X139963750Y-111600000D01*
G75*
G02*
X139745000Y-111381250I0J218750D01*
G01*
X139745000Y-110868750D01*
G75*
G02*
X139963750Y-110650000I218750J0D01*
G01*
X140401250Y-110650000D01*
G75*
G02*
X140620000Y-110868750I0J-218750D01*
G01*
G37*
%TD.AperFunction*%
%TO.P,D3,1*%
%TO.N,Net-(D3-Pad1)*%
%TA.AperFunction,SMDPad,CuDef*%
G36*
G01*
X142195000Y-110868750D02*
X142195000Y-111381250D01*
G75*
G02*
X141976250Y-111600000I-218750J0D01*
G01*
X141538750Y-111600000D01*
G75*
G02*
X141320000Y-111381250I0J218750D01*
G01*
X141320000Y-110868750D01*
G75*
G02*
X141538750Y-110650000I218750J0D01*
G01*
X141976250Y-110650000D01*
G75*
G02*
X142195000Y-110868750I0J-218750D01*
G01*
G37*
%TD.AperFunction*%
%TD*%
%TO.P,D2,2*%
%TO.N,Net-(D2-Pad2)*%
%TA.AperFunction,SMDPad,CuDef*%
G36*
G01*
X133000000Y-110868750D02*
X133000000Y-111381250D01*
G75*
G02*
X132781250Y-111600000I-218750J0D01*
G01*
X132343750Y-111600000D01*
G75*
G02*
X132125000Y-111381250I0J218750D01*
G01*
X132125000Y-110868750D01*
G75*
G02*
X132343750Y-110650000I218750J0D01*
G01*
X132781250Y-110650000D01*
G75*
G02*
X133000000Y-110868750I0J-218750D01*
G01*
G37*
%TD.AperFunction*%
%TO.P,D2,1*%
%TO.N,Net-(D2-Pad1)*%
%TA.AperFunction,SMDPad,CuDef*%
G36*
G01*
X134575000Y-110868750D02*
X134575000Y-111381250D01*
G75*
G02*
X134356250Y-111600000I-218750J0D01*
G01*
X133918750Y-111600000D01*
G75*
G02*
X133700000Y-111381250I0J218750D01*
G01*
X133700000Y-110868750D01*
G75*
G02*
X133918750Y-110650000I218750J0D01*
G01*
X134356250Y-110650000D01*
G75*
G02*
X134575000Y-110868750I0J-218750D01*
G01*
G37*
%TD.AperFunction*%
%TD*%
%TO.P,D1,2*%
%TO.N,Net-(D1-Pad2)*%
%TA.AperFunction,SMDPad,CuDef*%
G36*
G01*
X125380000Y-110868750D02*
X125380000Y-111381250D01*
G75*
G02*
X125161250Y-111600000I-218750J0D01*
G01*
X124723750Y-111600000D01*
G75*
G02*
X124505000Y-111381250I0J218750D01*
G01*
X124505000Y-110868750D01*
G75*
G02*
X124723750Y-110650000I218750J0D01*
G01*
X125161250Y-110650000D01*
G75*
G02*
X125380000Y-110868750I0J-218750D01*
G01*
G37*
%TD.AperFunction*%
%TO.P,D1,1*%
%TO.N,Net-(D1-Pad1)*%
%TA.AperFunction,SMDPad,CuDef*%
G36*
G01*
X126955000Y-110868750D02*
X126955000Y-111381250D01*
G75*
G02*
X126736250Y-111600000I-218750J0D01*
G01*
X126298750Y-111600000D01*
G75*
G02*
X126080000Y-111381250I0J218750D01*
G01*
X126080000Y-110868750D01*
G75*
G02*
X126298750Y-110650000I218750J0D01*
G01*
X126736250Y-110650000D01*
G75*
G02*
X126955000Y-110868750I0J-218750D01*
G01*
G37*
%TD.AperFunction*%
%TD*%
D14*
%TO.N,GND*%
X145415000Y-111125000D03*
X144780000Y-113665000D03*
X134620000Y-117475000D03*
X133350000Y-107950000D03*
X127635000Y-107950000D03*
X123825000Y-107950000D03*
X140970000Y-107950000D03*
X148590000Y-107950000D03*
X135504372Y-111195541D03*
%TO.N,LED3*%
X151130000Y-113030000D03*
%TO.N,LED2*%
X143510000Y-113030000D03*
%TO.N,LED1*%
X135890000Y-112940000D03*
%TO.N,LED0*%
X128190010Y-113030000D03*
%TO.N,VCC*%
X125730000Y-103505000D03*
X133350000Y-103505000D03*
X140970000Y-103505000D03*
X148590000Y-103505000D03*
X127635000Y-109855000D03*
X135255000Y-109855000D03*
X142875000Y-109855000D03*
X150495000Y-109855000D03*
%TD*%
D15*
%TO.N,Net-(D1-Pad2)*%
X124942500Y-110157500D02*
X125245000Y-109855000D01*
X124942500Y-111125000D02*
X124942500Y-110157500D01*
%TO.N,Net-(D1-Pad1)*%
X125730000Y-111912500D02*
X125730000Y-114665000D01*
X126517500Y-111125000D02*
X125730000Y-111912500D01*
%TO.N,Net-(D2-Pad2)*%
X132562500Y-110157500D02*
X132865000Y-109855000D01*
X132562500Y-111125000D02*
X132562500Y-110157500D01*
%TO.N,Net-(D2-Pad1)*%
X133350000Y-111912500D02*
X134137500Y-111125000D01*
X133350000Y-114665000D02*
X133350000Y-111912500D01*
%TO.N,Net-(D3-Pad2)*%
X140182500Y-110157500D02*
X140485000Y-109855000D01*
X140182500Y-111125000D02*
X140182500Y-110157500D01*
%TO.N,Net-(D3-Pad1)*%
X140970000Y-111912500D02*
X141757500Y-111125000D01*
X140970000Y-114665000D02*
X140970000Y-111912500D01*
%TO.N,Net-(D4-Pad2)*%
X147802500Y-110157500D02*
X148105000Y-109855000D01*
X147802500Y-111125000D02*
X147802500Y-110157500D01*
%TO.N,Net-(D4-Pad1)*%
X148590000Y-111912500D02*
X149377500Y-111125000D01*
X148590000Y-114665000D02*
X148590000Y-111912500D01*
%TO.N,LED3*%
X146050000Y-119380000D02*
X146050000Y-117325000D01*
X149540000Y-112665000D02*
X150765000Y-112665000D01*
X150765000Y-112665000D02*
X151130000Y-113030000D01*
%TO.N,LED2*%
X143510000Y-119380000D02*
X143510000Y-117325000D01*
X141920000Y-112665000D02*
X143145000Y-112665000D01*
X143145000Y-112665000D02*
X143510000Y-113030000D01*
%TO.N,LED1*%
X140970000Y-119380000D02*
X140970000Y-117325000D01*
X134300000Y-112665000D02*
X135615000Y-112665000D01*
X135615000Y-112665000D02*
X135890000Y-112940000D01*
%TO.N,LED0*%
X138430000Y-119380000D02*
X138430000Y-117325000D01*
X126680000Y-112665000D02*
X127825010Y-112665000D01*
X127825010Y-112665000D02*
X128190010Y-113030000D01*
%TO.N,SW3*%
X145965000Y-104990000D02*
X151215000Y-104990000D01*
X135890000Y-119380000D02*
X135890000Y-117325000D01*
X136210000Y-117325000D02*
X137160000Y-116375000D01*
X135890000Y-117325000D02*
X136210000Y-117325000D01*
X137069999Y-116284999D02*
X137069999Y-106901411D01*
X137160000Y-116375000D02*
X137069999Y-116284999D01*
X145965000Y-104990000D02*
X145835000Y-104990000D01*
X145835000Y-104990000D02*
X144780000Y-106045000D01*
X144780000Y-106045000D02*
X137926410Y-106045000D01*
X137926410Y-106045000D02*
X137069999Y-106901411D01*
%TO.N,SW2*%
X138345000Y-104990000D02*
X143595000Y-104990000D01*
X133350000Y-119380000D02*
X133350000Y-117325000D01*
X133500000Y-117325000D02*
X133350000Y-117325000D01*
X133995010Y-116194990D02*
X133995010Y-116829990D01*
X133995010Y-116829990D02*
X133500000Y-117325000D01*
X136615001Y-112591999D02*
X136615001Y-113574999D01*
X136615001Y-113574999D02*
X133995010Y-116194990D01*
X138215000Y-104990000D02*
X136525000Y-106680000D01*
X138345000Y-104990000D02*
X138215000Y-104990000D01*
X136525000Y-106680000D02*
X136525000Y-112501998D01*
X136525000Y-112501998D02*
X136615001Y-112591999D01*
%TO.N,SW1*%
X130725000Y-104990000D02*
X135975000Y-104990000D01*
X130810000Y-119380000D02*
X130810000Y-117325000D01*
X130791768Y-117325000D02*
X130810000Y-117325000D01*
X130164990Y-116698222D02*
X130791768Y-117325000D01*
X130164990Y-105550010D02*
X130164990Y-116698222D01*
X130725000Y-104990000D02*
X130164990Y-105550010D01*
%TO.N,SW0*%
X128270000Y-119380000D02*
X128270000Y-117325000D01*
X123105000Y-104990000D02*
X128355000Y-104990000D01*
X128420000Y-117325000D02*
X128270000Y-117325000D01*
X129540000Y-116205000D02*
X128420000Y-117325000D01*
X129540000Y-106045000D02*
X129540000Y-116205000D01*
X128355000Y-104990000D02*
X128485000Y-104990000D01*
X128485000Y-104990000D02*
X129540000Y-106045000D01*
%TO.N,VCC*%
X126215000Y-109855000D02*
X127635000Y-109855000D01*
X135255000Y-109855000D02*
X133835000Y-109855000D01*
X141455000Y-109855000D02*
X142875000Y-109855000D01*
X149075000Y-109855000D02*
X150495000Y-109855000D01*
X151000000Y-103505000D02*
X151215000Y-103290000D01*
X148590000Y-103505000D02*
X151000000Y-103505000D01*
X146180000Y-103505000D02*
X145965000Y-103290000D01*
X148590000Y-103505000D02*
X146180000Y-103505000D01*
X143380000Y-103505000D02*
X143595000Y-103290000D01*
X140970000Y-103505000D02*
X143380000Y-103505000D01*
X138560000Y-103505000D02*
X138345000Y-103290000D01*
X140970000Y-103505000D02*
X138560000Y-103505000D01*
X135760000Y-103505000D02*
X135975000Y-103290000D01*
X133350000Y-103505000D02*
X135760000Y-103505000D01*
X130940000Y-103505000D02*
X130725000Y-103290000D01*
X133350000Y-103505000D02*
X130940000Y-103505000D01*
X128140000Y-103505000D02*
X128355000Y-103290000D01*
X125730000Y-103505000D02*
X128140000Y-103505000D01*
X123320000Y-103505000D02*
X123105000Y-103290000D01*
X125730000Y-103505000D02*
X123320000Y-103505000D01*
%TD*%
D16*
%TO.N,GND*%
G36*
X121878815Y-102338815D02*
G01*
X121799463Y-102435506D01*
X121740498Y-102545820D01*
X121704188Y-102665518D01*
X121691928Y-102790000D01*
X121691928Y-103790000D01*
X121704188Y-103914482D01*
X121740498Y-104034180D01*
X121797061Y-104140000D01*
X121740498Y-104245820D01*
X121704188Y-104365518D01*
X121691928Y-104490000D01*
X121691928Y-105490000D01*
X121704188Y-105614482D01*
X121740498Y-105734180D01*
X121799463Y-105844494D01*
X121878815Y-105941185D01*
X121975506Y-106020537D01*
X122085820Y-106079502D01*
X122205518Y-106115812D01*
X122330000Y-106128072D01*
X123880000Y-106128072D01*
X124004482Y-106115812D01*
X124124180Y-106079502D01*
X124234494Y-106020537D01*
X124331185Y-105941185D01*
X124410537Y-105844494D01*
X124461046Y-105750000D01*
X126998954Y-105750000D01*
X127049463Y-105844494D01*
X127128815Y-105941185D01*
X127225506Y-106020537D01*
X127335820Y-106079502D01*
X127455518Y-106115812D01*
X127580000Y-106128072D01*
X128548270Y-106128072D01*
X128780000Y-106359802D01*
X128780001Y-112179435D01*
X128680266Y-112112795D01*
X128491908Y-112034774D01*
X128291949Y-111995000D01*
X128183758Y-111995000D01*
X128117257Y-111959454D01*
X127973996Y-111915997D01*
X127862343Y-111905000D01*
X127862332Y-111905000D01*
X127825010Y-111901324D01*
X127787688Y-111905000D01*
X127634320Y-111905000D01*
X127610537Y-111860506D01*
X127531185Y-111763815D01*
X127508554Y-111745242D01*
X127527850Y-111709142D01*
X127576608Y-111548408D01*
X127593072Y-111381250D01*
X127593072Y-110890000D01*
X127736939Y-110890000D01*
X127936898Y-110850226D01*
X128125256Y-110772205D01*
X128294774Y-110658937D01*
X128438937Y-110514774D01*
X128552205Y-110345256D01*
X128630226Y-110156898D01*
X128670000Y-109956939D01*
X128670000Y-109753061D01*
X128630226Y-109553102D01*
X128552205Y-109364744D01*
X128438937Y-109195226D01*
X128294774Y-109051063D01*
X128125256Y-108937795D01*
X127936898Y-108859774D01*
X127736939Y-108820000D01*
X127533061Y-108820000D01*
X127333102Y-108859774D01*
X127144744Y-108937795D01*
X126975226Y-109051063D01*
X126931289Y-109095000D01*
X126878970Y-109095000D01*
X126798940Y-109029321D01*
X126663125Y-108956726D01*
X126515757Y-108912023D01*
X126362500Y-108896928D01*
X126067500Y-108896928D01*
X125914243Y-108912023D01*
X125766875Y-108956726D01*
X125730000Y-108976436D01*
X125693125Y-108956726D01*
X125545757Y-108912023D01*
X125392500Y-108896928D01*
X125097500Y-108896928D01*
X124944243Y-108912023D01*
X124796875Y-108956726D01*
X124661060Y-109029321D01*
X124542017Y-109127017D01*
X124444321Y-109246060D01*
X124371726Y-109381875D01*
X124327023Y-109529243D01*
X124311928Y-109682500D01*
X124311928Y-109727860D01*
X124307526Y-109733224D01*
X124236954Y-109865254D01*
X124193498Y-110008515D01*
X124178824Y-110157500D01*
X124182501Y-110194832D01*
X124182501Y-110209857D01*
X124117885Y-110262885D01*
X124011329Y-110392725D01*
X123932150Y-110540858D01*
X123883392Y-110701592D01*
X123866928Y-110868750D01*
X123866928Y-111381250D01*
X123883392Y-111548408D01*
X123932150Y-111709142D01*
X123951446Y-111745242D01*
X123928815Y-111763815D01*
X123849463Y-111860506D01*
X123790498Y-111970820D01*
X123754188Y-112090518D01*
X123741928Y-112215000D01*
X123745000Y-112379250D01*
X123903750Y-112538000D01*
X124653000Y-112538000D01*
X124653000Y-112518000D01*
X124907000Y-112518000D01*
X124907000Y-112538000D01*
X124927000Y-112538000D01*
X124927000Y-112792000D01*
X124907000Y-112792000D01*
X124907000Y-113591250D01*
X124970001Y-113654251D01*
X124970001Y-113688981D01*
X124878815Y-113763815D01*
X124799463Y-113860506D01*
X124740498Y-113970820D01*
X124704188Y-114090518D01*
X124691928Y-114215000D01*
X124691928Y-115115000D01*
X124704188Y-115239482D01*
X124740498Y-115359180D01*
X124799463Y-115469494D01*
X124878815Y-115566185D01*
X124975506Y-115645537D01*
X125085820Y-115704502D01*
X125205518Y-115740812D01*
X125330000Y-115753072D01*
X126130000Y-115753072D01*
X126254482Y-115740812D01*
X126374180Y-115704502D01*
X126484494Y-115645537D01*
X126581185Y-115566185D01*
X126660537Y-115469494D01*
X126719502Y-115359180D01*
X126755812Y-115239482D01*
X126768072Y-115115000D01*
X126768072Y-114215000D01*
X126755812Y-114090518D01*
X126719502Y-113970820D01*
X126660537Y-113860506D01*
X126581185Y-113763815D01*
X126568095Y-113753072D01*
X127080000Y-113753072D01*
X127204482Y-113740812D01*
X127324180Y-113704502D01*
X127377036Y-113676249D01*
X127386073Y-113689774D01*
X127530236Y-113833937D01*
X127699754Y-113947205D01*
X127888112Y-114025226D01*
X128088071Y-114065000D01*
X128291949Y-114065000D01*
X128491908Y-114025226D01*
X128680266Y-113947205D01*
X128780001Y-113880565D01*
X128780001Y-115454063D01*
X128714482Y-115434188D01*
X128590000Y-115421928D01*
X128555750Y-115425000D01*
X128397000Y-115583750D01*
X128397000Y-116228000D01*
X128417000Y-116228000D01*
X128417000Y-116253199D01*
X128278271Y-116391928D01*
X128097500Y-116391928D01*
X127944243Y-116407023D01*
X127796875Y-116451726D01*
X127740237Y-116482000D01*
X127473750Y-116482000D01*
X127315000Y-116640750D01*
X127311928Y-116650000D01*
X127324188Y-116774482D01*
X127360498Y-116894180D01*
X127364312Y-116901316D01*
X127327023Y-117024243D01*
X127311928Y-117177500D01*
X127311928Y-117472500D01*
X127327023Y-117625757D01*
X127371726Y-117773125D01*
X127444321Y-117908940D01*
X127510001Y-117988971D01*
X127510001Y-118101821D01*
X127323368Y-118226525D01*
X127191513Y-118358380D01*
X127169502Y-118285820D01*
X127110537Y-118175506D01*
X127031185Y-118078815D01*
X126934494Y-117999463D01*
X126824180Y-117940498D01*
X126704482Y-117904188D01*
X126580000Y-117891928D01*
X124880000Y-117891928D01*
X124755518Y-117904188D01*
X124635820Y-117940498D01*
X124525506Y-117999463D01*
X124428815Y-118078815D01*
X124349463Y-118175506D01*
X124290498Y-118285820D01*
X124254188Y-118405518D01*
X124241928Y-118530000D01*
X124241928Y-119990000D01*
X121952279Y-119990000D01*
X121802131Y-119975278D01*
X121688754Y-119941047D01*
X121584183Y-119885446D01*
X121492405Y-119810594D01*
X121416909Y-119719335D01*
X121360581Y-119615160D01*
X121325560Y-119502024D01*
X121310000Y-119353979D01*
X121310000Y-116060000D01*
X127311928Y-116060000D01*
X127315000Y-116069250D01*
X127473750Y-116228000D01*
X128143000Y-116228000D01*
X128143000Y-115583750D01*
X127984250Y-115425000D01*
X127950000Y-115421928D01*
X127825518Y-115434188D01*
X127705820Y-115470498D01*
X127595506Y-115529463D01*
X127498815Y-115608815D01*
X127419463Y-115705506D01*
X127360498Y-115815820D01*
X127324188Y-115935518D01*
X127311928Y-116060000D01*
X121310000Y-116060000D01*
X121310000Y-113115000D01*
X123741928Y-113115000D01*
X123754188Y-113239482D01*
X123790498Y-113359180D01*
X123849463Y-113469494D01*
X123928815Y-113566185D01*
X124025506Y-113645537D01*
X124135820Y-113704502D01*
X124255518Y-113740812D01*
X124380000Y-113753072D01*
X124494250Y-113750000D01*
X124653000Y-113591250D01*
X124653000Y-112792000D01*
X123903750Y-112792000D01*
X123745000Y-112950750D01*
X123741928Y-113115000D01*
X121310000Y-113115000D01*
X121310000Y-102902279D01*
X121324722Y-102752131D01*
X121358953Y-102638754D01*
X121414555Y-102534181D01*
X121489407Y-102442404D01*
X121580664Y-102366909D01*
X121684844Y-102310581D01*
X121797976Y-102275560D01*
X121946022Y-102260000D01*
X121974852Y-102260000D01*
X121878815Y-102338815D01*
G37*
X121878815Y-102338815D02*
X121799463Y-102435506D01*
X121740498Y-102545820D01*
X121704188Y-102665518D01*
X121691928Y-102790000D01*
X121691928Y-103790000D01*
X121704188Y-103914482D01*
X121740498Y-104034180D01*
X121797061Y-104140000D01*
X121740498Y-104245820D01*
X121704188Y-104365518D01*
X121691928Y-104490000D01*
X121691928Y-105490000D01*
X121704188Y-105614482D01*
X121740498Y-105734180D01*
X121799463Y-105844494D01*
X121878815Y-105941185D01*
X121975506Y-106020537D01*
X122085820Y-106079502D01*
X122205518Y-106115812D01*
X122330000Y-106128072D01*
X123880000Y-106128072D01*
X124004482Y-106115812D01*
X124124180Y-106079502D01*
X124234494Y-106020537D01*
X124331185Y-105941185D01*
X124410537Y-105844494D01*
X124461046Y-105750000D01*
X126998954Y-105750000D01*
X127049463Y-105844494D01*
X127128815Y-105941185D01*
X127225506Y-106020537D01*
X127335820Y-106079502D01*
X127455518Y-106115812D01*
X127580000Y-106128072D01*
X128548270Y-106128072D01*
X128780000Y-106359802D01*
X128780001Y-112179435D01*
X128680266Y-112112795D01*
X128491908Y-112034774D01*
X128291949Y-111995000D01*
X128183758Y-111995000D01*
X128117257Y-111959454D01*
X127973996Y-111915997D01*
X127862343Y-111905000D01*
X127862332Y-111905000D01*
X127825010Y-111901324D01*
X127787688Y-111905000D01*
X127634320Y-111905000D01*
X127610537Y-111860506D01*
X127531185Y-111763815D01*
X127508554Y-111745242D01*
X127527850Y-111709142D01*
X127576608Y-111548408D01*
X127593072Y-111381250D01*
X127593072Y-110890000D01*
X127736939Y-110890000D01*
X127936898Y-110850226D01*
X128125256Y-110772205D01*
X128294774Y-110658937D01*
X128438937Y-110514774D01*
X128552205Y-110345256D01*
X128630226Y-110156898D01*
X128670000Y-109956939D01*
X128670000Y-109753061D01*
X128630226Y-109553102D01*
X128552205Y-109364744D01*
X128438937Y-109195226D01*
X128294774Y-109051063D01*
X128125256Y-108937795D01*
X127936898Y-108859774D01*
X127736939Y-108820000D01*
X127533061Y-108820000D01*
X127333102Y-108859774D01*
X127144744Y-108937795D01*
X126975226Y-109051063D01*
X126931289Y-109095000D01*
X126878970Y-109095000D01*
X126798940Y-109029321D01*
X126663125Y-108956726D01*
X126515757Y-108912023D01*
X126362500Y-108896928D01*
X126067500Y-108896928D01*
X125914243Y-108912023D01*
X125766875Y-108956726D01*
X125730000Y-108976436D01*
X125693125Y-108956726D01*
X125545757Y-108912023D01*
X125392500Y-108896928D01*
X125097500Y-108896928D01*
X124944243Y-108912023D01*
X124796875Y-108956726D01*
X124661060Y-109029321D01*
X124542017Y-109127017D01*
X124444321Y-109246060D01*
X124371726Y-109381875D01*
X124327023Y-109529243D01*
X124311928Y-109682500D01*
X124311928Y-109727860D01*
X124307526Y-109733224D01*
X124236954Y-109865254D01*
X124193498Y-110008515D01*
X124178824Y-110157500D01*
X124182501Y-110194832D01*
X124182501Y-110209857D01*
X124117885Y-110262885D01*
X124011329Y-110392725D01*
X123932150Y-110540858D01*
X123883392Y-110701592D01*
X123866928Y-110868750D01*
X123866928Y-111381250D01*
X123883392Y-111548408D01*
X123932150Y-111709142D01*
X123951446Y-111745242D01*
X123928815Y-111763815D01*
X123849463Y-111860506D01*
X123790498Y-111970820D01*
X123754188Y-112090518D01*
X123741928Y-112215000D01*
X123745000Y-112379250D01*
X123903750Y-112538000D01*
X124653000Y-112538000D01*
X124653000Y-112518000D01*
X124907000Y-112518000D01*
X124907000Y-112538000D01*
X124927000Y-112538000D01*
X124927000Y-112792000D01*
X124907000Y-112792000D01*
X124907000Y-113591250D01*
X124970001Y-113654251D01*
X124970001Y-113688981D01*
X124878815Y-113763815D01*
X124799463Y-113860506D01*
X124740498Y-113970820D01*
X124704188Y-114090518D01*
X124691928Y-114215000D01*
X124691928Y-115115000D01*
X124704188Y-115239482D01*
X124740498Y-115359180D01*
X124799463Y-115469494D01*
X124878815Y-115566185D01*
X124975506Y-115645537D01*
X125085820Y-115704502D01*
X125205518Y-115740812D01*
X125330000Y-115753072D01*
X126130000Y-115753072D01*
X126254482Y-115740812D01*
X126374180Y-115704502D01*
X126484494Y-115645537D01*
X126581185Y-115566185D01*
X126660537Y-115469494D01*
X126719502Y-115359180D01*
X126755812Y-115239482D01*
X126768072Y-115115000D01*
X126768072Y-114215000D01*
X126755812Y-114090518D01*
X126719502Y-113970820D01*
X126660537Y-113860506D01*
X126581185Y-113763815D01*
X126568095Y-113753072D01*
X127080000Y-113753072D01*
X127204482Y-113740812D01*
X127324180Y-113704502D01*
X127377036Y-113676249D01*
X127386073Y-113689774D01*
X127530236Y-113833937D01*
X127699754Y-113947205D01*
X127888112Y-114025226D01*
X128088071Y-114065000D01*
X128291949Y-114065000D01*
X128491908Y-114025226D01*
X128680266Y-113947205D01*
X128780001Y-113880565D01*
X128780001Y-115454063D01*
X128714482Y-115434188D01*
X128590000Y-115421928D01*
X128555750Y-115425000D01*
X128397000Y-115583750D01*
X128397000Y-116228000D01*
X128417000Y-116228000D01*
X128417000Y-116253199D01*
X128278271Y-116391928D01*
X128097500Y-116391928D01*
X127944243Y-116407023D01*
X127796875Y-116451726D01*
X127740237Y-116482000D01*
X127473750Y-116482000D01*
X127315000Y-116640750D01*
X127311928Y-116650000D01*
X127324188Y-116774482D01*
X127360498Y-116894180D01*
X127364312Y-116901316D01*
X127327023Y-117024243D01*
X127311928Y-117177500D01*
X127311928Y-117472500D01*
X127327023Y-117625757D01*
X127371726Y-117773125D01*
X127444321Y-117908940D01*
X127510001Y-117988971D01*
X127510001Y-118101821D01*
X127323368Y-118226525D01*
X127191513Y-118358380D01*
X127169502Y-118285820D01*
X127110537Y-118175506D01*
X127031185Y-118078815D01*
X126934494Y-117999463D01*
X126824180Y-117940498D01*
X126704482Y-117904188D01*
X126580000Y-117891928D01*
X124880000Y-117891928D01*
X124755518Y-117904188D01*
X124635820Y-117940498D01*
X124525506Y-117999463D01*
X124428815Y-118078815D01*
X124349463Y-118175506D01*
X124290498Y-118285820D01*
X124254188Y-118405518D01*
X124241928Y-118530000D01*
X124241928Y-119990000D01*
X121952279Y-119990000D01*
X121802131Y-119975278D01*
X121688754Y-119941047D01*
X121584183Y-119885446D01*
X121492405Y-119810594D01*
X121416909Y-119719335D01*
X121360581Y-119615160D01*
X121325560Y-119502024D01*
X121310000Y-119353979D01*
X121310000Y-116060000D01*
X127311928Y-116060000D01*
X127315000Y-116069250D01*
X127473750Y-116228000D01*
X128143000Y-116228000D01*
X128143000Y-115583750D01*
X127984250Y-115425000D01*
X127950000Y-115421928D01*
X127825518Y-115434188D01*
X127705820Y-115470498D01*
X127595506Y-115529463D01*
X127498815Y-115608815D01*
X127419463Y-115705506D01*
X127360498Y-115815820D01*
X127324188Y-115935518D01*
X127311928Y-116060000D01*
X121310000Y-116060000D01*
X121310000Y-113115000D01*
X123741928Y-113115000D01*
X123754188Y-113239482D01*
X123790498Y-113359180D01*
X123849463Y-113469494D01*
X123928815Y-113566185D01*
X124025506Y-113645537D01*
X124135820Y-113704502D01*
X124255518Y-113740812D01*
X124380000Y-113753072D01*
X124494250Y-113750000D01*
X124653000Y-113591250D01*
X124653000Y-112792000D01*
X123903750Y-112792000D01*
X123745000Y-112950750D01*
X123741928Y-113115000D01*
X121310000Y-113115000D01*
X121310000Y-102902279D01*
X121324722Y-102752131D01*
X121358953Y-102638754D01*
X121414555Y-102534181D01*
X121489407Y-102442404D01*
X121580664Y-102366909D01*
X121684844Y-102310581D01*
X121797976Y-102275560D01*
X121946022Y-102260000D01*
X121974852Y-102260000D01*
X121878815Y-102338815D01*
G36*
X152517869Y-102274722D02*
G01*
X152631246Y-102308953D01*
X152735819Y-102364555D01*
X152827596Y-102439407D01*
X152903091Y-102530664D01*
X152959419Y-102634844D01*
X152994440Y-102747976D01*
X153010001Y-102896031D01*
X153010000Y-119347721D01*
X152995278Y-119497869D01*
X152961047Y-119611246D01*
X152905446Y-119715817D01*
X152830594Y-119807595D01*
X152739335Y-119883091D01*
X152635160Y-119939419D01*
X152522024Y-119974440D01*
X152373979Y-119990000D01*
X149941696Y-119990000D01*
X150031481Y-119736891D01*
X149910814Y-119507000D01*
X148717000Y-119507000D01*
X148717000Y-119527000D01*
X148463000Y-119527000D01*
X148463000Y-119507000D01*
X148443000Y-119507000D01*
X148443000Y-119253000D01*
X148463000Y-119253000D01*
X148463000Y-118059845D01*
X148717000Y-118059845D01*
X148717000Y-119253000D01*
X149910814Y-119253000D01*
X150031481Y-119023109D01*
X149934157Y-118748748D01*
X149785178Y-118498645D01*
X149590269Y-118282412D01*
X149356920Y-118108359D01*
X149094099Y-117983175D01*
X148946890Y-117938524D01*
X148717000Y-118059845D01*
X148463000Y-118059845D01*
X148233110Y-117938524D01*
X148085901Y-117983175D01*
X147823080Y-118108359D01*
X147589731Y-118282412D01*
X147394822Y-118498645D01*
X147325195Y-118615534D01*
X147203475Y-118433368D01*
X146996632Y-118226525D01*
X146810000Y-118101822D01*
X146810000Y-117988970D01*
X146875679Y-117908940D01*
X146948274Y-117773125D01*
X146992977Y-117625757D01*
X147008072Y-117472500D01*
X147008072Y-117177500D01*
X146992977Y-117024243D01*
X146955688Y-116901316D01*
X146959502Y-116894180D01*
X146995812Y-116774482D01*
X147008072Y-116650000D01*
X147005000Y-116640750D01*
X146846250Y-116482000D01*
X146579763Y-116482000D01*
X146523125Y-116451726D01*
X146375757Y-116407023D01*
X146222500Y-116391928D01*
X145877500Y-116391928D01*
X145724243Y-116407023D01*
X145576875Y-116451726D01*
X145520237Y-116482000D01*
X145253750Y-116482000D01*
X145095000Y-116640750D01*
X145091928Y-116650000D01*
X145104188Y-116774482D01*
X145140498Y-116894180D01*
X145144312Y-116901316D01*
X145107023Y-117024243D01*
X145091928Y-117177500D01*
X145091928Y-117472500D01*
X145107023Y-117625757D01*
X145151726Y-117773125D01*
X145224321Y-117908940D01*
X145290001Y-117988971D01*
X145290001Y-118101821D01*
X145103368Y-118226525D01*
X144896525Y-118433368D01*
X144780000Y-118607760D01*
X144663475Y-118433368D01*
X144456632Y-118226525D01*
X144270000Y-118101822D01*
X144270000Y-117988970D01*
X144335679Y-117908940D01*
X144408274Y-117773125D01*
X144452977Y-117625757D01*
X144468072Y-117472500D01*
X144468072Y-117177500D01*
X144452977Y-117024243D01*
X144415688Y-116901316D01*
X144419502Y-116894180D01*
X144455812Y-116774482D01*
X144468072Y-116650000D01*
X144465000Y-116640750D01*
X144306250Y-116482000D01*
X144039763Y-116482000D01*
X143983125Y-116451726D01*
X143835757Y-116407023D01*
X143682500Y-116391928D01*
X143337500Y-116391928D01*
X143184243Y-116407023D01*
X143036875Y-116451726D01*
X142980237Y-116482000D01*
X142713750Y-116482000D01*
X142555000Y-116640750D01*
X142551928Y-116650000D01*
X142564188Y-116774482D01*
X142600498Y-116894180D01*
X142604312Y-116901316D01*
X142567023Y-117024243D01*
X142551928Y-117177500D01*
X142551928Y-117472500D01*
X142567023Y-117625757D01*
X142611726Y-117773125D01*
X142684321Y-117908940D01*
X142750001Y-117988971D01*
X142750001Y-118101821D01*
X142563368Y-118226525D01*
X142356525Y-118433368D01*
X142240000Y-118607760D01*
X142123475Y-118433368D01*
X141916632Y-118226525D01*
X141730000Y-118101822D01*
X141730000Y-117988970D01*
X141795679Y-117908940D01*
X141868274Y-117773125D01*
X141912977Y-117625757D01*
X141928072Y-117472500D01*
X141928072Y-117177500D01*
X141912977Y-117024243D01*
X141875688Y-116901316D01*
X141879502Y-116894180D01*
X141915812Y-116774482D01*
X141928072Y-116650000D01*
X141925000Y-116640750D01*
X141766250Y-116482000D01*
X141499763Y-116482000D01*
X141443125Y-116451726D01*
X141295757Y-116407023D01*
X141142500Y-116391928D01*
X140797500Y-116391928D01*
X140644243Y-116407023D01*
X140496875Y-116451726D01*
X140440237Y-116482000D01*
X140173750Y-116482000D01*
X140015000Y-116640750D01*
X140011928Y-116650000D01*
X140024188Y-116774482D01*
X140060498Y-116894180D01*
X140064312Y-116901316D01*
X140027023Y-117024243D01*
X140011928Y-117177500D01*
X140011928Y-117472500D01*
X140027023Y-117625757D01*
X140071726Y-117773125D01*
X140144321Y-117908940D01*
X140210001Y-117988971D01*
X140210001Y-118101821D01*
X140023368Y-118226525D01*
X139816525Y-118433368D01*
X139700000Y-118607760D01*
X139583475Y-118433368D01*
X139376632Y-118226525D01*
X139190000Y-118101822D01*
X139190000Y-117988970D01*
X139255679Y-117908940D01*
X139328274Y-117773125D01*
X139372977Y-117625757D01*
X139388072Y-117472500D01*
X139388072Y-117177500D01*
X139372977Y-117024243D01*
X139335688Y-116901316D01*
X139339502Y-116894180D01*
X139375812Y-116774482D01*
X139388072Y-116650000D01*
X139385000Y-116640750D01*
X139226250Y-116482000D01*
X138959763Y-116482000D01*
X138903125Y-116451726D01*
X138755757Y-116407023D01*
X138602500Y-116391928D01*
X138283000Y-116391928D01*
X138283000Y-116228000D01*
X138303000Y-116228000D01*
X138303000Y-115583750D01*
X138557000Y-115583750D01*
X138557000Y-116228000D01*
X139226250Y-116228000D01*
X139385000Y-116069250D01*
X139388072Y-116060000D01*
X139375812Y-115935518D01*
X139339502Y-115815820D01*
X139280537Y-115705506D01*
X139201185Y-115608815D01*
X139104494Y-115529463D01*
X138994180Y-115470498D01*
X138874482Y-115434188D01*
X138750000Y-115421928D01*
X138715750Y-115425000D01*
X138557000Y-115583750D01*
X138303000Y-115583750D01*
X138144250Y-115425000D01*
X138110000Y-115421928D01*
X137985518Y-115434188D01*
X137865820Y-115470498D01*
X137829999Y-115489645D01*
X137829999Y-113115000D01*
X138981928Y-113115000D01*
X138994188Y-113239482D01*
X139030498Y-113359180D01*
X139089463Y-113469494D01*
X139168815Y-113566185D01*
X139265506Y-113645537D01*
X139375820Y-113704502D01*
X139495518Y-113740812D01*
X139620000Y-113753072D01*
X139734250Y-113750000D01*
X139893000Y-113591250D01*
X139893000Y-112792000D01*
X139143750Y-112792000D01*
X138985000Y-112950750D01*
X138981928Y-113115000D01*
X137829999Y-113115000D01*
X137829999Y-112215000D01*
X138981928Y-112215000D01*
X138985000Y-112379250D01*
X139143750Y-112538000D01*
X139893000Y-112538000D01*
X139893000Y-112518000D01*
X140147000Y-112518000D01*
X140147000Y-112538000D01*
X140167000Y-112538000D01*
X140167000Y-112792000D01*
X140147000Y-112792000D01*
X140147000Y-113591250D01*
X140210000Y-113654250D01*
X140210000Y-113688981D01*
X140118815Y-113763815D01*
X140039463Y-113860506D01*
X139980498Y-113970820D01*
X139944188Y-114090518D01*
X139931928Y-114215000D01*
X139931928Y-115115000D01*
X139944188Y-115239482D01*
X139980498Y-115359180D01*
X140039463Y-115469494D01*
X140118815Y-115566185D01*
X140187524Y-115622573D01*
X140119463Y-115705506D01*
X140060498Y-115815820D01*
X140024188Y-115935518D01*
X140011928Y-116060000D01*
X140015000Y-116069250D01*
X140173750Y-116228000D01*
X140843000Y-116228000D01*
X140843000Y-116208000D01*
X141097000Y-116208000D01*
X141097000Y-116228000D01*
X141766250Y-116228000D01*
X141925000Y-116069250D01*
X141928072Y-116060000D01*
X142551928Y-116060000D01*
X142555000Y-116069250D01*
X142713750Y-116228000D01*
X143383000Y-116228000D01*
X143383000Y-115583750D01*
X143637000Y-115583750D01*
X143637000Y-116228000D01*
X144306250Y-116228000D01*
X144465000Y-116069250D01*
X144468072Y-116060000D01*
X145091928Y-116060000D01*
X145095000Y-116069250D01*
X145253750Y-116228000D01*
X145923000Y-116228000D01*
X145923000Y-115583750D01*
X146177000Y-115583750D01*
X146177000Y-116228000D01*
X146846250Y-116228000D01*
X147005000Y-116069250D01*
X147008072Y-116060000D01*
X146995812Y-115935518D01*
X146959502Y-115815820D01*
X146900537Y-115705506D01*
X146821185Y-115608815D01*
X146724494Y-115529463D01*
X146614180Y-115470498D01*
X146494482Y-115434188D01*
X146370000Y-115421928D01*
X146335750Y-115425000D01*
X146177000Y-115583750D01*
X145923000Y-115583750D01*
X145764250Y-115425000D01*
X145730000Y-115421928D01*
X145605518Y-115434188D01*
X145485820Y-115470498D01*
X145375506Y-115529463D01*
X145278815Y-115608815D01*
X145199463Y-115705506D01*
X145140498Y-115815820D01*
X145104188Y-115935518D01*
X145091928Y-116060000D01*
X144468072Y-116060000D01*
X144455812Y-115935518D01*
X144419502Y-115815820D01*
X144360537Y-115705506D01*
X144281185Y-115608815D01*
X144184494Y-115529463D01*
X144074180Y-115470498D01*
X143954482Y-115434188D01*
X143830000Y-115421928D01*
X143795750Y-115425000D01*
X143637000Y-115583750D01*
X143383000Y-115583750D01*
X143224250Y-115425000D01*
X143190000Y-115421928D01*
X143065518Y-115434188D01*
X142945820Y-115470498D01*
X142835506Y-115529463D01*
X142738815Y-115608815D01*
X142659463Y-115705506D01*
X142600498Y-115815820D01*
X142564188Y-115935518D01*
X142551928Y-116060000D01*
X141928072Y-116060000D01*
X141915812Y-115935518D01*
X141879502Y-115815820D01*
X141820537Y-115705506D01*
X141752476Y-115622573D01*
X141821185Y-115566185D01*
X141900537Y-115469494D01*
X141959502Y-115359180D01*
X141995812Y-115239482D01*
X142008072Y-115115000D01*
X142008072Y-114215000D01*
X141995812Y-114090518D01*
X141959502Y-113970820D01*
X141900537Y-113860506D01*
X141821185Y-113763815D01*
X141808095Y-113753072D01*
X142320000Y-113753072D01*
X142444482Y-113740812D01*
X142564180Y-113704502D01*
X142674494Y-113645537D01*
X142675793Y-113644471D01*
X142706063Y-113689774D01*
X142850226Y-113833937D01*
X143019744Y-113947205D01*
X143208102Y-114025226D01*
X143408061Y-114065000D01*
X143611939Y-114065000D01*
X143811898Y-114025226D01*
X144000256Y-113947205D01*
X144169774Y-113833937D01*
X144313937Y-113689774D01*
X144427205Y-113520256D01*
X144505226Y-113331898D01*
X144545000Y-113131939D01*
X144545000Y-113115000D01*
X146601928Y-113115000D01*
X146614188Y-113239482D01*
X146650498Y-113359180D01*
X146709463Y-113469494D01*
X146788815Y-113566185D01*
X146885506Y-113645537D01*
X146995820Y-113704502D01*
X147115518Y-113740812D01*
X147240000Y-113753072D01*
X147354250Y-113750000D01*
X147513000Y-113591250D01*
X147513000Y-112792000D01*
X146763750Y-112792000D01*
X146605000Y-112950750D01*
X146601928Y-113115000D01*
X144545000Y-113115000D01*
X144545000Y-112928061D01*
X144505226Y-112728102D01*
X144427205Y-112539744D01*
X144313937Y-112370226D01*
X144169774Y-112226063D01*
X144153218Y-112215000D01*
X146601928Y-112215000D01*
X146605000Y-112379250D01*
X146763750Y-112538000D01*
X147513000Y-112538000D01*
X147513000Y-112518000D01*
X147767000Y-112518000D01*
X147767000Y-112538000D01*
X147787000Y-112538000D01*
X147787000Y-112792000D01*
X147767000Y-112792000D01*
X147767000Y-113591250D01*
X147830000Y-113654250D01*
X147830000Y-113688981D01*
X147738815Y-113763815D01*
X147659463Y-113860506D01*
X147600498Y-113970820D01*
X147564188Y-114090518D01*
X147551928Y-114215000D01*
X147551928Y-115115000D01*
X147564188Y-115239482D01*
X147600498Y-115359180D01*
X147659463Y-115469494D01*
X147738815Y-115566185D01*
X147835506Y-115645537D01*
X147945820Y-115704502D01*
X148065518Y-115740812D01*
X148190000Y-115753072D01*
X148990000Y-115753072D01*
X149114482Y-115740812D01*
X149234180Y-115704502D01*
X149344494Y-115645537D01*
X149441185Y-115566185D01*
X149520537Y-115469494D01*
X149579502Y-115359180D01*
X149615812Y-115239482D01*
X149628072Y-115115000D01*
X149628072Y-114215000D01*
X149615812Y-114090518D01*
X149579502Y-113970820D01*
X149520537Y-113860506D01*
X149441185Y-113763815D01*
X149428095Y-113753072D01*
X149940000Y-113753072D01*
X150064482Y-113740812D01*
X150184180Y-113704502D01*
X150294494Y-113645537D01*
X150295793Y-113644471D01*
X150326063Y-113689774D01*
X150470226Y-113833937D01*
X150639744Y-113947205D01*
X150828102Y-114025226D01*
X151028061Y-114065000D01*
X151231939Y-114065000D01*
X151431898Y-114025226D01*
X151620256Y-113947205D01*
X151789774Y-113833937D01*
X151933937Y-113689774D01*
X152047205Y-113520256D01*
X152125226Y-113331898D01*
X152165000Y-113131939D01*
X152165000Y-112928061D01*
X152125226Y-112728102D01*
X152047205Y-112539744D01*
X151933937Y-112370226D01*
X151789774Y-112226063D01*
X151620256Y-112112795D01*
X151431898Y-112034774D01*
X151231939Y-111995000D01*
X151123748Y-111995000D01*
X151057247Y-111959454D01*
X150913986Y-111915997D01*
X150802333Y-111905000D01*
X150802322Y-111905000D01*
X150765000Y-111901324D01*
X150727678Y-111905000D01*
X150494320Y-111905000D01*
X150470537Y-111860506D01*
X150391185Y-111763815D01*
X150368554Y-111745242D01*
X150387850Y-111709142D01*
X150436608Y-111548408D01*
X150453072Y-111381250D01*
X150453072Y-110890000D01*
X150596939Y-110890000D01*
X150796898Y-110850226D01*
X150985256Y-110772205D01*
X151154774Y-110658937D01*
X151298937Y-110514774D01*
X151412205Y-110345256D01*
X151490226Y-110156898D01*
X151530000Y-109956939D01*
X151530000Y-109753061D01*
X151490226Y-109553102D01*
X151412205Y-109364744D01*
X151298937Y-109195226D01*
X151154774Y-109051063D01*
X150985256Y-108937795D01*
X150796898Y-108859774D01*
X150596939Y-108820000D01*
X150393061Y-108820000D01*
X150193102Y-108859774D01*
X150004744Y-108937795D01*
X149835226Y-109051063D01*
X149791289Y-109095000D01*
X149738970Y-109095000D01*
X149658940Y-109029321D01*
X149523125Y-108956726D01*
X149375757Y-108912023D01*
X149222500Y-108896928D01*
X148927500Y-108896928D01*
X148774243Y-108912023D01*
X148626875Y-108956726D01*
X148590000Y-108976436D01*
X148553125Y-108956726D01*
X148405757Y-108912023D01*
X148252500Y-108896928D01*
X147957500Y-108896928D01*
X147804243Y-108912023D01*
X147656875Y-108956726D01*
X147521060Y-109029321D01*
X147402017Y-109127017D01*
X147304321Y-109246060D01*
X147231726Y-109381875D01*
X147187023Y-109529243D01*
X147171928Y-109682500D01*
X147171928Y-109727860D01*
X147167526Y-109733224D01*
X147096954Y-109865254D01*
X147053498Y-110008515D01*
X147038824Y-110157500D01*
X147042501Y-110194832D01*
X147042501Y-110209857D01*
X146977885Y-110262885D01*
X146871329Y-110392725D01*
X146792150Y-110540858D01*
X146743392Y-110701592D01*
X146726928Y-110868750D01*
X146726928Y-111381250D01*
X146743392Y-111548408D01*
X146792150Y-111709142D01*
X146811446Y-111745242D01*
X146788815Y-111763815D01*
X146709463Y-111860506D01*
X146650498Y-111970820D01*
X146614188Y-112090518D01*
X146601928Y-112215000D01*
X144153218Y-112215000D01*
X144000256Y-112112795D01*
X143811898Y-112034774D01*
X143611939Y-111995000D01*
X143503748Y-111995000D01*
X143437247Y-111959454D01*
X143293986Y-111915997D01*
X143182333Y-111905000D01*
X143182322Y-111905000D01*
X143145000Y-111901324D01*
X143107678Y-111905000D01*
X142874320Y-111905000D01*
X142850537Y-111860506D01*
X142771185Y-111763815D01*
X142748554Y-111745242D01*
X142767850Y-111709142D01*
X142816608Y-111548408D01*
X142833072Y-111381250D01*
X142833072Y-110890000D01*
X142976939Y-110890000D01*
X143176898Y-110850226D01*
X143365256Y-110772205D01*
X143534774Y-110658937D01*
X143678937Y-110514774D01*
X143792205Y-110345256D01*
X143870226Y-110156898D01*
X143910000Y-109956939D01*
X143910000Y-109753061D01*
X143870226Y-109553102D01*
X143792205Y-109364744D01*
X143678937Y-109195226D01*
X143534774Y-109051063D01*
X143365256Y-108937795D01*
X143176898Y-108859774D01*
X142976939Y-108820000D01*
X142773061Y-108820000D01*
X142573102Y-108859774D01*
X142384744Y-108937795D01*
X142215226Y-109051063D01*
X142171289Y-109095000D01*
X142118970Y-109095000D01*
X142038940Y-109029321D01*
X141903125Y-108956726D01*
X141755757Y-108912023D01*
X141602500Y-108896928D01*
X141307500Y-108896928D01*
X141154243Y-108912023D01*
X141006875Y-108956726D01*
X140970000Y-108976436D01*
X140933125Y-108956726D01*
X140785757Y-108912023D01*
X140632500Y-108896928D01*
X140337500Y-108896928D01*
X140184243Y-108912023D01*
X140036875Y-108956726D01*
X139901060Y-109029321D01*
X139782017Y-109127017D01*
X139684321Y-109246060D01*
X139611726Y-109381875D01*
X139567023Y-109529243D01*
X139551928Y-109682500D01*
X139551928Y-109727860D01*
X139547526Y-109733224D01*
X139476954Y-109865254D01*
X139433498Y-110008515D01*
X139418824Y-110157500D01*
X139422501Y-110194832D01*
X139422501Y-110209857D01*
X139357885Y-110262885D01*
X139251329Y-110392725D01*
X139172150Y-110540858D01*
X139123392Y-110701592D01*
X139106928Y-110868750D01*
X139106928Y-111381250D01*
X139123392Y-111548408D01*
X139172150Y-111709142D01*
X139191446Y-111745242D01*
X139168815Y-111763815D01*
X139089463Y-111860506D01*
X139030498Y-111970820D01*
X138994188Y-112090518D01*
X138981928Y-112215000D01*
X137829999Y-112215000D01*
X137829999Y-107216212D01*
X138241212Y-106805000D01*
X144742678Y-106805000D01*
X144780000Y-106808676D01*
X144817322Y-106805000D01*
X144817333Y-106805000D01*
X144928986Y-106794003D01*
X145072247Y-106750546D01*
X145204276Y-106679974D01*
X145320001Y-106585001D01*
X145343804Y-106555998D01*
X145771729Y-106128072D01*
X146740000Y-106128072D01*
X146864482Y-106115812D01*
X146984180Y-106079502D01*
X147094494Y-106020537D01*
X147191185Y-105941185D01*
X147270537Y-105844494D01*
X147321046Y-105750000D01*
X149858954Y-105750000D01*
X149909463Y-105844494D01*
X149988815Y-105941185D01*
X150085506Y-106020537D01*
X150195820Y-106079502D01*
X150315518Y-106115812D01*
X150440000Y-106128072D01*
X151990000Y-106128072D01*
X152114482Y-106115812D01*
X152234180Y-106079502D01*
X152344494Y-106020537D01*
X152441185Y-105941185D01*
X152520537Y-105844494D01*
X152579502Y-105734180D01*
X152615812Y-105614482D01*
X152628072Y-105490000D01*
X152628072Y-104490000D01*
X152615812Y-104365518D01*
X152579502Y-104245820D01*
X152522939Y-104140000D01*
X152579502Y-104034180D01*
X152615812Y-103914482D01*
X152628072Y-103790000D01*
X152628072Y-102790000D01*
X152615812Y-102665518D01*
X152579502Y-102545820D01*
X152520537Y-102435506D01*
X152441185Y-102338815D01*
X152345148Y-102260000D01*
X152367721Y-102260000D01*
X152517869Y-102274722D01*
G37*
X152517869Y-102274722D02*
X152631246Y-102308953D01*
X152735819Y-102364555D01*
X152827596Y-102439407D01*
X152903091Y-102530664D01*
X152959419Y-102634844D01*
X152994440Y-102747976D01*
X153010001Y-102896031D01*
X153010000Y-119347721D01*
X152995278Y-119497869D01*
X152961047Y-119611246D01*
X152905446Y-119715817D01*
X152830594Y-119807595D01*
X152739335Y-119883091D01*
X152635160Y-119939419D01*
X152522024Y-119974440D01*
X152373979Y-119990000D01*
X149941696Y-119990000D01*
X150031481Y-119736891D01*
X149910814Y-119507000D01*
X148717000Y-119507000D01*
X148717000Y-119527000D01*
X148463000Y-119527000D01*
X148463000Y-119507000D01*
X148443000Y-119507000D01*
X148443000Y-119253000D01*
X148463000Y-119253000D01*
X148463000Y-118059845D01*
X148717000Y-118059845D01*
X148717000Y-119253000D01*
X149910814Y-119253000D01*
X150031481Y-119023109D01*
X149934157Y-118748748D01*
X149785178Y-118498645D01*
X149590269Y-118282412D01*
X149356920Y-118108359D01*
X149094099Y-117983175D01*
X148946890Y-117938524D01*
X148717000Y-118059845D01*
X148463000Y-118059845D01*
X148233110Y-117938524D01*
X148085901Y-117983175D01*
X147823080Y-118108359D01*
X147589731Y-118282412D01*
X147394822Y-118498645D01*
X147325195Y-118615534D01*
X147203475Y-118433368D01*
X146996632Y-118226525D01*
X146810000Y-118101822D01*
X146810000Y-117988970D01*
X146875679Y-117908940D01*
X146948274Y-117773125D01*
X146992977Y-117625757D01*
X147008072Y-117472500D01*
X147008072Y-117177500D01*
X146992977Y-117024243D01*
X146955688Y-116901316D01*
X146959502Y-116894180D01*
X146995812Y-116774482D01*
X147008072Y-116650000D01*
X147005000Y-116640750D01*
X146846250Y-116482000D01*
X146579763Y-116482000D01*
X146523125Y-116451726D01*
X146375757Y-116407023D01*
X146222500Y-116391928D01*
X145877500Y-116391928D01*
X145724243Y-116407023D01*
X145576875Y-116451726D01*
X145520237Y-116482000D01*
X145253750Y-116482000D01*
X145095000Y-116640750D01*
X145091928Y-116650000D01*
X145104188Y-116774482D01*
X145140498Y-116894180D01*
X145144312Y-116901316D01*
X145107023Y-117024243D01*
X145091928Y-117177500D01*
X145091928Y-117472500D01*
X145107023Y-117625757D01*
X145151726Y-117773125D01*
X145224321Y-117908940D01*
X145290001Y-117988971D01*
X145290001Y-118101821D01*
X145103368Y-118226525D01*
X144896525Y-118433368D01*
X144780000Y-118607760D01*
X144663475Y-118433368D01*
X144456632Y-118226525D01*
X144270000Y-118101822D01*
X144270000Y-117988970D01*
X144335679Y-117908940D01*
X144408274Y-117773125D01*
X144452977Y-117625757D01*
X144468072Y-117472500D01*
X144468072Y-117177500D01*
X144452977Y-117024243D01*
X144415688Y-116901316D01*
X144419502Y-116894180D01*
X144455812Y-116774482D01*
X144468072Y-116650000D01*
X144465000Y-116640750D01*
X144306250Y-116482000D01*
X144039763Y-116482000D01*
X143983125Y-116451726D01*
X143835757Y-116407023D01*
X143682500Y-116391928D01*
X143337500Y-116391928D01*
X143184243Y-116407023D01*
X143036875Y-116451726D01*
X142980237Y-116482000D01*
X142713750Y-116482000D01*
X142555000Y-116640750D01*
X142551928Y-116650000D01*
X142564188Y-116774482D01*
X142600498Y-116894180D01*
X142604312Y-116901316D01*
X142567023Y-117024243D01*
X142551928Y-117177500D01*
X142551928Y-117472500D01*
X142567023Y-117625757D01*
X142611726Y-117773125D01*
X142684321Y-117908940D01*
X142750001Y-117988971D01*
X142750001Y-118101821D01*
X142563368Y-118226525D01*
X142356525Y-118433368D01*
X142240000Y-118607760D01*
X142123475Y-118433368D01*
X141916632Y-118226525D01*
X141730000Y-118101822D01*
X141730000Y-117988970D01*
X141795679Y-117908940D01*
X141868274Y-117773125D01*
X141912977Y-117625757D01*
X141928072Y-117472500D01*
X141928072Y-117177500D01*
X141912977Y-117024243D01*
X141875688Y-116901316D01*
X141879502Y-116894180D01*
X141915812Y-116774482D01*
X141928072Y-116650000D01*
X141925000Y-116640750D01*
X141766250Y-116482000D01*
X141499763Y-116482000D01*
X141443125Y-116451726D01*
X141295757Y-116407023D01*
X141142500Y-116391928D01*
X140797500Y-116391928D01*
X140644243Y-116407023D01*
X140496875Y-116451726D01*
X140440237Y-116482000D01*
X140173750Y-116482000D01*
X140015000Y-116640750D01*
X140011928Y-116650000D01*
X140024188Y-116774482D01*
X140060498Y-116894180D01*
X140064312Y-116901316D01*
X140027023Y-117024243D01*
X140011928Y-117177500D01*
X140011928Y-117472500D01*
X140027023Y-117625757D01*
X140071726Y-117773125D01*
X140144321Y-117908940D01*
X140210001Y-117988971D01*
X140210001Y-118101821D01*
X140023368Y-118226525D01*
X139816525Y-118433368D01*
X139700000Y-118607760D01*
X139583475Y-118433368D01*
X139376632Y-118226525D01*
X139190000Y-118101822D01*
X139190000Y-117988970D01*
X139255679Y-117908940D01*
X139328274Y-117773125D01*
X139372977Y-117625757D01*
X139388072Y-117472500D01*
X139388072Y-117177500D01*
X139372977Y-117024243D01*
X139335688Y-116901316D01*
X139339502Y-116894180D01*
X139375812Y-116774482D01*
X139388072Y-116650000D01*
X139385000Y-116640750D01*
X139226250Y-116482000D01*
X138959763Y-116482000D01*
X138903125Y-116451726D01*
X138755757Y-116407023D01*
X138602500Y-116391928D01*
X138283000Y-116391928D01*
X138283000Y-116228000D01*
X138303000Y-116228000D01*
X138303000Y-115583750D01*
X138557000Y-115583750D01*
X138557000Y-116228000D01*
X139226250Y-116228000D01*
X139385000Y-116069250D01*
X139388072Y-116060000D01*
X139375812Y-115935518D01*
X139339502Y-115815820D01*
X139280537Y-115705506D01*
X139201185Y-115608815D01*
X139104494Y-115529463D01*
X138994180Y-115470498D01*
X138874482Y-115434188D01*
X138750000Y-115421928D01*
X138715750Y-115425000D01*
X138557000Y-115583750D01*
X138303000Y-115583750D01*
X138144250Y-115425000D01*
X138110000Y-115421928D01*
X137985518Y-115434188D01*
X137865820Y-115470498D01*
X137829999Y-115489645D01*
X137829999Y-113115000D01*
X138981928Y-113115000D01*
X138994188Y-113239482D01*
X139030498Y-113359180D01*
X139089463Y-113469494D01*
X139168815Y-113566185D01*
X139265506Y-113645537D01*
X139375820Y-113704502D01*
X139495518Y-113740812D01*
X139620000Y-113753072D01*
X139734250Y-113750000D01*
X139893000Y-113591250D01*
X139893000Y-112792000D01*
X139143750Y-112792000D01*
X138985000Y-112950750D01*
X138981928Y-113115000D01*
X137829999Y-113115000D01*
X137829999Y-112215000D01*
X138981928Y-112215000D01*
X138985000Y-112379250D01*
X139143750Y-112538000D01*
X139893000Y-112538000D01*
X139893000Y-112518000D01*
X140147000Y-112518000D01*
X140147000Y-112538000D01*
X140167000Y-112538000D01*
X140167000Y-112792000D01*
X140147000Y-112792000D01*
X140147000Y-113591250D01*
X140210000Y-113654250D01*
X140210000Y-113688981D01*
X140118815Y-113763815D01*
X140039463Y-113860506D01*
X139980498Y-113970820D01*
X139944188Y-114090518D01*
X139931928Y-114215000D01*
X139931928Y-115115000D01*
X139944188Y-115239482D01*
X139980498Y-115359180D01*
X140039463Y-115469494D01*
X140118815Y-115566185D01*
X140187524Y-115622573D01*
X140119463Y-115705506D01*
X140060498Y-115815820D01*
X140024188Y-115935518D01*
X140011928Y-116060000D01*
X140015000Y-116069250D01*
X140173750Y-116228000D01*
X140843000Y-116228000D01*
X140843000Y-116208000D01*
X141097000Y-116208000D01*
X141097000Y-116228000D01*
X141766250Y-116228000D01*
X141925000Y-116069250D01*
X141928072Y-116060000D01*
X142551928Y-116060000D01*
X142555000Y-116069250D01*
X142713750Y-116228000D01*
X143383000Y-116228000D01*
X143383000Y-115583750D01*
X143637000Y-115583750D01*
X143637000Y-116228000D01*
X144306250Y-116228000D01*
X144465000Y-116069250D01*
X144468072Y-116060000D01*
X145091928Y-116060000D01*
X145095000Y-116069250D01*
X145253750Y-116228000D01*
X145923000Y-116228000D01*
X145923000Y-115583750D01*
X146177000Y-115583750D01*
X146177000Y-116228000D01*
X146846250Y-116228000D01*
X147005000Y-116069250D01*
X147008072Y-116060000D01*
X146995812Y-115935518D01*
X146959502Y-115815820D01*
X146900537Y-115705506D01*
X146821185Y-115608815D01*
X146724494Y-115529463D01*
X146614180Y-115470498D01*
X146494482Y-115434188D01*
X146370000Y-115421928D01*
X146335750Y-115425000D01*
X146177000Y-115583750D01*
X145923000Y-115583750D01*
X145764250Y-115425000D01*
X145730000Y-115421928D01*
X145605518Y-115434188D01*
X145485820Y-115470498D01*
X145375506Y-115529463D01*
X145278815Y-115608815D01*
X145199463Y-115705506D01*
X145140498Y-115815820D01*
X145104188Y-115935518D01*
X145091928Y-116060000D01*
X144468072Y-116060000D01*
X144455812Y-115935518D01*
X144419502Y-115815820D01*
X144360537Y-115705506D01*
X144281185Y-115608815D01*
X144184494Y-115529463D01*
X144074180Y-115470498D01*
X143954482Y-115434188D01*
X143830000Y-115421928D01*
X143795750Y-115425000D01*
X143637000Y-115583750D01*
X143383000Y-115583750D01*
X143224250Y-115425000D01*
X143190000Y-115421928D01*
X143065518Y-115434188D01*
X142945820Y-115470498D01*
X142835506Y-115529463D01*
X142738815Y-115608815D01*
X142659463Y-115705506D01*
X142600498Y-115815820D01*
X142564188Y-115935518D01*
X142551928Y-116060000D01*
X141928072Y-116060000D01*
X141915812Y-115935518D01*
X141879502Y-115815820D01*
X141820537Y-115705506D01*
X141752476Y-115622573D01*
X141821185Y-115566185D01*
X141900537Y-115469494D01*
X141959502Y-115359180D01*
X141995812Y-115239482D01*
X142008072Y-115115000D01*
X142008072Y-114215000D01*
X141995812Y-114090518D01*
X141959502Y-113970820D01*
X141900537Y-113860506D01*
X141821185Y-113763815D01*
X141808095Y-113753072D01*
X142320000Y-113753072D01*
X142444482Y-113740812D01*
X142564180Y-113704502D01*
X142674494Y-113645537D01*
X142675793Y-113644471D01*
X142706063Y-113689774D01*
X142850226Y-113833937D01*
X143019744Y-113947205D01*
X143208102Y-114025226D01*
X143408061Y-114065000D01*
X143611939Y-114065000D01*
X143811898Y-114025226D01*
X144000256Y-113947205D01*
X144169774Y-113833937D01*
X144313937Y-113689774D01*
X144427205Y-113520256D01*
X144505226Y-113331898D01*
X144545000Y-113131939D01*
X144545000Y-113115000D01*
X146601928Y-113115000D01*
X146614188Y-113239482D01*
X146650498Y-113359180D01*
X146709463Y-113469494D01*
X146788815Y-113566185D01*
X146885506Y-113645537D01*
X146995820Y-113704502D01*
X147115518Y-113740812D01*
X147240000Y-113753072D01*
X147354250Y-113750000D01*
X147513000Y-113591250D01*
X147513000Y-112792000D01*
X146763750Y-112792000D01*
X146605000Y-112950750D01*
X146601928Y-113115000D01*
X144545000Y-113115000D01*
X144545000Y-112928061D01*
X144505226Y-112728102D01*
X144427205Y-112539744D01*
X144313937Y-112370226D01*
X144169774Y-112226063D01*
X144153218Y-112215000D01*
X146601928Y-112215000D01*
X146605000Y-112379250D01*
X146763750Y-112538000D01*
X147513000Y-112538000D01*
X147513000Y-112518000D01*
X147767000Y-112518000D01*
X147767000Y-112538000D01*
X147787000Y-112538000D01*
X147787000Y-112792000D01*
X147767000Y-112792000D01*
X147767000Y-113591250D01*
X147830000Y-113654250D01*
X147830000Y-113688981D01*
X147738815Y-113763815D01*
X147659463Y-113860506D01*
X147600498Y-113970820D01*
X147564188Y-114090518D01*
X147551928Y-114215000D01*
X147551928Y-115115000D01*
X147564188Y-115239482D01*
X147600498Y-115359180D01*
X147659463Y-115469494D01*
X147738815Y-115566185D01*
X147835506Y-115645537D01*
X147945820Y-115704502D01*
X148065518Y-115740812D01*
X148190000Y-115753072D01*
X148990000Y-115753072D01*
X149114482Y-115740812D01*
X149234180Y-115704502D01*
X149344494Y-115645537D01*
X149441185Y-115566185D01*
X149520537Y-115469494D01*
X149579502Y-115359180D01*
X149615812Y-115239482D01*
X149628072Y-115115000D01*
X149628072Y-114215000D01*
X149615812Y-114090518D01*
X149579502Y-113970820D01*
X149520537Y-113860506D01*
X149441185Y-113763815D01*
X149428095Y-113753072D01*
X149940000Y-113753072D01*
X150064482Y-113740812D01*
X150184180Y-113704502D01*
X150294494Y-113645537D01*
X150295793Y-113644471D01*
X150326063Y-113689774D01*
X150470226Y-113833937D01*
X150639744Y-113947205D01*
X150828102Y-114025226D01*
X151028061Y-114065000D01*
X151231939Y-114065000D01*
X151431898Y-114025226D01*
X151620256Y-113947205D01*
X151789774Y-113833937D01*
X151933937Y-113689774D01*
X152047205Y-113520256D01*
X152125226Y-113331898D01*
X152165000Y-113131939D01*
X152165000Y-112928061D01*
X152125226Y-112728102D01*
X152047205Y-112539744D01*
X151933937Y-112370226D01*
X151789774Y-112226063D01*
X151620256Y-112112795D01*
X151431898Y-112034774D01*
X151231939Y-111995000D01*
X151123748Y-111995000D01*
X151057247Y-111959454D01*
X150913986Y-111915997D01*
X150802333Y-111905000D01*
X150802322Y-111905000D01*
X150765000Y-111901324D01*
X150727678Y-111905000D01*
X150494320Y-111905000D01*
X150470537Y-111860506D01*
X150391185Y-111763815D01*
X150368554Y-111745242D01*
X150387850Y-111709142D01*
X150436608Y-111548408D01*
X150453072Y-111381250D01*
X150453072Y-110890000D01*
X150596939Y-110890000D01*
X150796898Y-110850226D01*
X150985256Y-110772205D01*
X151154774Y-110658937D01*
X151298937Y-110514774D01*
X151412205Y-110345256D01*
X151490226Y-110156898D01*
X151530000Y-109956939D01*
X151530000Y-109753061D01*
X151490226Y-109553102D01*
X151412205Y-109364744D01*
X151298937Y-109195226D01*
X151154774Y-109051063D01*
X150985256Y-108937795D01*
X150796898Y-108859774D01*
X150596939Y-108820000D01*
X150393061Y-108820000D01*
X150193102Y-108859774D01*
X150004744Y-108937795D01*
X149835226Y-109051063D01*
X149791289Y-109095000D01*
X149738970Y-109095000D01*
X149658940Y-109029321D01*
X149523125Y-108956726D01*
X149375757Y-108912023D01*
X149222500Y-108896928D01*
X148927500Y-108896928D01*
X148774243Y-108912023D01*
X148626875Y-108956726D01*
X148590000Y-108976436D01*
X148553125Y-108956726D01*
X148405757Y-108912023D01*
X148252500Y-108896928D01*
X147957500Y-108896928D01*
X147804243Y-108912023D01*
X147656875Y-108956726D01*
X147521060Y-109029321D01*
X147402017Y-109127017D01*
X147304321Y-109246060D01*
X147231726Y-109381875D01*
X147187023Y-109529243D01*
X147171928Y-109682500D01*
X147171928Y-109727860D01*
X147167526Y-109733224D01*
X147096954Y-109865254D01*
X147053498Y-110008515D01*
X147038824Y-110157500D01*
X147042501Y-110194832D01*
X147042501Y-110209857D01*
X146977885Y-110262885D01*
X146871329Y-110392725D01*
X146792150Y-110540858D01*
X146743392Y-110701592D01*
X146726928Y-110868750D01*
X146726928Y-111381250D01*
X146743392Y-111548408D01*
X146792150Y-111709142D01*
X146811446Y-111745242D01*
X146788815Y-111763815D01*
X146709463Y-111860506D01*
X146650498Y-111970820D01*
X146614188Y-112090518D01*
X146601928Y-112215000D01*
X144153218Y-112215000D01*
X144000256Y-112112795D01*
X143811898Y-112034774D01*
X143611939Y-111995000D01*
X143503748Y-111995000D01*
X143437247Y-111959454D01*
X143293986Y-111915997D01*
X143182333Y-111905000D01*
X143182322Y-111905000D01*
X143145000Y-111901324D01*
X143107678Y-111905000D01*
X142874320Y-111905000D01*
X142850537Y-111860506D01*
X142771185Y-111763815D01*
X142748554Y-111745242D01*
X142767850Y-111709142D01*
X142816608Y-111548408D01*
X142833072Y-111381250D01*
X142833072Y-110890000D01*
X142976939Y-110890000D01*
X143176898Y-110850226D01*
X143365256Y-110772205D01*
X143534774Y-110658937D01*
X143678937Y-110514774D01*
X143792205Y-110345256D01*
X143870226Y-110156898D01*
X143910000Y-109956939D01*
X143910000Y-109753061D01*
X143870226Y-109553102D01*
X143792205Y-109364744D01*
X143678937Y-109195226D01*
X143534774Y-109051063D01*
X143365256Y-108937795D01*
X143176898Y-108859774D01*
X142976939Y-108820000D01*
X142773061Y-108820000D01*
X142573102Y-108859774D01*
X142384744Y-108937795D01*
X142215226Y-109051063D01*
X142171289Y-109095000D01*
X142118970Y-109095000D01*
X142038940Y-109029321D01*
X141903125Y-108956726D01*
X141755757Y-108912023D01*
X141602500Y-108896928D01*
X141307500Y-108896928D01*
X141154243Y-108912023D01*
X141006875Y-108956726D01*
X140970000Y-108976436D01*
X140933125Y-108956726D01*
X140785757Y-108912023D01*
X140632500Y-108896928D01*
X140337500Y-108896928D01*
X140184243Y-108912023D01*
X140036875Y-108956726D01*
X139901060Y-109029321D01*
X139782017Y-109127017D01*
X139684321Y-109246060D01*
X139611726Y-109381875D01*
X139567023Y-109529243D01*
X139551928Y-109682500D01*
X139551928Y-109727860D01*
X139547526Y-109733224D01*
X139476954Y-109865254D01*
X139433498Y-110008515D01*
X139418824Y-110157500D01*
X139422501Y-110194832D01*
X139422501Y-110209857D01*
X139357885Y-110262885D01*
X139251329Y-110392725D01*
X139172150Y-110540858D01*
X139123392Y-110701592D01*
X139106928Y-110868750D01*
X139106928Y-111381250D01*
X139123392Y-111548408D01*
X139172150Y-111709142D01*
X139191446Y-111745242D01*
X139168815Y-111763815D01*
X139089463Y-111860506D01*
X139030498Y-111970820D01*
X138994188Y-112090518D01*
X138981928Y-112215000D01*
X137829999Y-112215000D01*
X137829999Y-107216212D01*
X138241212Y-106805000D01*
X144742678Y-106805000D01*
X144780000Y-106808676D01*
X144817322Y-106805000D01*
X144817333Y-106805000D01*
X144928986Y-106794003D01*
X145072247Y-106750546D01*
X145204276Y-106679974D01*
X145320001Y-106585001D01*
X145343804Y-106555998D01*
X145771729Y-106128072D01*
X146740000Y-106128072D01*
X146864482Y-106115812D01*
X146984180Y-106079502D01*
X147094494Y-106020537D01*
X147191185Y-105941185D01*
X147270537Y-105844494D01*
X147321046Y-105750000D01*
X149858954Y-105750000D01*
X149909463Y-105844494D01*
X149988815Y-105941185D01*
X150085506Y-106020537D01*
X150195820Y-106079502D01*
X150315518Y-106115812D01*
X150440000Y-106128072D01*
X151990000Y-106128072D01*
X152114482Y-106115812D01*
X152234180Y-106079502D01*
X152344494Y-106020537D01*
X152441185Y-105941185D01*
X152520537Y-105844494D01*
X152579502Y-105734180D01*
X152615812Y-105614482D01*
X152628072Y-105490000D01*
X152628072Y-104490000D01*
X152615812Y-104365518D01*
X152579502Y-104245820D01*
X152522939Y-104140000D01*
X152579502Y-104034180D01*
X152615812Y-103914482D01*
X152628072Y-103790000D01*
X152628072Y-102790000D01*
X152615812Y-102665518D01*
X152579502Y-102545820D01*
X152520537Y-102435506D01*
X152441185Y-102338815D01*
X152345148Y-102260000D01*
X152367721Y-102260000D01*
X152517869Y-102274722D01*
G36*
X134669463Y-105844494D02*
G01*
X134748815Y-105941185D01*
X134845506Y-106020537D01*
X134955820Y-106079502D01*
X135075518Y-106115812D01*
X135200000Y-106128072D01*
X135999532Y-106128072D01*
X135984999Y-106139999D01*
X135929871Y-106207174D01*
X135890026Y-106255724D01*
X135846451Y-106337246D01*
X135819454Y-106387754D01*
X135775997Y-106531015D01*
X135765000Y-106642668D01*
X135765000Y-106642678D01*
X135761324Y-106680000D01*
X135765000Y-106717323D01*
X135765000Y-108950988D01*
X135745256Y-108937795D01*
X135556898Y-108859774D01*
X135356939Y-108820000D01*
X135153061Y-108820000D01*
X134953102Y-108859774D01*
X134764744Y-108937795D01*
X134595226Y-109051063D01*
X134551289Y-109095000D01*
X134498970Y-109095000D01*
X134418940Y-109029321D01*
X134283125Y-108956726D01*
X134135757Y-108912023D01*
X133982500Y-108896928D01*
X133687500Y-108896928D01*
X133534243Y-108912023D01*
X133386875Y-108956726D01*
X133350000Y-108976436D01*
X133313125Y-108956726D01*
X133165757Y-108912023D01*
X133012500Y-108896928D01*
X132717500Y-108896928D01*
X132564243Y-108912023D01*
X132416875Y-108956726D01*
X132281060Y-109029321D01*
X132162017Y-109127017D01*
X132064321Y-109246060D01*
X131991726Y-109381875D01*
X131947023Y-109529243D01*
X131931928Y-109682500D01*
X131931928Y-109727860D01*
X131927526Y-109733224D01*
X131856954Y-109865254D01*
X131813498Y-110008515D01*
X131798824Y-110157500D01*
X131802501Y-110194832D01*
X131802501Y-110209857D01*
X131737885Y-110262885D01*
X131631329Y-110392725D01*
X131552150Y-110540858D01*
X131503392Y-110701592D01*
X131486928Y-110868750D01*
X131486928Y-111381250D01*
X131503392Y-111548408D01*
X131552150Y-111709142D01*
X131571446Y-111745242D01*
X131548815Y-111763815D01*
X131469463Y-111860506D01*
X131410498Y-111970820D01*
X131374188Y-112090518D01*
X131361928Y-112215000D01*
X131365000Y-112379250D01*
X131523750Y-112538000D01*
X132273000Y-112538000D01*
X132273000Y-112518000D01*
X132527000Y-112518000D01*
X132527000Y-112538000D01*
X132547000Y-112538000D01*
X132547000Y-112792000D01*
X132527000Y-112792000D01*
X132527000Y-113591250D01*
X132590000Y-113654250D01*
X132590000Y-113688981D01*
X132498815Y-113763815D01*
X132419463Y-113860506D01*
X132360498Y-113970820D01*
X132324188Y-114090518D01*
X132311928Y-114215000D01*
X132311928Y-115115000D01*
X132324188Y-115239482D01*
X132360498Y-115359180D01*
X132419463Y-115469494D01*
X132498815Y-115566185D01*
X132567524Y-115622573D01*
X132499463Y-115705506D01*
X132440498Y-115815820D01*
X132404188Y-115935518D01*
X132391928Y-116060000D01*
X132395000Y-116069250D01*
X132553750Y-116228000D01*
X133223000Y-116228000D01*
X133223000Y-116208000D01*
X133232615Y-116208000D01*
X133235010Y-116232312D01*
X133235010Y-116391928D01*
X133177500Y-116391928D01*
X133024243Y-116407023D01*
X132876875Y-116451726D01*
X132820237Y-116482000D01*
X132553750Y-116482000D01*
X132395000Y-116640750D01*
X132391928Y-116650000D01*
X132404188Y-116774482D01*
X132440498Y-116894180D01*
X132444312Y-116901316D01*
X132407023Y-117024243D01*
X132391928Y-117177500D01*
X132391928Y-117472500D01*
X132407023Y-117625757D01*
X132451726Y-117773125D01*
X132524321Y-117908940D01*
X132590001Y-117988971D01*
X132590001Y-118101821D01*
X132403368Y-118226525D01*
X132196525Y-118433368D01*
X132080000Y-118607760D01*
X131963475Y-118433368D01*
X131756632Y-118226525D01*
X131570000Y-118101822D01*
X131570000Y-117988970D01*
X131635679Y-117908940D01*
X131708274Y-117773125D01*
X131752977Y-117625757D01*
X131768072Y-117472500D01*
X131768072Y-117177500D01*
X131752977Y-117024243D01*
X131715688Y-116901316D01*
X131719502Y-116894180D01*
X131755812Y-116774482D01*
X131768072Y-116650000D01*
X131765000Y-116640750D01*
X131606250Y-116482000D01*
X131339763Y-116482000D01*
X131283125Y-116451726D01*
X131135757Y-116407023D01*
X130982500Y-116391928D01*
X130933497Y-116391928D01*
X130924990Y-116383421D01*
X130924990Y-116208000D01*
X130937000Y-116208000D01*
X130937000Y-116228000D01*
X131606250Y-116228000D01*
X131765000Y-116069250D01*
X131768072Y-116060000D01*
X131755812Y-115935518D01*
X131719502Y-115815820D01*
X131660537Y-115705506D01*
X131581185Y-115608815D01*
X131484494Y-115529463D01*
X131374180Y-115470498D01*
X131254482Y-115434188D01*
X131130000Y-115421928D01*
X131095750Y-115425000D01*
X130937002Y-115583748D01*
X130937002Y-115425000D01*
X130924990Y-115425000D01*
X130924990Y-113115000D01*
X131361928Y-113115000D01*
X131374188Y-113239482D01*
X131410498Y-113359180D01*
X131469463Y-113469494D01*
X131548815Y-113566185D01*
X131645506Y-113645537D01*
X131755820Y-113704502D01*
X131875518Y-113740812D01*
X132000000Y-113753072D01*
X132114250Y-113750000D01*
X132273000Y-113591250D01*
X132273000Y-112792000D01*
X131523750Y-112792000D01*
X131365000Y-112950750D01*
X131361928Y-113115000D01*
X130924990Y-113115000D01*
X130924990Y-106128072D01*
X131500000Y-106128072D01*
X131624482Y-106115812D01*
X131744180Y-106079502D01*
X131854494Y-106020537D01*
X131951185Y-105941185D01*
X132030537Y-105844494D01*
X132081046Y-105750000D01*
X134618954Y-105750000D01*
X134669463Y-105844494D01*
G37*
X134669463Y-105844494D02*
X134748815Y-105941185D01*
X134845506Y-106020537D01*
X134955820Y-106079502D01*
X135075518Y-106115812D01*
X135200000Y-106128072D01*
X135999532Y-106128072D01*
X135984999Y-106139999D01*
X135929871Y-106207174D01*
X135890026Y-106255724D01*
X135846451Y-106337246D01*
X135819454Y-106387754D01*
X135775997Y-106531015D01*
X135765000Y-106642668D01*
X135765000Y-106642678D01*
X135761324Y-106680000D01*
X135765000Y-106717323D01*
X135765000Y-108950988D01*
X135745256Y-108937795D01*
X135556898Y-108859774D01*
X135356939Y-108820000D01*
X135153061Y-108820000D01*
X134953102Y-108859774D01*
X134764744Y-108937795D01*
X134595226Y-109051063D01*
X134551289Y-109095000D01*
X134498970Y-109095000D01*
X134418940Y-109029321D01*
X134283125Y-108956726D01*
X134135757Y-108912023D01*
X133982500Y-108896928D01*
X133687500Y-108896928D01*
X133534243Y-108912023D01*
X133386875Y-108956726D01*
X133350000Y-108976436D01*
X133313125Y-108956726D01*
X133165757Y-108912023D01*
X133012500Y-108896928D01*
X132717500Y-108896928D01*
X132564243Y-108912023D01*
X132416875Y-108956726D01*
X132281060Y-109029321D01*
X132162017Y-109127017D01*
X132064321Y-109246060D01*
X131991726Y-109381875D01*
X131947023Y-109529243D01*
X131931928Y-109682500D01*
X131931928Y-109727860D01*
X131927526Y-109733224D01*
X131856954Y-109865254D01*
X131813498Y-110008515D01*
X131798824Y-110157500D01*
X131802501Y-110194832D01*
X131802501Y-110209857D01*
X131737885Y-110262885D01*
X131631329Y-110392725D01*
X131552150Y-110540858D01*
X131503392Y-110701592D01*
X131486928Y-110868750D01*
X131486928Y-111381250D01*
X131503392Y-111548408D01*
X131552150Y-111709142D01*
X131571446Y-111745242D01*
X131548815Y-111763815D01*
X131469463Y-111860506D01*
X131410498Y-111970820D01*
X131374188Y-112090518D01*
X131361928Y-112215000D01*
X131365000Y-112379250D01*
X131523750Y-112538000D01*
X132273000Y-112538000D01*
X132273000Y-112518000D01*
X132527000Y-112518000D01*
X132527000Y-112538000D01*
X132547000Y-112538000D01*
X132547000Y-112792000D01*
X132527000Y-112792000D01*
X132527000Y-113591250D01*
X132590000Y-113654250D01*
X132590000Y-113688981D01*
X132498815Y-113763815D01*
X132419463Y-113860506D01*
X132360498Y-113970820D01*
X132324188Y-114090518D01*
X132311928Y-114215000D01*
X132311928Y-115115000D01*
X132324188Y-115239482D01*
X132360498Y-115359180D01*
X132419463Y-115469494D01*
X132498815Y-115566185D01*
X132567524Y-115622573D01*
X132499463Y-115705506D01*
X132440498Y-115815820D01*
X132404188Y-115935518D01*
X132391928Y-116060000D01*
X132395000Y-116069250D01*
X132553750Y-116228000D01*
X133223000Y-116228000D01*
X133223000Y-116208000D01*
X133232615Y-116208000D01*
X133235010Y-116232312D01*
X133235010Y-116391928D01*
X133177500Y-116391928D01*
X133024243Y-116407023D01*
X132876875Y-116451726D01*
X132820237Y-116482000D01*
X132553750Y-116482000D01*
X132395000Y-116640750D01*
X132391928Y-116650000D01*
X132404188Y-116774482D01*
X132440498Y-116894180D01*
X132444312Y-116901316D01*
X132407023Y-117024243D01*
X132391928Y-117177500D01*
X132391928Y-117472500D01*
X132407023Y-117625757D01*
X132451726Y-117773125D01*
X132524321Y-117908940D01*
X132590001Y-117988971D01*
X132590001Y-118101821D01*
X132403368Y-118226525D01*
X132196525Y-118433368D01*
X132080000Y-118607760D01*
X131963475Y-118433368D01*
X131756632Y-118226525D01*
X131570000Y-118101822D01*
X131570000Y-117988970D01*
X131635679Y-117908940D01*
X131708274Y-117773125D01*
X131752977Y-117625757D01*
X131768072Y-117472500D01*
X131768072Y-117177500D01*
X131752977Y-117024243D01*
X131715688Y-116901316D01*
X131719502Y-116894180D01*
X131755812Y-116774482D01*
X131768072Y-116650000D01*
X131765000Y-116640750D01*
X131606250Y-116482000D01*
X131339763Y-116482000D01*
X131283125Y-116451726D01*
X131135757Y-116407023D01*
X130982500Y-116391928D01*
X130933497Y-116391928D01*
X130924990Y-116383421D01*
X130924990Y-116208000D01*
X130937000Y-116208000D01*
X130937000Y-116228000D01*
X131606250Y-116228000D01*
X131765000Y-116069250D01*
X131768072Y-116060000D01*
X131755812Y-115935518D01*
X131719502Y-115815820D01*
X131660537Y-115705506D01*
X131581185Y-115608815D01*
X131484494Y-115529463D01*
X131374180Y-115470498D01*
X131254482Y-115434188D01*
X131130000Y-115421928D01*
X131095750Y-115425000D01*
X130937002Y-115583748D01*
X130937002Y-115425000D01*
X130924990Y-115425000D01*
X130924990Y-113115000D01*
X131361928Y-113115000D01*
X131374188Y-113239482D01*
X131410498Y-113359180D01*
X131469463Y-113469494D01*
X131548815Y-113566185D01*
X131645506Y-113645537D01*
X131755820Y-113704502D01*
X131875518Y-113740812D01*
X132000000Y-113753072D01*
X132114250Y-113750000D01*
X132273000Y-113591250D01*
X132273000Y-112792000D01*
X131523750Y-112792000D01*
X131365000Y-112950750D01*
X131361928Y-113115000D01*
X130924990Y-113115000D01*
X130924990Y-106128072D01*
X131500000Y-106128072D01*
X131624482Y-106115812D01*
X131744180Y-106079502D01*
X131854494Y-106020537D01*
X131951185Y-105941185D01*
X132030537Y-105844494D01*
X132081046Y-105750000D01*
X134618954Y-105750000D01*
X134669463Y-105844494D01*
G36*
X136309999Y-115431777D02*
G01*
X136210000Y-115421928D01*
X136175750Y-115425000D01*
X136017000Y-115583750D01*
X136017000Y-116228000D01*
X136037000Y-116228000D01*
X136037000Y-116391928D01*
X135717500Y-116391928D01*
X135564243Y-116407023D01*
X135416875Y-116451726D01*
X135360237Y-116482000D01*
X135093750Y-116482000D01*
X134935000Y-116640750D01*
X134931928Y-116650000D01*
X134944188Y-116774482D01*
X134980498Y-116894180D01*
X134984312Y-116901316D01*
X134947023Y-117024243D01*
X134931928Y-117177500D01*
X134931928Y-117472500D01*
X134947023Y-117625757D01*
X134991726Y-117773125D01*
X135064321Y-117908940D01*
X135130001Y-117988971D01*
X135130001Y-118101821D01*
X134943368Y-118226525D01*
X134736525Y-118433368D01*
X134620000Y-118607760D01*
X134503475Y-118433368D01*
X134296632Y-118226525D01*
X134110000Y-118101822D01*
X134110000Y-117988970D01*
X134175679Y-117908940D01*
X134248274Y-117773125D01*
X134292977Y-117625757D01*
X134295046Y-117604755D01*
X134506007Y-117393794D01*
X134535011Y-117369991D01*
X134629984Y-117254266D01*
X134700556Y-117122237D01*
X134744013Y-116978976D01*
X134755010Y-116867323D01*
X134755010Y-116867313D01*
X134758686Y-116829990D01*
X134755010Y-116792667D01*
X134755010Y-116509791D01*
X135065276Y-116199526D01*
X135093750Y-116228000D01*
X135763000Y-116228000D01*
X135763000Y-115583750D01*
X135722026Y-115542776D01*
X136309999Y-114954803D01*
X136309999Y-115431777D01*
G37*
X136309999Y-115431777D02*
X136210000Y-115421928D01*
X136175750Y-115425000D01*
X136017000Y-115583750D01*
X136017000Y-116228000D01*
X136037000Y-116228000D01*
X136037000Y-116391928D01*
X135717500Y-116391928D01*
X135564243Y-116407023D01*
X135416875Y-116451726D01*
X135360237Y-116482000D01*
X135093750Y-116482000D01*
X134935000Y-116640750D01*
X134931928Y-116650000D01*
X134944188Y-116774482D01*
X134980498Y-116894180D01*
X134984312Y-116901316D01*
X134947023Y-117024243D01*
X134931928Y-117177500D01*
X134931928Y-117472500D01*
X134947023Y-117625757D01*
X134991726Y-117773125D01*
X135064321Y-117908940D01*
X135130001Y-117988971D01*
X135130001Y-118101821D01*
X134943368Y-118226525D01*
X134736525Y-118433368D01*
X134620000Y-118607760D01*
X134503475Y-118433368D01*
X134296632Y-118226525D01*
X134110000Y-118101822D01*
X134110000Y-117988970D01*
X134175679Y-117908940D01*
X134248274Y-117773125D01*
X134292977Y-117625757D01*
X134295046Y-117604755D01*
X134506007Y-117393794D01*
X134535011Y-117369991D01*
X134629984Y-117254266D01*
X134700556Y-117122237D01*
X134744013Y-116978976D01*
X134755010Y-116867323D01*
X134755010Y-116867313D01*
X134758686Y-116829990D01*
X134755010Y-116792667D01*
X134755010Y-116509791D01*
X135065276Y-116199526D01*
X135093750Y-116228000D01*
X135763000Y-116228000D01*
X135763000Y-115583750D01*
X135722026Y-115542776D01*
X136309999Y-114954803D01*
X136309999Y-115431777D01*
G36*
X135765001Y-111909587D02*
G01*
X135743111Y-111913941D01*
X135652333Y-111905000D01*
X135652322Y-111905000D01*
X135615000Y-111901324D01*
X135577678Y-111905000D01*
X135254320Y-111905000D01*
X135230537Y-111860506D01*
X135151185Y-111763815D01*
X135128554Y-111745242D01*
X135147850Y-111709142D01*
X135196608Y-111548408D01*
X135213072Y-111381250D01*
X135213072Y-110890000D01*
X135356939Y-110890000D01*
X135556898Y-110850226D01*
X135745256Y-110772205D01*
X135765001Y-110759012D01*
X135765001Y-111909587D01*
G37*
X135765001Y-111909587D02*
X135743111Y-111913941D01*
X135652333Y-111905000D01*
X135652322Y-111905000D01*
X135615000Y-111901324D01*
X135577678Y-111905000D01*
X135254320Y-111905000D01*
X135230537Y-111860506D01*
X135151185Y-111763815D01*
X135128554Y-111745242D01*
X135147850Y-111709142D01*
X135196608Y-111548408D01*
X135213072Y-111381250D01*
X135213072Y-110890000D01*
X135356939Y-110890000D01*
X135556898Y-110850226D01*
X135745256Y-110772205D01*
X135765001Y-110759012D01*
X135765001Y-111909587D01*
%TD*%
M02*
